<svg width="224" height="160" viewBox="0 0 224 160">
  <polygon fill="#605AA4" fill-opacity=".2" points="0 0 224 0 224 160 0 160"/>
  <path fill="#807BB6" fill-opacity=".3" d="M224,104.933178 L224,160 L172.130907,160 C168.249979,153.938197 166,146.731854 166,139 C166,117.460895 183.460895,100 205,100 C211.898164,100 218.378035,101.790928 224.000008,104.933182 Z"/>
  <path fill="#605AA4" d="M69.125,59.575 L68.425,57.7 L63.775,57.7 L63.125,59.575 C62.9,60.275 63.1,60.45 63.675,60.45 L64.35,60.45 L64.35,63 L58.1,63 L58.1,60.45 L58.85,60.45 C59.425,60.45 59.525,60.275 59.8,59.55 L64.775,46.375 L69.875,46.375 L74.65,59.55 C74.9,60.25 75.15,60.45 75.675,60.45 L76.3,60.45 L76.3,63 L67.9,63 L67.9,60.45 L68.6,60.45 C69.15,60.45 69.35,60.25 69.125,59.575 Z M66.15,50.5 L64.475,55.35 L67.8,55.35 L66.15,50.5 Z M81.575,63.35 C78.35,63.35 77.125,62.125 77.125,58.975 L77.125,53.3 L75.725,53.3 L75.725,51.025 L76.3,50.95 C77.425,50.7 78.15,50.25 78.375,49.075 L78.675,47.125 L81.95,47.125 L81.95,50.75 L84,50.75 L84,53.3 L81.875,53.3 L81.875,59 C81.875,60.175 82.325,60.525 83.2,60.525 C83.625,60.525 83.925,60.425 84.175,60.35 L84.175,63 C83.55,63.175 82.575,63.35 81.575,63.35 Z M90.5,63.35 C87.275,63.35 86.05,62.125 86.05,58.975 L86.05,53.3 L84.65,53.3 L84.65,51.025 L85.225,50.95 C86.35,50.7 87.075,50.25 87.3,49.075 L87.6,47.125 L90.875,47.125 L90.875,50.75 L92.925,50.75 L92.925,53.3 L90.8,53.3 L90.8,59 C90.8,60.175 91.25,60.525 92.125,60.525 C92.55,60.525 92.85,60.425 93.1,60.35 L93.1,63 C92.475,63.175 91.5,63.35 90.5,63.35 Z M99.825,50.45 L99.825,52.95 C100.325,51.175 101.45,50.4 103.025,50.4 C105,50.4 106.2,51.875 106.2,54.15 C106.2,56.125 105.1,57.325 103.425,57.325 C102.275,57.325 101.325,56.525 101.325,55.425 C101.325,54.65 101.675,54.025 102.3,53.6 C102.125,53.5 101.9,53.45 101.675,53.45 C100.4,53.45 99.9,54.575 99.825,56.775 L99.825,59.675 C99.825,60.35 100,60.45 100.325,60.45 L101.075,60.45 L101.075,63 L93.8,63 L93.8,60.45 L94.45,60.45 C94.775,60.45 94.95,60.35 94.95,59.675 L94.95,54.2 C94.95,53.5 94.85,53.3 94.45,53.3 L93.7,53.3 L93.7,50.75 L96.725,50.75 C98.05,50.75 99.175,50.6 99.825,50.45 Z M112.55,52.85 C112.15,52.85 111.825,52.9 111.575,52.95 C111.675,53.25 111.75,53.55 111.75,53.9 C111.75,55.075 110.775,55.95 109.45,55.95 C107.9,55.95 107.025,55.175 107.025,53.75 C107.025,51.525 109.275,50.4 113.3,50.4 C117.7,50.4 119.325,51.55 119.325,54.725 L119.325,59.675 C119.325,60.25 119.45,60.45 119.8,60.45 L120.45,60.45 L120.45,63 L115.6,63 C115.025,62.45 114.775,61.975 114.5,61.125 C113.9,62.4 112.225,63.35 110.425,63.35 C108.05,63.35 106.65,61.95 106.65,60.05 C106.65,56.6 110.9,56.05 114.45,55.425 L114.45,54.75 C114.45,53.45 113.925,52.85 112.55,52.85 Z M112.45,60.6 C113.775,60.6 114.45,59.6 114.45,58.15 L114.45,57.25 C112.725,57.525 111.2,57.925 111.2,59.35 C111.2,60.1 111.725,60.6 112.45,60.6 Z M128.4,55.475 C128.4,54.4 129,53.625 130.1,53.375 C129.725,53.05 129.15,52.9 128.375,52.9 C126.65,52.9 125.675,53.95 125.675,56.4 L125.675,56.975 C125.675,59.35 126.625,60.375 128.275,60.375 C129.6,60.375 130.4,59.725 130.9,58.525 L133.4,59.95 C132.6,61.925 130.95,63.35 127.65,63.35 C123.3,63.35 120.725,60.975 120.725,56.825 C120.725,52.825 123.325,50.4 127.625,50.4 C131.375,50.4 133.425,51.925 133.425,54.625 C133.425,56.35 132.45,57.575 130.775,57.575 C129.275,57.575 128.4,56.625 128.4,55.475 Z M139.475,63.35 C136.25,63.35 135.025,62.125 135.025,58.975 L135.025,53.3 L133.625,53.3 L133.625,51.025 L134.2,50.95 C135.325,50.7 136.05,50.25 136.275,49.075 L136.575,47.125 L139.85,47.125 L139.85,50.75 L141.9,50.75 L141.9,53.3 L139.775,53.3 L139.775,59 C139.775,60.175 140.225,60.525 141.1,60.525 C141.525,60.525 141.825,60.425 142.075,60.35 L142.075,63 C141.45,63.175 140.475,63.35 139.475,63.35 Z M146.45,50.025 C144.9,50.025 143.875,49.075 143.875,47.725 C143.875,46.375 144.9,45.425 146.45,45.425 C148,45.425 149.025,46.375 149.025,47.725 C149.025,49.075 148,50.025 146.45,50.025 Z M142.875,63 L142.875,60.45 L143.55,60.45 C143.9,60.45 144.025,60.275 144.025,59.675 L144.025,54.3 C144.025,53.55 143.9,53.3 143.475,53.3 L142.875,53.3 L142.875,50.75 L145.8,50.75 C147.15,50.75 148.275,50.6 148.925,50.45 L148.925,59.675 C148.925,60.275 149.05,60.45 149.4,60.45 L150.025,60.45 L150.025,63 L142.875,63 Z M157.525,63.35 C153.4,63.35 150.7,60.775 150.7,56.875 C150.7,53 153.475,50.4 157.65,50.4 C161.725,50.4 164.45,52.975 164.45,56.875 C164.45,60.75 161.7,63.35 157.525,63.35 Z M157.575,60.675 C158.975,60.675 159.55,59.8 159.55,57.1 L159.55,56.65 C159.55,53.925 158.975,53.05 157.575,53.05 C156.2,53.05 155.6,53.925 155.6,56.65 L155.6,57.1 C155.6,59.825 156.175,60.675 157.575,60.675 Z M170.925,50.45 L170.925,52.55 C171.675,51.1 173.05,50.4 174.95,50.4 C177.6,50.4 178.975,51.95 178.975,55.3 L178.975,59.675 C178.975,60.35 179.15,60.45 179.475,60.45 L180.125,60.45 L180.125,63 L173.075,63 L173.075,60.45 L173.6,60.45 C173.925,60.45 174.1,60.35 174.1,59.675 L174.1,55.375 C174.1,53.95 173.7,53.425 172.7,53.425 C171.575,53.425 171,54.2 171,56.125 L171,59.675 C171,60.35 171.175,60.45 171.5,60.45 L172.025,60.45 L172.025,63 L164.975,63 L164.975,60.45 L165.625,60.45 C165.95,60.45 166.125,60.35 166.125,59.675 L166.125,54.2 C166.125,53.5 166,53.3 165.625,53.3 L164.975,53.3 L164.975,50.75 L167.85,50.75 C169.175,50.75 170.3,50.6 170.925,50.45 Z M191.45,63.275 C189.05,63.275 188.075,62.3 188.075,59.825 L188.075,52.325 L186.25,52.325 L186.25,51.025 L187.45,50.95 C188.125,50.85 188.475,50.625 188.55,49.9 L188.775,47.7 L190.45,47.7 L190.45,50.875 L193.125,50.875 L193.125,52.325 L190.375,52.325 L190.375,59.8 C190.375,61.175 190.9,61.7 192.075,61.7 C192.675,61.7 193.025,61.575 193.35,61.475 L193.35,62.975 C192.975,63.1 192.275,63.275 191.45,63.275 Z M200.15,63.3 C196.45,63.3 193.95,60.725 193.95,56.925 C193.95,53.175 196.5,50.575 200.25,50.575 C203.9,50.575 206.4,53.15 206.4,56.925 C206.4,60.7 203.875,63.3 200.15,63.3 Z M200.175,61.775 C202.65,61.775 204.025,60.075 204.025,57.05 L204.025,56.825 C204.025,53.75 202.65,52.1 200.2,52.1 C197.725,52.1 196.35,53.775 196.35,56.825 L196.35,57.05 C196.35,60.1 197.7,61.775 200.175,61.775 Z M83.9,88.275 C81.5,88.275 80.525,87.3 80.525,84.825 L80.525,77.325 L78.7,77.325 L78.7,76.025 L79.9,75.95 C80.575,75.85 80.925,75.625 81,74.9 L81.225,72.7 L82.9,72.7 L82.9,75.875 L85.575,75.875 L85.575,77.325 L82.825,77.325 L82.825,84.8 C82.825,86.175 83.35,86.7 84.525,86.7 C85.125,86.7 85.475,86.575 85.8,86.475 L85.8,87.975 C85.425,88.1 84.725,88.275 83.9,88.275 Z M90.525,71.175 L90.525,78.375 C91.35,76.525 92.825,75.575 94.775,75.575 C97.325,75.575 98.625,77 98.625,79.85 L98.625,85.975 C98.625,86.475 98.75,86.55 99,86.55 L100.4,86.55 L100.4,88 L94.6,88 L94.6,86.55 L95.875,86.55 C96.125,86.55 96.25,86.475 96.25,85.975 L96.25,79.95 C96.25,78.1 95.55,77.25 93.9,77.25 C91.85,77.25 90.525,79.025 90.525,82.2 L90.525,85.975 C90.525,86.475 90.65,86.55 90.875,86.55 L92.225,86.55 L92.225,88 L86.375,88 L86.375,86.55 L87.775,86.55 C88.025,86.55 88.15,86.475 88.15,85.975 L88.15,73.525 C88.15,73 88.05,72.85 87.775,72.85 L86.325,72.85 L86.325,71.4 L87.75,71.4 C88.875,71.4 90,71.275 90.525,71.175 Z M112.95,82.35 L103.5,82.35 C103.55,84.925 104.95,86.775 107.575,86.775 C109.675,86.775 110.85,85.7 111.4,83.95 L112.85,84.55 C112.25,86.675 110.525,88.3 107.4,88.3 C103.35,88.3 101.075,85.625 101.075,81.925 C101.075,78.2 103.575,75.575 107.225,75.575 C110.825,75.575 112.95,77.95 112.95,81.75 L112.95,82.35 Z M107.225,77.05 C105,77.05 103.675,78.475 103.5,81.025 L110.575,81.025 C110.525,78.375 109.375,77.05 107.225,77.05 Z M120.1,87.225 L120.1,84.075 L121.95,84.075 L121.95,86.425 C122.55,86.7 123.5,86.9 124.65,86.9 C126.4,86.9 127.475,86.25 127.475,84.925 C127.475,83.5 126.1,83.15 124.325,82.8 C122.225,82.4 120.1,81.775 120.1,79.3 C120.1,77.075 121.9,75.575 125,75.575 C126.7,75.575 128.325,76.075 129.3,76.6 L129.3,79.725 L127.45,79.725 L127.45,77.5 C126.95,77.2 126.05,76.975 125.05,76.975 C123.3,76.975 122.3,77.675 122.3,78.875 C122.3,80.35 123.725,80.55 125.45,80.875 C127.65,81.3 129.675,82 129.675,84.475 C129.675,86.775 127.85,88.3 124.675,88.3 C122.925,88.3 121.25,87.8 120.1,87.225 Z M137.15,88.3 C133.45,88.3 130.95,85.725 130.95,81.925 C130.95,78.175 133.5,75.575 137.25,75.575 C140.9,75.575 143.4,78.15 143.4,81.925 C143.4,85.7 140.875,88.3 137.15,88.3 Z M137.175,86.775 C139.65,86.775 141.025,85.075 141.025,82.05 L141.025,81.825 C141.025,78.75 139.65,77.1 137.2,77.1 C134.725,77.1 133.35,78.775 133.35,81.825 L133.35,82.05 C133.35,85.1 134.7,86.775 137.175,86.775 Z M144.1,88 L144.1,86.55 L145.525,86.55 C145.725,86.55 145.875,86.475 145.875,85.975 L145.875,73.525 C145.875,73 145.775,72.85 145.525,72.85 L144.05,72.85 L144.05,71.4 L145.45,71.4 C146.6,71.4 147.725,71.275 148.25,71.175 L148.25,85.975 C148.25,86.475 148.375,86.55 148.6,86.55 L149.975,86.55 L149.975,88 L144.1,88 Z M164.5,88 L163.1,88 C161.975,88 160.85,88.125 160.325,88.225 L160.325,85.6 C159.525,87.35 158.075,88.3 156.15,88.3 C153.7,88.3 152.275,87.05 152.275,84.1 L152.275,77.9 C152.275,77.4 152.15,77.325 151.925,77.325 L150.5,77.325 L150.5,75.875 L154.675,75.875 L154.675,84.025 C154.675,86 155.55,86.65 157.025,86.65 C159.075,86.65 160.3,84.9 160.3,82.225 L160.3,77.9 C160.3,77.4 160.175,77.325 159.95,77.325 L158.45,77.325 L158.45,75.875 L162.675,75.875 L162.675,85.875 C162.675,86.4 162.775,86.55 163.05,86.55 L164.5,86.55 L164.5,88 Z M169.575,88.275 C167.175,88.275 166.2,87.3 166.2,84.825 L166.2,77.325 L164.375,77.325 L164.375,76.025 L165.575,75.95 C166.25,75.85 166.6,75.625 166.675,74.9 L166.9,72.7 L168.575,72.7 L168.575,75.875 L171.25,75.875 L171.25,77.325 L168.5,77.325 L168.5,84.8 C168.5,86.175 169.025,86.7 170.2,86.7 C170.8,86.7 171.15,86.575 171.475,86.475 L171.475,87.975 C171.1,88.1 170.4,88.275 169.575,88.275 Z M175.3,74.15 C174.35,74.15 173.7,73.425 173.7,72.525 C173.7,71.65 174.35,70.925 175.3,70.925 C176.225,70.925 176.9,71.65 176.9,72.525 C176.9,73.425 176.225,74.15 175.3,74.15 Z M172.375,88 L172.375,86.55 L173.8,86.55 C174.025,86.55 174.15,86.45 174.15,85.975 L174.15,78.325 C174.15,77.55 174.025,77.325 173.6,77.325 L172.375,77.325 L172.375,75.875 L173.725,75.875 C174.875,75.875 176,75.75 176.525,75.65 L176.525,85.975 C176.525,86.45 176.65,86.55 176.875,86.55 L178.25,86.55 L178.25,88 L172.375,88 Z M185.5,88.3 C181.8,88.3 179.3,85.725 179.3,81.925 C179.3,78.175 181.85,75.575 185.6,75.575 C189.25,75.575 191.75,78.15 191.75,81.925 C191.75,85.7 189.225,88.3 185.5,88.3 Z M185.525,86.775 C188,86.775 189.375,85.075 189.375,82.05 L189.375,81.825 C189.375,78.75 188,77.1 185.55,77.1 C183.075,77.1 181.7,78.775 181.7,81.825 L181.7,82.05 C181.7,85.1 183.05,86.775 185.525,86.775 Z M196.8,75.65 L196.8,78.475 C197.6,76.575 199.1,75.575 201.075,75.575 C203.625,75.575 204.925,77.025 204.925,79.9 L204.925,85.975 C204.925,86.475 205.05,86.55 205.3,86.55 L206.7,86.55 L206.7,88 L200.9,88 L200.9,86.55 L202.2,86.55 C202.425,86.55 202.55,86.475 202.55,85.975 L202.55,79.975 C202.55,78.1 201.85,77.25 200.2,77.25 C198.15,77.25 196.825,78.975 196.825,82.175 L196.825,85.975 C196.825,86.475 196.95,86.55 197.2,86.55 L198.525,86.55 L198.525,88 L192.675,88 L192.675,86.55 L194.075,86.55 C194.325,86.55 194.45,86.475 194.45,85.975 L194.45,78 C194.45,77.475 194.35,77.325 194.075,77.325 L192.675,77.325 L192.675,75.875 L194.025,75.875 C195.15,75.875 196.275,75.75 196.8,75.65 Z"/>
  <path fill="#938FC2" d="M193.550253,130 L189.050253,125.5 L194,120.550253 L209.949747,136.5 L194,152.449747 L189.050253,147.5 L193.550253,143 L57,143 L57,130 L193.550253,130 Z M200,136.449747 L200,136.550253 L200.050253,136.5 L200,136.449747 Z"/>
  <path fill="#605AA4" d="M192.275,23.9 C191.4,23.9 190.8,24.15 190.35,24.5 C191.175,24.85 191.675,25.625 191.675,26.575 C191.675,27.9 190.65,28.975 189.125,28.975 C187.425,28.975 186.2,27.85 186.2,25.95 C186.2,23.025 188.675,21.05 193.2,21.05 C197.7,21.05 200.125,23.025 200.125,26.55 C200.125,32.45 192.225,31.35 190.05,34.45 L195.475,34.45 C196.475,34.45 196.75,34.275 196.8,33.425 L196.925,32.3 L199.725,32.3 L199.725,38 L186.075,38 L186.15,36.4 C186.6,29.775 194.875,30.05 194.875,26.5 C194.875,24.825 193.975,23.9 192.275,23.9 Z M203.775,38.35 C202.125,38.35 201.05,37.3 201.05,35.725 C201.05,34.175 202.125,33.1 203.775,33.1 C205.4,33.1 206.5,34.175 206.5,35.725 C206.5,37.3 205.4,38.35 203.775,38.35 Z"/>
</svg>
