<svg width="224" height="160" viewBox="0 0 224 160">
  <rect width="224" height="160" fill="#605AA4" fill-opacity=".2"/>
  <path fill="#807BB6" fill-opacity=".3" d="M224,104.933178 L224,160 L172.130907,160 C168.249979,153.938197 166,146.731854 166,139 C166,117.460895 183.460895,100 205,100 C211.898164,100 218.378035,101.790928 224.000008,104.933182 Z"/>
  <path fill="#938FC2" d="M193.550253,130 L189.050253,125.5 L194,120.550253 L209.949747,136.5 L194,152.449747 L189.050253,147.5 L193.550253,143 L57,143 L57,130 L193.550253,130 Z M200,136.449747 L200,136.550253 L200.050253,136.5 L200,136.449747 Z" transform="rotate(-180 133.475 136.5)"/>
  <path fill="#605AA4" d="M38.225 61.575L37.525 59.7 32.875 59.7 32.225 61.575C32 62.275 32.2 62.45 32.775 62.45L33.45 62.45 33.45 65 27.2 65 27.2 62.45 27.95 62.45C28.525 62.45 28.625 62.275 28.9 61.55L33.875 48.375 38.975 48.375 43.75 61.55C44 62.25 44.25 62.45 44.775 62.45L45.4 62.45 45.4 65 37 65 37 62.45 37.7 62.45C38.25 62.45 38.45 62.25 38.225 61.575zM35.25 52.5L33.575 57.35 36.9 57.35 35.25 52.5zM51.725 52.45L51.725 54.55C52.475 53.1 53.85 52.4 55.75 52.4 58.4 52.4 59.775 53.95 59.775 57.3L59.775 61.675C59.775 62.35 59.95 62.45 60.275 62.45L60.925 62.45 60.925 65 53.875 65 53.875 62.45 54.4 62.45C54.725 62.45 54.9 62.35 54.9 61.675L54.9 57.375C54.9 55.95 54.5 55.425 53.5 55.425 52.375 55.425 51.8 56.2 51.8 58.125L51.8 61.675C51.8 62.35 51.975 62.45 52.3 62.45L52.825 62.45 52.825 65 45.775 65 45.775 62.45 46.425 62.45C46.75 62.45 46.925 62.35 46.925 61.675L46.925 56.2C46.925 55.5 46.8 55.3 46.425 55.3L45.775 55.3 45.775 52.75 48.65 52.75C49.975 52.75 51.1 52.6 51.725 52.45zM60.95 65L60.95 62.45 61.45 62.45C61.9 62.45 62.025 62.25 62.45 61.775L64.95 59 62.325 55.975C61.975 55.575 61.825 55.3 61.45 55.3L61.05 55.3 61.05 52.75 68.675 52.75 68.675 55.3 68.05 55.3C67.875 55.3 67.525 55.5 67.9 55.95L69 57.35 70.2 55.95C70.45 55.65 70.375 55.3 70.025 55.3L69.5 55.3 69.5 52.75 74.95 52.75 74.95 55.3 74.35 55.3C73.8 55.3 73.725 55.5 73.325 55.975L70.975 58.575 73.725 61.7C74.025 62.075 74.2 62.45 74.6 62.45L74.925 62.45 74.925 65 67.275 65 67.275 62.45 67.95 62.45C68.225 62.45 68.525 62.225 68.175 61.8L66.875 60.15 65.55 61.8C65.3 62.125 65.375 62.45 65.725 62.45L66.275 62.45 66.275 65 60.95 65zM79.125 52.025C77.575 52.025 76.55 51.075 76.55 49.725 76.55 48.375 77.575 47.425 79.125 47.425 80.675 47.425 81.7 48.375 81.7 49.725 81.7 51.075 80.675 52.025 79.125 52.025zM75.55 65L75.55 62.45 76.225 62.45C76.575 62.45 76.7 62.275 76.7 61.675L76.7 56.3C76.7 55.55 76.575 55.3 76.15 55.3L75.55 55.3 75.55 52.75 78.475 52.75C79.825 52.75 80.95 52.6 81.6 52.45L81.6 61.675C81.6 62.275 81.725 62.45 82.075 62.45L82.7 62.45 82.7 65 75.55 65zM96.35 59.775L88.375 59.775C88.45 61.6 89.5 62.45 91.2 62.45 92.725 62.45 93.525 61.65 93.975 60.7L96.25 62.325C95.35 64.05 93.575 65.35 90.225 65.35 85.775 65.35 83.375 62.7 83.375 58.85 83.375 54.975 86 52.4 90.1 52.4 94.35 52.4 96.35 54.875 96.35 59.275L96.35 59.775zM90.125 54.925C88.95 54.925 88.4 55.7 88.3 57.675L91.725 57.675C91.675 55.65 91.2 54.925 90.125 54.925zM102.525 65.35C99.3 65.35 98.075 64.125 98.075 60.975L98.075 55.3 96.675 55.3 96.675 53.025 97.25 52.95C98.375 52.7 99.1 52.25 99.325 51.075L99.625 49.125 102.9 49.125 102.9 52.75 104.95 52.75 104.95 55.3 102.825 55.3 102.825 61C102.825 62.175 103.275 62.525 104.15 62.525 104.575 62.525 104.875 62.425 105.125 62.35L105.125 65C104.5 65.175 103.525 65.35 102.525 65.35zM109.5 52.025C107.95 52.025 106.925 51.075 106.925 49.725 106.925 48.375 107.95 47.425 109.5 47.425 111.05 47.425 112.075 48.375 112.075 49.725 112.075 51.075 111.05 52.025 109.5 52.025zM105.925 65L105.925 62.45 106.6 62.45C106.95 62.45 107.075 62.275 107.075 61.675L107.075 56.3C107.075 55.55 106.95 55.3 106.525 55.3L105.925 55.3 105.925 52.75 108.85 52.75C110.2 52.75 111.325 52.6 111.975 52.45L111.975 61.675C111.975 62.275 112.1 62.45 112.45 62.45L113.075 62.45 113.075 65 105.925 65zM126.725 59.775L118.75 59.775C118.825 61.6 119.875 62.45 121.575 62.45 123.1 62.45 123.9 61.65 124.35 60.7L126.625 62.325C125.725 64.05 123.95 65.35 120.6 65.35 116.15 65.35 113.75 62.7 113.75 58.85 113.75 54.975 116.375 52.4 120.475 52.4 124.725 52.4 126.725 54.875 126.725 59.275L126.725 59.775zM120.5 54.925C119.325 54.925 118.775 55.7 118.675 57.675L122.1 57.675C122.05 55.65 121.575 54.925 120.5 54.925zM127.55 64.375L127.55 61.225 130.725 61.225 130.725 62.9C131.2 63.025 131.75 63.075 132.4 63.075 133.4 63.075 134.025 62.725 134.025 61.975 134.025 61.125 133.1 60.925 131.55 60.6 129.625 60.15 127.375 59.425 127.375 56.725 127.375 54.05 129.4 52.4 133.05 52.4 135.15 52.4 136.925 52.925 137.875 53.375L137.875 56.425 134.85 56.425 134.85 54.9C134.5 54.775 133.875 54.675 133.35 54.675 132.375 54.675 131.8 55.075 131.8 55.725 131.8 56.6 132.775 56.7 134.2 57.025 136.1 57.475 138.45 58.2 138.45 60.975 138.45 63.725 136.45 65.35 132.725 65.35 130.475 65.35 128.65 64.775 127.55 64.375zM150.7 54.05C149.525 54.05 148.7 54.275 148.175 54.7 148.575 54.95 148.825 55.4 148.825 55.975 148.825 56.85 148.175 57.425 147.325 57.425 146.35 57.425 145.725 56.8 145.725 55.75 145.725 53.625 148.175 52.575 151.05 52.575 154.525 52.575 156.05 53.8 156.05 56.75L156.05 62.975C156.05 63.375 156.15 63.55 156.4 63.55L157.775 63.55 157.775 65 154.225 65C153.975 64.325 153.85 63.65 153.725 62.625 153.05 64.2 151.225 65.3 149.15 65.3 146.875 65.3 145.425 63.925 145.425 62.1 145.425 59.225 148.25 58.1 153.675 57.45L153.675 56.775C153.675 54.85 152.75 54.05 150.7 54.05zM149.975 63.725C152.2 63.725 153.675 62.075 153.675 59.675L153.675 58.675C149.725 59.125 147.725 59.825 147.725 61.725 147.725 62.925 148.625 63.725 149.975 63.725zM166.7 65.3C164.375 65.3 162.7 64.125 161.9 62.225 161.625 63.35 161.225 64.775 161.2 65L159.775 65C159.875 64.3 159.925 63.1 159.925 60.85L159.925 50.525C159.925 50 159.85 49.85 159.575 49.85L158.125 49.85 158.125 48.4 159.475 48.4C160.6 48.4 161.8 48.275 162.3 48.175L162.3 55.45C163.1 53.65 164.65 52.575 166.8 52.575 170.15 52.575 172.275 55.075 172.275 58.925 172.275 62.775 170.075 65.3 166.7 65.3zM166.05 63.675C168.325 63.675 169.825 62.05 169.825 59.1L169.825 58.775C169.825 55.825 168.325 54.2 166.05 54.2 163.85 54.2 162.3 55.85 162.3 58.775L162.3 59.1C162.3 62 163.875 63.675 166.05 63.675zM179.675 65.3C175.975 65.3 173.475 62.725 173.475 58.925 173.475 55.175 176.025 52.575 179.775 52.575 183.425 52.575 185.925 55.15 185.925 58.925 185.925 62.7 183.4 65.3 179.675 65.3zM179.7 63.775C182.175 63.775 183.55 62.075 183.55 59.05L183.55 58.825C183.55 55.75 182.175 54.1 179.725 54.1 177.25 54.1 175.875 55.775 175.875 58.825L175.875 59.05C175.875 62.1 177.225 63.775 179.7 63.775zM200.575 65L199.175 65C198.05 65 196.925 65.125 196.4 65.225L196.4 62.6C195.6 64.35 194.15 65.3 192.225 65.3 189.775 65.3 188.35 64.05 188.35 61.1L188.35 54.9C188.35 54.4 188.225 54.325 188 54.325L186.575 54.325 186.575 52.875 190.75 52.875 190.75 61.025C190.75 63 191.625 63.65 193.1 63.65 195.15 63.65 196.375 61.9 196.375 59.225L196.375 54.9C196.375 54.4 196.25 54.325 196.025 54.325L194.525 54.325 194.525 52.875 198.75 52.875 198.75 62.875C198.75 63.4 198.85 63.55 199.125 63.55L200.575 63.55 200.575 65zM205.65 65.275C203.25 65.275 202.275 64.3 202.275 61.825L202.275 54.325 200.45 54.325 200.45 53.025 201.65 52.95C202.325 52.85 202.675 52.625 202.75 51.9L202.975 49.7 204.65 49.7 204.65 52.875 207.325 52.875 207.325 54.325 204.575 54.325 204.575 61.8C204.575 63.175 205.1 63.7 206.275 63.7 206.875 63.7 207.225 63.575 207.55 63.475L207.55 64.975C207.175 65.1 206.475 65.275 205.65 65.275zM84.9 90.275C82.5 90.275 81.525 89.3 81.525 86.825L81.525 79.325 79.7 79.325 79.7 78.025 80.9 77.95C81.575 77.85 81.925 77.625 82 76.9L82.225 74.7 83.9 74.7 83.9 77.875 86.575 77.875 86.575 79.325 83.825 79.325 83.825 86.8C83.825 88.175 84.35 88.7 85.525 88.7 86.125 88.7 86.475 88.575 86.8 88.475L86.8 89.975C86.425 90.1 85.725 90.275 84.9 90.275zM91.525 73.175L91.525 80.375C92.35 78.525 93.825 77.575 95.775 77.575 98.325 77.575 99.625 79 99.625 81.85L99.625 87.975C99.625 88.475 99.75 88.55 100 88.55L101.4 88.55 101.4 90 95.6 90 95.6 88.55 96.875 88.55C97.125 88.55 97.25 88.475 97.25 87.975L97.25 81.95C97.25 80.1 96.55 79.25 94.9 79.25 92.85 79.25 91.525 81.025 91.525 84.2L91.525 87.975C91.525 88.475 91.65 88.55 91.875 88.55L93.225 88.55 93.225 90 87.375 90 87.375 88.55 88.775 88.55C89.025 88.55 89.15 88.475 89.15 87.975L89.15 75.525C89.15 75 89.05 74.85 88.775 74.85L87.325 74.85 87.325 73.4 88.75 73.4C89.875 73.4 91 73.275 91.525 73.175zM113.95 84.35L104.5 84.35C104.55 86.925 105.95 88.775 108.575 88.775 110.675 88.775 111.85 87.7 112.4 85.95L113.85 86.55C113.25 88.675 111.525 90.3 108.4 90.3 104.35 90.3 102.075 87.625 102.075 83.925 102.075 80.2 104.575 77.575 108.225 77.575 111.825 77.575 113.95 79.95 113.95 83.75L113.95 84.35zM108.225 79.05C106 79.05 104.675 80.475 104.5 83.025L111.575 83.025C111.525 80.375 110.375 79.05 108.225 79.05zM121.1 89.225L121.1 86.075 122.95 86.075 122.95 88.425C123.55 88.7 124.5 88.9 125.65 88.9 127.4 88.9 128.475 88.25 128.475 86.925 128.475 85.5 127.1 85.15 125.325 84.8 123.225 84.4 121.1 83.775 121.1 81.3 121.1 79.075 122.9 77.575 126 77.575 127.7 77.575 129.325 78.075 130.3 78.6L130.3 81.725 128.45 81.725 128.45 79.5C127.95 79.2 127.05 78.975 126.05 78.975 124.3 78.975 123.3 79.675 123.3 80.875 123.3 82.35 124.725 82.55 126.45 82.875 128.65 83.3 130.675 84 130.675 86.475 130.675 88.775 128.85 90.3 125.675 90.3 123.925 90.3 122.25 89.8 121.1 89.225zM138.15 90.3C134.45 90.3 131.95 87.725 131.95 83.925 131.95 80.175 134.5 77.575 138.25 77.575 141.9 77.575 144.4 80.15 144.4 83.925 144.4 87.7 141.875 90.3 138.15 90.3zM138.175 88.775C140.65 88.775 142.025 87.075 142.025 84.05L142.025 83.825C142.025 80.75 140.65 79.1 138.2 79.1 135.725 79.1 134.35 80.775 134.35 83.825L134.35 84.05C134.35 87.1 135.7 88.775 138.175 88.775zM145.1 90L145.1 88.55 146.525 88.55C146.725 88.55 146.875 88.475 146.875 87.975L146.875 75.525C146.875 75 146.775 74.85 146.525 74.85L145.05 74.85 145.05 73.4 146.45 73.4C147.6 73.4 148.725 73.275 149.25 73.175L149.25 87.975C149.25 88.475 149.375 88.55 149.6 88.55L150.975 88.55 150.975 90 145.1 90zM165.5 90L164.1 90C162.975 90 161.85 90.125 161.325 90.225L161.325 87.6C160.525 89.35 159.075 90.3 157.15 90.3 154.7 90.3 153.275 89.05 153.275 86.1L153.275 79.9C153.275 79.4 153.15 79.325 152.925 79.325L151.5 79.325 151.5 77.875 155.675 77.875 155.675 86.025C155.675 88 156.55 88.65 158.025 88.65 160.075 88.65 161.3 86.9 161.3 84.225L161.3 79.9C161.3 79.4 161.175 79.325 160.95 79.325L159.45 79.325 159.45 77.875 163.675 77.875 163.675 87.875C163.675 88.4 163.775 88.55 164.05 88.55L165.5 88.55 165.5 90zM170.575 90.275C168.175 90.275 167.2 89.3 167.2 86.825L167.2 79.325 165.375 79.325 165.375 78.025 166.575 77.95C167.25 77.85 167.6 77.625 167.675 76.9L167.9 74.7 169.575 74.7 169.575 77.875 172.25 77.875 172.25 79.325 169.5 79.325 169.5 86.8C169.5 88.175 170.025 88.7 171.2 88.7 171.8 88.7 172.15 88.575 172.475 88.475L172.475 89.975C172.1 90.1 171.4 90.275 170.575 90.275zM176.3 76.15C175.35 76.15 174.7 75.425 174.7 74.525 174.7 73.65 175.35 72.925 176.3 72.925 177.225 72.925 177.9 73.65 177.9 74.525 177.9 75.425 177.225 76.15 176.3 76.15zM173.375 90L173.375 88.55 174.8 88.55C175.025 88.55 175.15 88.45 175.15 87.975L175.15 80.325C175.15 79.55 175.025 79.325 174.6 79.325L173.375 79.325 173.375 77.875 174.725 77.875C175.875 77.875 177 77.75 177.525 77.65L177.525 87.975C177.525 88.45 177.65 88.55 177.875 88.55L179.25 88.55 179.25 90 173.375 90zM186.5 90.3C182.8 90.3 180.3 87.725 180.3 83.925 180.3 80.175 182.85 77.575 186.6 77.575 190.25 77.575 192.75 80.15 192.75 83.925 192.75 87.7 190.225 90.3 186.5 90.3zM186.525 88.775C189 88.775 190.375 87.075 190.375 84.05L190.375 83.825C190.375 80.75 189 79.1 186.55 79.1 184.075 79.1 182.7 80.775 182.7 83.825L182.7 84.05C182.7 87.1 184.05 88.775 186.525 88.775zM197.8 77.65L197.8 80.475C198.6 78.575 200.1 77.575 202.075 77.575 204.625 77.575 205.925 79.025 205.925 81.9L205.925 87.975C205.925 88.475 206.05 88.55 206.3 88.55L207.7 88.55 207.7 90 201.9 90 201.9 88.55 203.2 88.55C203.425 88.55 203.55 88.475 203.55 87.975L203.55 81.975C203.55 80.1 202.85 79.25 201.2 79.25 199.15 79.25 197.825 80.975 197.825 84.175L197.825 87.975C197.825 88.475 197.95 88.55 198.2 88.55L199.525 88.55 199.525 90 193.675 90 193.675 88.55 195.075 88.55C195.325 88.55 195.45 88.475 195.45 87.975L195.45 80C195.45 79.475 195.35 79.325 195.075 79.325L193.675 79.325 193.675 77.875 195.025 77.875C196.15 77.875 197.275 77.75 197.8 77.65zM191.275 33.5C191.275 34.225 190.9 34.875 190.375 35.25 190.9 35.5 191.55 35.625 192.3 35.625 193.9 35.625 194.9 34.825 194.9 33.35L194.9 33.15C194.9 31.75 194.075 30.975 192.3 30.975 191.6 30.975 191.2 31.075 190.95 31.1L190.95 27.925C191.45 28.05 191.95 28.1 192.425 28.1 193.85 28.1 194.775 27.275 194.775 26.125L194.775 25.925C194.775 24.5 193.825 23.8 192.35 23.8 191.575 23.8 190.925 23.95 190.4 24.2 190.9 24.575 191.25 25.175 191.25 25.85 191.25 27.025 190.275 27.9 188.975 27.9 187.5 27.9 186.375 27.05 186.375 25.3 186.375 22.575 189.025 21.025 193.075 21.025 197.375 21.025 199.875 22.4 199.875 25.5 199.875 27.175 198.725 28.475 196.55 28.975 199.025 29.6 200.2 31.1 200.2 33.3 200.2 36.575 197.325 38.35 192.725 38.35 188.8 38.35 186.175 37.075 186.175 34.225 186.175 32.425 187.35 31.375 188.925 31.375 190.225 31.375 191.275 32.275 191.275 33.5zM203.775 38.35C202.125 38.35 201.05 37.3 201.05 35.725 201.05 34.175 202.125 33.1 203.775 33.1 205.4 33.1 206.5 34.175 206.5 35.725 206.5 37.3 205.4 38.35 203.775 38.35z"/>
</svg>
