<svg width="224" height="160" viewBox="0 0 224 160">
  <polygon fill="#605AA4" fill-opacity=".2" points="0 0 224 0 224 160 0 160"/>
  <path fill="#807BB6" fill-opacity=".3" d="M51.8690925,160 L0,160 L0,104.933178 C5.62196528,101.790928 12.1018358,100 19,100 C40.5391052,100 58,117.460895 58,139 C58,146.731854 55.7500211,153.938197 51.8690925,160 Z"/>
  <path fill="#938FC2" d="M150.550253,130 L146.050253,125.5 L151,120.550253 L166.949747,136.5 L151,152.449747 L146.050253,147.5 L150.550253,143 L14,143 L14,130 L150.550253,130 Z M157,136.449747 L157,136.550253 L157.050253,136.5 L157,136.449747 Z"/>
  <path fill="#605AA4" d="M23.175 65.35C20.375 65.35 18.275 64.75 16.8 64.1L16.8 59.925 20.7 59.925 20.7 62.225C21.3 62.45 22.2 62.6 23.1 62.6 24.45 62.6 25.35 62 25.35 60.975 25.35 59.55 24.2 59.375 21.725 58.775 18.775 58.025 16.675 56.825 16.675 53.675 16.675 50.225 19.2 48.05 23.825 48.05 26.4 48.05 28.325 48.575 29.775 49.2L29.775 53.225 25.9 53.225 25.9 51.2C25.4 51.025 24.65 50.9 23.875 50.9 22.4 50.9 21.575 51.475 21.575 52.5 21.575 53.75 22.7 53.925 25.05 54.525 27.825 55.225 30.35 56.3 30.35 59.675 30.35 63.125 28.175 65.35 23.175 65.35zM36.65 65.35C33.425 65.35 32.2 64.125 32.2 60.975L32.2 55.3 30.8 55.3 30.8 53.025 31.375 52.95C32.5 52.7 33.225 52.25 33.45 51.075L33.75 49.125 37.025 49.125 37.025 52.75 39.075 52.75 39.075 55.3 36.95 55.3 36.95 61C36.95 62.175 37.4 62.525 38.275 62.525 38.7 62.525 39 62.425 39.25 62.35L39.25 65C38.625 65.175 37.65 65.35 36.65 65.35zM45.975 52.45L45.975 54.95C46.475 53.175 47.6 52.4 49.175 52.4 51.15 52.4 52.35 53.875 52.35 56.15 52.35 58.125 51.25 59.325 49.575 59.325 48.425 59.325 47.475 58.525 47.475 57.425 47.475 56.65 47.825 56.025 48.45 55.6 48.275 55.5 48.05 55.45 47.825 55.45 46.55 55.45 46.05 56.575 45.975 58.775L45.975 61.675C45.975 62.35 46.15 62.45 46.475 62.45L47.225 62.45 47.225 65 39.95 65 39.95 62.45 40.6 62.45C40.925 62.45 41.1 62.35 41.1 61.675L41.1 56.2C41.1 55.5 41 55.3 40.6 55.3L39.85 55.3 39.85 52.75 42.875 52.75C44.2 52.75 45.325 52.6 45.975 52.45zM67.925 65L64.9 65C63.575 65 62.45 65.15 61.8 65.3L61.8 63.35C61 64.7 59.675 65.35 57.875 65.35 55.175 65.35 53.85 63.85 53.85 60.5L53.85 56.075C53.85 55.4 53.675 55.3 53.35 55.3L52.7 55.3 52.7 52.75 58.725 52.75 58.725 60.425C58.725 61.875 59.175 62.325 60.15 62.325 61.275 62.325 61.8 61.55 61.8 59.775L61.8 56.075C61.8 55.4 61.625 55.3 61.3 55.3L60.375 55.3 60.375 52.75 66.675 52.75 66.675 61.55C66.675 62.25 66.8 62.45 67.175 62.45L67.925 62.45 67.925 65zM74.975 69.975C69.525 69.975 67.9 69.2 67.9 67.675 67.9 66.625 68.85 65.825 70.8 65.35 69.225 64.9 68.425 63.95 68.425 62.6 68.425 61.35 69.225 60.4 70.675 59.875 69.55 59.175 68.975 58.125 68.975 56.7 68.975 54.125 71.525 52.4 75.225 52.4 76.6 52.4 77.825 52.65 78.8 53.1 79.2 51.75 80.075 51 81.3 51 82.475 51 83.3 51.725 83.3 52.775 83.3 53.9 82.725 54.525 81.7 54.525 81.1 54.525 80.6 54.275 80.325 53.8L80.1 53.95C80.825 54.65 81.25 55.575 81.25 56.675 81.25 59.375 78.875 60.85 75 60.85 73.95 60.85 73 60.75 72.225 60.55 71.775 60.625 71.6 60.775 71.6 61.075 71.6 61.55 71.925 61.725 72.95 61.725 74.775 61.725 76.9 61.65 78.5 61.65 81.375 61.65 82.675 63.2 82.675 65.375 82.675 68.375 80.375 69.975 74.975 69.975zM75.05 58.75C76.075 58.75 76.55 58.2 76.55 56.925L76.55 56.4C76.55 55.125 76.075 54.55 75.1 54.55 74.075 54.55 73.6 55.175 73.6 56.425L73.6 56.975C73.6 58.175 74.075 58.75 75.05 58.75zM77.375 65.9L72.85 65.9C71.975 66.15 71.5 66.6 71.5 67.15 71.5 67.925 72.45 68.125 75.175 68.125 78.1 68.125 79.225 67.7 79.225 66.825 79.225 66.125 78.925 65.9 77.375 65.9zM89.65 69.975C84.2 69.975 82.575 69.2 82.575 67.675 82.575 66.625 83.525 65.825 85.475 65.35 83.9 64.9 83.1 63.95 83.1 62.6 83.1 61.35 83.9 60.4 85.35 59.875 84.225 59.175 83.65 58.125 83.65 56.7 83.65 54.125 86.2 52.4 89.9 52.4 91.275 52.4 92.5 52.65 93.475 53.1 93.875 51.75 94.75 51 95.975 51 97.15 51 97.975 51.725 97.975 52.775 97.975 53.9 97.4 54.525 96.375 54.525 95.775 54.525 95.275 54.275 95 53.8L94.775 53.95C95.5 54.65 95.925 55.575 95.925 56.675 95.925 59.375 93.55 60.85 89.675 60.85 88.625 60.85 87.675 60.75 86.9 60.55 86.45 60.625 86.275 60.775 86.275 61.075 86.275 61.55 86.6 61.725 87.625 61.725 89.45 61.725 91.575 61.65 93.175 61.65 96.05 61.65 97.35 63.2 97.35 65.375 97.35 68.375 95.05 69.975 89.65 69.975zM89.725 58.75C90.75 58.75 91.225 58.2 91.225 56.925L91.225 56.4C91.225 55.125 90.75 54.55 89.775 54.55 88.75 54.55 88.275 55.175 88.275 56.425L88.275 56.975C88.275 58.175 88.75 58.75 89.725 58.75zM92.05 65.9L87.525 65.9C86.65 66.15 86.175 66.6 86.175 67.15 86.175 67.925 87.125 68.125 89.85 68.125 92.775 68.125 93.9 67.7 93.9 66.825 93.9 66.125 93.6 65.9 92.05 65.9zM97.95 65L97.95 62.45 98.625 62.45C98.925 62.45 99.1 62.35 99.1 61.675L99.1 51.85C99.1 51.15 99 50.95 98.625 50.95L97.85 50.95 97.85 48.4 100.875 48.4C102.225 48.4 103.35 48.25 104 48.1L104 61.675C104 62.35 104.175 62.45 104.475 62.45L105.025 62.45 105.025 65 97.95 65zM118.45 59.775L110.475 59.775C110.55 61.6 111.6 62.45 113.3 62.45 114.825 62.45 115.625 61.65 116.075 60.7L118.35 62.325C117.45 64.05 115.675 65.35 112.325 65.35 107.875 65.35 105.475 62.7 105.475 58.85 105.475 54.975 108.1 52.4 112.2 52.4 116.45 52.4 118.45 54.875 118.45 59.275L118.45 59.775zM112.225 54.925C111.05 54.925 110.5 55.7 110.4 57.675L113.825 57.675C113.775 55.65 113.3 54.925 112.225 54.925zM131.35 65.3C127.65 65.3 125.15 62.725 125.15 58.925 125.15 55.175 127.7 52.575 131.45 52.575 135.1 52.575 137.6 55.15 137.6 58.925 137.6 62.7 135.075 65.3 131.35 65.3zM131.375 63.775C133.85 63.775 135.225 62.075 135.225 59.05L135.225 58.825C135.225 55.75 133.85 54.1 131.4 54.1 128.925 54.1 127.55 55.775 127.55 58.825L127.55 59.05C127.55 62.1 128.9 63.775 131.375 63.775zM138.075 54.325L138.075 52.875 139.825 52.875 139.825 51.6C139.825 48.975 140.85 47.95 143.2 47.95 144.075 47.95 144.8 48.175 145.125 48.375L145.125 49.825C144.825 49.65 144.35 49.525 143.825 49.525 142.55 49.525 142.075 50.025 142.125 51.9L142.125 52.875 144.55 52.875 144.55 54.325 142.15 54.325 142.15 62.975C142.15 63.475 142.275 63.55 142.525 63.55L144.1 63.55 144.1 65 138.15 65 138.15 63.55 139.45 63.55C139.7 63.55 139.825 63.475 139.825 62.975L139.825 54.325 138.075 54.325zM21.375 90.275C18.975 90.275 18 89.3 18 86.825L18 79.325 16.175 79.325 16.175 78.025 17.375 77.95C18.05 77.85 18.4 77.625 18.475 76.9L18.7 74.7 20.375 74.7 20.375 77.875 23.05 77.875 23.05 79.325 20.3 79.325 20.3 86.8C20.3 88.175 20.825 88.7 22 88.7 22.6 88.7 22.95 88.575 23.275 88.475L23.275 89.975C22.9 90.1 22.2 90.275 21.375 90.275zM28 73.175L28 80.375C28.825 78.525 30.3 77.575 32.25 77.575 34.8 77.575 36.1 79 36.1 81.85L36.1 87.975C36.1 88.475 36.225 88.55 36.475 88.55L37.875 88.55 37.875 90 32.075 90 32.075 88.55 33.35 88.55C33.6 88.55 33.725 88.475 33.725 87.975L33.725 81.95C33.725 80.1 33.025 79.25 31.375 79.25 29.325 79.25 28 81.025 28 84.2L28 87.975C28 88.475 28.125 88.55 28.35 88.55L29.7 88.55 29.7 90 23.85 90 23.85 88.55 25.25 88.55C25.5 88.55 25.625 88.475 25.625 87.975L25.625 75.525C25.625 75 25.525 74.85 25.25 74.85L23.8 74.85 23.8 73.4 25.225 73.4C26.35 73.4 27.475 73.275 28 73.175zM50.425 84.35L40.975 84.35C41.025 86.925 42.425 88.775 45.05 88.775 47.15 88.775 48.325 87.7 48.875 85.95L50.325 86.55C49.725 88.675 48 90.3 44.875 90.3 40.825 90.3 38.55 87.625 38.55 83.925 38.55 80.2 41.05 77.575 44.7 77.575 48.3 77.575 50.425 79.95 50.425 83.75L50.425 84.35zM44.7 79.05C42.475 79.05 41.15 80.475 40.975 83.025L48.05 83.025C48 80.375 46.85 79.05 44.7 79.05zM57.25 90L57.25 88.55 58.65 88.55C58.9 88.55 59.025 88.475 59.025 87.975L59.025 80C59.025 79.475 58.925 79.325 58.65 79.325L57.25 79.325 57.25 77.875 58.575 77.875C59.725 77.875 60.85 77.75 61.35 77.65L61.35 80.075C62.1 78.45 63.275 77.575 65.075 77.575 67.025 77.575 68.25 78.5 68.65 80.45 69.325 78.575 70.575 77.575 72.55 77.575 75.2 77.575 76.475 79.05 76.475 82.225L76.475 87.975C76.475 88.475 76.6 88.55 76.85 88.55L78.25 88.55 78.25 90 72.475 90 72.475 88.55 73.75 88.55C73.975 88.55 74.1 88.475 74.1 87.975L74.1 82.375C74.1 80.225 73.4 79.275 71.725 79.275 69.9 79.275 68.95 80.775 68.95 83.45L68.95 87.975C68.95 88.475 69.075 88.55 69.3 88.55L70.725 88.55 70.725 90 64.95 90 64.95 88.55 66.2 88.55C66.425 88.55 66.575 88.475 66.575 87.975L66.575 82.075C66.575 80.225 65.75 79.275 64.2 79.275 62.375 79.275 61.4 80.775 61.4 83.45L61.4 87.975C61.4 88.475 61.525 88.55 61.775 88.55L63.1 88.55 63.1 90 57.25 90zM85.175 90.3C81.475 90.3 78.975 87.725 78.975 83.925 78.975 80.175 81.525 77.575 85.275 77.575 88.925 77.575 91.425 80.15 91.425 83.925 91.425 87.7 88.9 90.3 85.175 90.3zM85.2 88.775C87.675 88.775 89.05 87.075 89.05 84.05L89.05 83.825C89.05 80.75 87.675 79.1 85.225 79.1 82.75 79.1 81.375 80.775 81.375 83.825L81.375 84.05C81.375 87.1 82.725 88.775 85.2 88.775zM92.35 90L92.35 88.55 93.75 88.55C94 88.55 94.125 88.475 94.125 87.975L94.125 80C94.125 79.475 94.025 79.325 93.75 79.325L92.35 79.325 92.35 77.875 93.675 77.875C94.825 77.875 95.95 77.75 96.45 77.65L96.45 80.075C97.2 78.45 98.375 77.575 100.175 77.575 102.125 77.575 103.35 78.5 103.75 80.45 104.425 78.575 105.675 77.575 107.65 77.575 110.3 77.575 111.575 79.05 111.575 82.225L111.575 87.975C111.575 88.475 111.7 88.55 111.95 88.55L113.35 88.55 113.35 90 107.575 90 107.575 88.55 108.85 88.55C109.075 88.55 109.2 88.475 109.2 87.975L109.2 82.375C109.2 80.225 108.5 79.275 106.825 79.275 105 79.275 104.05 80.775 104.05 83.45L104.05 87.975C104.05 88.475 104.175 88.55 104.4 88.55L105.825 88.55 105.825 90 100.05 90 100.05 88.55 101.3 88.55C101.525 88.55 101.675 88.475 101.675 87.975L101.675 82.075C101.675 80.225 100.85 79.275 99.3 79.275 97.475 79.275 96.5 80.775 96.5 83.45L96.5 87.975C96.5 88.475 96.625 88.55 96.875 88.55L98.2 88.55 98.2 90 92.35 90zM125.95 84.35L116.5 84.35C116.55 86.925 117.95 88.775 120.575 88.775 122.675 88.775 123.85 87.7 124.4 85.95L125.85 86.55C125.25 88.675 123.525 90.3 120.4 90.3 116.35 90.3 114.075 87.625 114.075 83.925 114.075 80.2 116.575 77.575 120.225 77.575 123.825 77.575 125.95 79.95 125.95 83.75L125.95 84.35zM120.225 79.05C118 79.05 116.675 80.475 116.5 83.025L123.575 83.025C123.525 80.375 122.375 79.05 120.225 79.05zM131.075 77.65L131.075 80.475C131.875 78.575 133.375 77.575 135.35 77.575 137.9 77.575 139.2 79.025 139.2 81.9L139.2 87.975C139.2 88.475 139.325 88.55 139.575 88.55L140.975 88.55 140.975 90 135.175 90 135.175 88.55 136.475 88.55C136.7 88.55 136.825 88.475 136.825 87.975L136.825 81.975C136.825 80.1 136.125 79.25 134.475 79.25 132.425 79.25 131.1 80.975 131.1 84.175L131.1 87.975C131.1 88.475 131.225 88.55 131.475 88.55L132.8 88.55 132.8 90 126.95 90 126.95 88.55 128.35 88.55C128.6 88.55 128.725 88.475 128.725 87.975L128.725 80C128.725 79.475 128.625 79.325 128.35 79.325L126.95 79.325 126.95 77.875 128.3 77.875C129.425 77.875 130.55 77.75 131.075 77.65zM146.05 90.275C143.65 90.275 142.675 89.3 142.675 86.825L142.675 79.325 140.85 79.325 140.85 78.025 142.05 77.95C142.725 77.85 143.075 77.625 143.15 76.9L143.375 74.7 145.05 74.7 145.05 77.875 147.725 77.875 147.725 79.325 144.975 79.325 144.975 86.8C144.975 88.175 145.5 88.7 146.675 88.7 147.275 88.7 147.625 88.575 147.95 88.475L147.95 89.975C147.575 90.1 146.875 90.275 146.05 90.275zM17.675 27.225L16.75 27.225 16.75 24.275 17.5 24.275C19.525 24.275 20.05 23.45 20.65 21.375L24.4 21.375 24.4 34.675C24.4 35.325 24.6 35.45 24.9 35.45L26.7 35.45 26.7 38 17 38 17 35.45 19.025 35.45C19.35 35.45 19.525 35.325 19.525 34.675L19.525 26.975C18.975 27.15 18.375 27.225 17.675 27.225zM30.525 38.35C28.875 38.35 27.8 37.3 27.8 35.725 27.8 34.175 28.875 33.1 30.525 33.1 32.15 33.1 33.25 34.175 33.25 35.725 33.25 37.3 32.15 38.35 30.525 38.35z"/>
</svg>
