<svg width="224" height="160" viewBox="0 0 224 160">
  <rect width="224" height="160" fill="#605AA4" fill-opacity=".2"/>
  <path fill="#605AA4" d="M16.3,65 L16.3,62.45 L17.175,62.45 C17.65,62.45 17.775,62.275 17.775,61.55 L17.775,51.825 C17.775,51.125 17.65,50.95 17.175,50.95 L16.3,50.95 L16.3,48.4 L24.425,48.4 L24.425,50.95 L23.65,50.95 C23.2,50.95 23.05,51.125 23.05,51.825 L23.05,55.375 L27.95,55.375 L27.95,51.825 C27.95,51.125 27.825,50.95 27.375,50.95 L26.575,50.95 L26.575,48.4 L34.7,48.4 L34.7,50.95 L33.825,50.95 C33.375,50.95 33.225,51.125 33.225,51.825 L33.225,61.55 C33.225,62.275 33.375,62.45 33.825,62.45 L34.7,62.45 L34.7,65 L26.575,65 L26.575,62.45 L27.375,62.45 C27.825,62.45 27.95,62.275 27.95,61.55 L27.95,57.775 L23.05,57.775 L23.05,61.55 C23.05,62.275 23.2,62.45 23.65,62.45 L24.425,62.45 L24.425,65 L16.3,65 Z M41.25,54.85 C40.85,54.85 40.525,54.9 40.275,54.95 C40.375,55.25 40.45,55.55 40.45,55.9 C40.45,57.075 39.475,57.95 38.15,57.95 C36.6,57.95 35.725,57.175 35.725,55.75 C35.725,53.525 37.975,52.4 42,52.4 C46.4,52.4 48.025,53.55 48.025,56.725 L48.025,61.675 C48.025,62.25 48.15,62.45 48.5,62.45 L49.15,62.45 L49.15,65 L44.3,65 C43.725,64.45 43.475,63.975 43.2,63.125 C42.6,64.4 40.925,65.35 39.125,65.35 C36.75,65.35 35.35,63.95 35.35,62.05 C35.35,58.6 39.6,58.05 43.15,57.425 L43.15,56.75 C43.15,55.45 42.625,54.85 41.25,54.85 Z M41.15,62.6 C42.475,62.6 43.15,61.6 43.15,60.15 L43.15,59.25 C41.425,59.525 39.9,59.925 39.9,61.35 C39.9,62.1 40.425,62.6 41.15,62.6 Z M59.125,65.35 C56.775,65.35 55.425,64.2 54.825,62.45 L54.475,65 L50.575,65 C50.6,64.8 50.625,63.925 50.625,60.85 L50.625,51.85 C50.625,51.15 50.5,50.95 50.125,50.95 L49.375,50.95 L49.375,48.4 L52.375,48.4 C53.725,48.4 54.875,48.25 55.5,48.1 L55.5,54.65 C56.175,53.225 57.4,52.4 59.35,52.4 C62.525,52.4 64.475,54.975 64.475,58.875 C64.475,62.775 62.375,65.35 59.125,65.35 Z M57.45,62.425 C58.65,62.425 59.4,61.475 59.4,59.1 L59.4,58.65 C59.4,56.275 58.65,55.325 57.45,55.325 C56.25,55.325 55.5,56.25 55.5,58.65 L55.5,59.1 C55.5,61.475 56.25,62.425 57.45,62.425 Z M68.55,52.025 C67,52.025 65.975,51.075 65.975,49.725 C65.975,48.375 67,47.425 68.55,47.425 C70.1,47.425 71.125,48.375 71.125,49.725 C71.125,51.075 70.1,52.025 68.55,52.025 Z M64.975,65 L64.975,62.45 L65.65,62.45 C66,62.45 66.125,62.275 66.125,61.675 L66.125,56.3 C66.125,55.55 66,55.3 65.575,55.3 L64.975,55.3 L64.975,52.75 L67.9,52.75 C69.25,52.75 70.375,52.6 71.025,52.45 L71.025,61.675 C71.025,62.275 71.15,62.45 71.5,62.45 L72.125,62.45 L72.125,65 L64.975,65 Z M78,65.35 C74.775,65.35 73.55,64.125 73.55,60.975 L73.55,55.3 L72.15,55.3 L72.15,53.025 L72.725,52.95 C73.85,52.7 74.575,52.25 74.8,51.075 L75.1,49.125 L78.375,49.125 L78.375,52.75 L80.425,52.75 L80.425,55.3 L78.3,55.3 L78.3,61 C78.3,62.175 78.75,62.525 79.625,62.525 C80.05,62.525 80.35,62.425 80.6,62.35 L80.6,65 C79.975,65.175 79,65.35 78,65.35 Z M81.575,64.375 L81.575,61.225 L84.75,61.225 L84.75,62.9 C85.225,63.025 85.775,63.075 86.425,63.075 C87.425,63.075 88.05,62.725 88.05,61.975 C88.05,61.125 87.125,60.925 85.575,60.6 C83.65,60.15 81.4,59.425 81.4,56.725 C81.4,54.05 83.425,52.4 87.075,52.4 C89.175,52.4 90.95,52.925 91.9,53.375 L91.9,56.425 L88.875,56.425 L88.875,54.9 C88.525,54.775 87.9,54.675 87.375,54.675 C86.4,54.675 85.825,55.075 85.825,55.725 C85.825,56.6 86.8,56.7 88.225,57.025 C90.125,57.475 92.475,58.2 92.475,60.975 C92.475,63.725 90.475,65.35 86.75,65.35 C84.5,65.35 82.675,64.775 81.575,64.375 Z M105.425,65.3 C101.725,65.3 99.225,62.725 99.225,58.925 C99.225,55.175 101.775,52.575 105.525,52.575 C109.175,52.575 111.675,55.15 111.675,58.925 C111.675,62.7 109.15,65.3 105.425,65.3 Z M105.45,63.775 C107.925,63.775 109.3,62.075 109.3,59.05 L109.3,58.825 C109.3,55.75 107.925,54.1 105.475,54.1 C103,54.1 101.625,55.775 101.625,58.825 L101.625,59.05 C101.625,62.1 102.975,63.775 105.45,63.775 Z M112.15,54.325 L112.15,52.875 L113.9,52.875 L113.9,51.6 C113.9,48.975 114.925,47.95 117.275,47.95 C118.15,47.95 118.875,48.175 119.2,48.375 L119.2,49.825 C118.9,49.65 118.425,49.525 117.9,49.525 C116.625,49.525 116.15,50.025 116.2,51.9 L116.2,52.875 L118.625,52.875 L118.625,54.325 L116.225,54.325 L116.225,62.975 C116.225,63.475 116.35,63.55 116.6,63.55 L118.175,63.55 L118.175,65 L112.225,65 L112.225,63.55 L113.525,63.55 C113.775,63.55 113.9,63.475 113.9,62.975 L113.9,54.325 L112.15,54.325 Z M130.3,65.275 C127.9,65.275 126.925,64.3 126.925,61.825 L126.925,54.325 L125.1,54.325 L125.1,53.025 L126.3,52.95 C126.975,52.85 127.325,52.625 127.4,51.9 L127.625,49.7 L129.3,49.7 L129.3,52.875 L131.975,52.875 L131.975,54.325 L129.225,54.325 L129.225,61.8 C129.225,63.175 129.75,63.7 130.925,63.7 C131.525,63.7 131.875,63.575 132.2,63.475 L132.2,64.975 C131.825,65.1 131.125,65.275 130.3,65.275 Z M136.925,48.175 L136.925,55.375 C137.75,53.525 139.225,52.575 141.175,52.575 C143.725,52.575 145.025,54 145.025,56.85 L145.025,62.975 C145.025,63.475 145.15,63.55 145.4,63.55 L146.8,63.55 L146.8,65 L141,65 L141,63.55 L142.275,63.55 C142.525,63.55 142.65,63.475 142.65,62.975 L142.65,56.95 C142.65,55.1 141.95,54.25 140.3,54.25 C138.25,54.25 136.925,56.025 136.925,59.2 L136.925,62.975 C136.925,63.475 137.05,63.55 137.275,63.55 L138.625,63.55 L138.625,65 L132.775,65 L132.775,63.55 L134.175,63.55 C134.425,63.55 134.55,63.475 134.55,62.975 L134.55,50.525 C134.55,50 134.45,49.85 134.175,49.85 L132.725,49.85 L132.725,48.4 L134.15,48.4 C135.275,48.4 136.4,48.275 136.925,48.175 Z M159.35,59.35 L149.9,59.35 C149.95,61.925 151.35,63.775 153.975,63.775 C156.075,63.775 157.25,62.7 157.8,60.95 L159.25,61.55 C158.65,63.675 156.925,65.3 153.8,65.3 C149.75,65.3 147.475,62.625 147.475,58.925 C147.475,55.2 149.975,52.575 153.625,52.575 C157.225,52.575 159.35,54.95 159.35,58.75 L159.35,59.35 Z M153.625,54.05 C151.4,54.05 150.075,55.475 149.9,58.025 L156.975,58.025 C156.925,55.375 155.775,54.05 153.625,54.05 Z M16.275,94.3 L16.275,92.85 L17.675,92.85 C17.925,92.85 18.05,92.775 18.05,92.275 L18.05,80 C18.05,79.475 17.95,79.325 17.675,79.325 L16.225,79.325 L16.225,77.875 L17.6,77.875 C18.75,77.875 19.875,77.75 20.375,77.65 L20.375,80.55 C21.15,78.7 22.7,77.575 24.9,77.575 C28.25,77.575 30.375,80.075 30.375,83.925 C30.375,87.775 28.175,90.3 24.825,90.3 C22.675,90.3 21.2,89.2 20.425,87.5 L20.425,92.275 C20.425,92.775 20.55,92.85 20.775,92.85 L22.2,92.85 L22.2,94.3 L16.275,94.3 Z M24.15,88.625 C26.425,88.625 27.925,87.05 27.925,84.1 L27.925,83.775 C27.925,80.825 26.425,79.225 24.15,79.225 C21.95,79.225 20.425,80.85 20.425,83.775 L20.425,84.1 C20.425,87 21.975,88.625 24.15,88.625 Z M35.5,77.65 L35.5,80.475 C36.125,78.4 37.425,77.575 38.85,77.575 C40.575,77.575 41.55,78.675 41.55,80.2 C41.55,81.475 40.825,82.3 39.75,82.3 C39.025,82.3 38.425,81.7 38.425,81 C38.425,80.4 38.85,79.85 39.475,79.7 C39.35,79.45 39,79.15 38.375,79.15 C36.475,79.15 35.55,81.05 35.55,83.9 L35.55,87.975 C35.55,88.475 35.675,88.55 35.9,88.55 L37.425,88.55 L37.425,90 L31.4,90 L31.4,88.55 L32.8,88.55 C33.05,88.55 33.175,88.475 33.175,87.975 L33.175,80 C33.175,79.475 33.075,79.325 32.8,79.325 L31.35,79.325 L31.35,77.875 L32.7,77.875 C33.85,77.875 34.975,77.75 35.5,77.65 Z M53.85,84.35 L44.4,84.35 C44.45,86.925 45.85,88.775 48.475,88.775 C50.575,88.775 51.75,87.7 52.3,85.95 L53.75,86.55 C53.15,88.675 51.425,90.3 48.3,90.3 C44.25,90.3 41.975,87.625 41.975,83.925 C41.975,80.2 44.475,77.575 48.125,77.575 C51.725,77.575 53.85,79.95 53.85,83.75 L53.85,84.35 Z M48.125,79.05 C45.9,79.05 44.575,80.475 44.4,83.025 L51.475,83.025 C51.425,80.375 50.275,79.05 48.125,79.05 Z M55.175,89.225 L55.175,86.075 L57.025,86.075 L57.025,88.425 C57.625,88.7 58.575,88.9 59.725,88.9 C61.475,88.9 62.55,88.25 62.55,86.925 C62.55,85.5 61.175,85.15 59.4,84.8 C57.3,84.4 55.175,83.775 55.175,81.3 C55.175,79.075 56.975,77.575 60.075,77.575 C61.775,77.575 63.4,78.075 64.375,78.6 L64.375,81.725 L62.525,81.725 L62.525,79.5 C62.025,79.2 61.125,78.975 60.125,78.975 C58.375,78.975 57.375,79.675 57.375,80.875 C57.375,82.35 58.8,82.55 60.525,82.875 C62.725,83.3 64.75,84 64.75,86.475 C64.75,88.775 62.925,90.3 59.75,90.3 C58,90.3 56.325,89.8 55.175,89.225 Z M77.9,84.35 L68.45,84.35 C68.5,86.925 69.9,88.775 72.525,88.775 C74.625,88.775 75.8,87.7 76.35,85.95 L77.8,86.55 C77.2,88.675 75.475,90.3 72.35,90.3 C68.3,90.3 66.025,87.625 66.025,83.925 C66.025,80.2 68.525,77.575 72.175,77.575 C75.775,77.575 77.9,79.95 77.9,83.75 L77.9,84.35 Z M72.175,79.05 C69.95,79.05 68.625,80.475 68.45,83.025 L75.525,83.025 C75.475,80.375 74.325,79.05 72.175,79.05 Z M83.025,77.65 L83.025,80.475 C83.825,78.575 85.325,77.575 87.3,77.575 C89.85,77.575 91.15,79.025 91.15,81.9 L91.15,87.975 C91.15,88.475 91.275,88.55 91.525,88.55 L92.925,88.55 L92.925,90 L87.125,90 L87.125,88.55 L88.425,88.55 C88.65,88.55 88.775,88.475 88.775,87.975 L88.775,81.975 C88.775,80.1 88.075,79.25 86.425,79.25 C84.375,79.25 83.05,80.975 83.05,84.175 L83.05,87.975 C83.05,88.475 83.175,88.55 83.425,88.55 L84.75,88.55 L84.75,90 L78.9,90 L78.9,88.55 L80.3,88.55 C80.55,88.55 80.675,88.475 80.675,87.975 L80.675,80 C80.675,79.475 80.575,79.325 80.3,79.325 L78.9,79.325 L78.9,77.875 L80.25,77.875 C81.375,77.875 82.5,77.75 83.025,77.65 Z M98,90.275 C95.6,90.275 94.625,89.3 94.625,86.825 L94.625,79.325 L92.8,79.325 L92.8,78.025 L94,77.95 C94.675,77.85 95.025,77.625 95.1,76.9 L95.325,74.7 L97,74.7 L97,77.875 L99.675,77.875 L99.675,79.325 L96.925,79.325 L96.925,86.8 C96.925,88.175 97.45,88.7 98.625,88.7 C99.225,88.7 99.575,88.575 99.9,88.475 L99.9,89.975 C99.525,90.1 98.825,90.275 98,90.275 Z"/>
  <path fill="#807BB6" fill-opacity=".3" d="M51.8690925,160 L0,160 L0,104.933178 C5.62196528,101.790928 12.1018358,100 19,100 C40.5391052,100 58,117.460895 58,139 C58,146.731854 55.7500211,153.938197 51.8690925,160 Z"/>
  <path fill="#938FC2" d="M150.550253,130 L146.050253,125.5 L151,120.550253 L166.949747,136.5 L151,152.449747 L146.050253,147.5 L150.550253,143 L14,143 L14,130 L150.550253,130 Z M157,136.449747 L157,136.550253 L157.050253,136.5 L157,136.449747 Z" transform="rotate(-180 90.475 136.5)"/>
  <path fill="#605AA4" d="M17.275,31.6 L17.275,28.875 L23.95,19.4 L30.35,19.4 L20.325,28.85 L24.925,28.85 L24.925,26.375 C27.55,26.375 29.7,23.6 29.7,23.6 L29.7,28.85 L32.1,28.85 L32.1,31.6 L29.7,31.6 L29.7,32.55 C29.7,33.275 29.825,33.45 30.3,33.45 L31.2,33.45 L31.2,36 L23.4,36 L23.4,33.45 L24.225,33.45 C24.675,33.45 24.825,33.275 24.825,32.55 L24.825,31.6 L17.275,31.6 Z M35.85,36.35 C34.2,36.35 33.125,35.3 33.125,33.725 C33.125,32.175 34.2,31.1 35.85,31.1 C37.475,31.1 38.575,32.175 38.575,33.725 C38.575,35.3 37.475,36.35 35.85,36.35 Z"/>
</svg>
