<svg xmlns="http://www.w3.org/2000/svg" width="572" height="372" viewBox="0 0 572 372">
  <g fill="none" fill-rule="evenodd">
    <rect width="572" height="372" fill="#FFF"/>
    <g transform="translate(32 18)">
      <g transform="translate(0 176)">
        <rect width="224" height="160" fill="#605AA4" fill-opacity=".2"/>
        <path fill="#605AA4" d="M16.3,65 L16.3,62.45 L17.175,62.45 C17.65,62.45 17.775,62.275 17.775,61.55 L17.775,51.825 C17.775,51.125 17.65,50.95 17.175,50.95 L16.3,50.95 L16.3,48.4 L24.425,48.4 L24.425,50.95 L23.65,50.95 C23.2,50.95 23.05,51.125 23.05,51.825 L23.05,55.375 L27.95,55.375 L27.95,51.825 C27.95,51.125 27.825,50.95 27.375,50.95 L26.575,50.95 L26.575,48.4 L34.7,48.4 L34.7,50.95 L33.825,50.95 C33.375,50.95 33.225,51.125 33.225,51.825 L33.225,61.55 C33.225,62.275 33.375,62.45 33.825,62.45 L34.7,62.45 L34.7,65 L26.575,65 L26.575,62.45 L27.375,62.45 C27.825,62.45 27.95,62.275 27.95,61.55 L27.95,57.775 L23.05,57.775 L23.05,61.55 C23.05,62.275 23.2,62.45 23.65,62.45 L24.425,62.45 L24.425,65 L16.3,65 Z M41.25,54.85 C40.85,54.85 40.525,54.9 40.275,54.95 C40.375,55.25 40.45,55.55 40.45,55.9 C40.45,57.075 39.475,57.95 38.15,57.95 C36.6,57.95 35.725,57.175 35.725,55.75 C35.725,53.525 37.975,52.4 42,52.4 C46.4,52.4 48.025,53.55 48.025,56.725 L48.025,61.675 C48.025,62.25 48.15,62.45 48.5,62.45 L49.15,62.45 L49.15,65 L44.3,65 C43.725,64.45 43.475,63.975 43.2,63.125 C42.6,64.4 40.925,65.35 39.125,65.35 C36.75,65.35 35.35,63.95 35.35,62.05 C35.35,58.6 39.6,58.05 43.15,57.425 L43.15,56.75 C43.15,55.45 42.625,54.85 41.25,54.85 Z M41.15,62.6 C42.475,62.6 43.15,61.6 43.15,60.15 L43.15,59.25 C41.425,59.525 39.9,59.925 39.9,61.35 C39.9,62.1 40.425,62.6 41.15,62.6 Z M59.125,65.35 C56.775,65.35 55.425,64.2 54.825,62.45 L54.475,65 L50.575,65 C50.6,64.8 50.625,63.925 50.625,60.85 L50.625,51.85 C50.625,51.15 50.5,50.95 50.125,50.95 L49.375,50.95 L49.375,48.4 L52.375,48.4 C53.725,48.4 54.875,48.25 55.5,48.1 L55.5,54.65 C56.175,53.225 57.4,52.4 59.35,52.4 C62.525,52.4 64.475,54.975 64.475,58.875 C64.475,62.775 62.375,65.35 59.125,65.35 Z M57.45,62.425 C58.65,62.425 59.4,61.475 59.4,59.1 L59.4,58.65 C59.4,56.275 58.65,55.325 57.45,55.325 C56.25,55.325 55.5,56.25 55.5,58.65 L55.5,59.1 C55.5,61.475 56.25,62.425 57.45,62.425 Z M68.55,52.025 C67,52.025 65.975,51.075 65.975,49.725 C65.975,48.375 67,47.425 68.55,47.425 C70.1,47.425 71.125,48.375 71.125,49.725 C71.125,51.075 70.1,52.025 68.55,52.025 Z M64.975,65 L64.975,62.45 L65.65,62.45 C66,62.45 66.125,62.275 66.125,61.675 L66.125,56.3 C66.125,55.55 66,55.3 65.575,55.3 L64.975,55.3 L64.975,52.75 L67.9,52.75 C69.25,52.75 70.375,52.6 71.025,52.45 L71.025,61.675 C71.025,62.275 71.15,62.45 71.5,62.45 L72.125,62.45 L72.125,65 L64.975,65 Z M78,65.35 C74.775,65.35 73.55,64.125 73.55,60.975 L73.55,55.3 L72.15,55.3 L72.15,53.025 L72.725,52.95 C73.85,52.7 74.575,52.25 74.8,51.075 L75.1,49.125 L78.375,49.125 L78.375,52.75 L80.425,52.75 L80.425,55.3 L78.3,55.3 L78.3,61 C78.3,62.175 78.75,62.525 79.625,62.525 C80.05,62.525 80.35,62.425 80.6,62.35 L80.6,65 C79.975,65.175 79,65.35 78,65.35 Z M81.575,64.375 L81.575,61.225 L84.75,61.225 L84.75,62.9 C85.225,63.025 85.775,63.075 86.425,63.075 C87.425,63.075 88.05,62.725 88.05,61.975 C88.05,61.125 87.125,60.925 85.575,60.6 C83.65,60.15 81.4,59.425 81.4,56.725 C81.4,54.05 83.425,52.4 87.075,52.4 C89.175,52.4 90.95,52.925 91.9,53.375 L91.9,56.425 L88.875,56.425 L88.875,54.9 C88.525,54.775 87.9,54.675 87.375,54.675 C86.4,54.675 85.825,55.075 85.825,55.725 C85.825,56.6 86.8,56.7 88.225,57.025 C90.125,57.475 92.475,58.2 92.475,60.975 C92.475,63.725 90.475,65.35 86.75,65.35 C84.5,65.35 82.675,64.775 81.575,64.375 Z M105.425,65.3 C101.725,65.3 99.225,62.725 99.225,58.925 C99.225,55.175 101.775,52.575 105.525,52.575 C109.175,52.575 111.675,55.15 111.675,58.925 C111.675,62.7 109.15,65.3 105.425,65.3 Z M105.45,63.775 C107.925,63.775 109.3,62.075 109.3,59.05 L109.3,58.825 C109.3,55.75 107.925,54.1 105.475,54.1 C103,54.1 101.625,55.775 101.625,58.825 L101.625,59.05 C101.625,62.1 102.975,63.775 105.45,63.775 Z M112.15,54.325 L112.15,52.875 L113.9,52.875 L113.9,51.6 C113.9,48.975 114.925,47.95 117.275,47.95 C118.15,47.95 118.875,48.175 119.2,48.375 L119.2,49.825 C118.9,49.65 118.425,49.525 117.9,49.525 C116.625,49.525 116.15,50.025 116.2,51.9 L116.2,52.875 L118.625,52.875 L118.625,54.325 L116.225,54.325 L116.225,62.975 C116.225,63.475 116.35,63.55 116.6,63.55 L118.175,63.55 L118.175,65 L112.225,65 L112.225,63.55 L113.525,63.55 C113.775,63.55 113.9,63.475 113.9,62.975 L113.9,54.325 L112.15,54.325 Z M130.3,65.275 C127.9,65.275 126.925,64.3 126.925,61.825 L126.925,54.325 L125.1,54.325 L125.1,53.025 L126.3,52.95 C126.975,52.85 127.325,52.625 127.4,51.9 L127.625,49.7 L129.3,49.7 L129.3,52.875 L131.975,52.875 L131.975,54.325 L129.225,54.325 L129.225,61.8 C129.225,63.175 129.75,63.7 130.925,63.7 C131.525,63.7 131.875,63.575 132.2,63.475 L132.2,64.975 C131.825,65.1 131.125,65.275 130.3,65.275 Z M136.925,48.175 L136.925,55.375 C137.75,53.525 139.225,52.575 141.175,52.575 C143.725,52.575 145.025,54 145.025,56.85 L145.025,62.975 C145.025,63.475 145.15,63.55 145.4,63.55 L146.8,63.55 L146.8,65 L141,65 L141,63.55 L142.275,63.55 C142.525,63.55 142.65,63.475 142.65,62.975 L142.65,56.95 C142.65,55.1 141.95,54.25 140.3,54.25 C138.25,54.25 136.925,56.025 136.925,59.2 L136.925,62.975 C136.925,63.475 137.05,63.55 137.275,63.55 L138.625,63.55 L138.625,65 L132.775,65 L132.775,63.55 L134.175,63.55 C134.425,63.55 134.55,63.475 134.55,62.975 L134.55,50.525 C134.55,50 134.45,49.85 134.175,49.85 L132.725,49.85 L132.725,48.4 L134.15,48.4 C135.275,48.4 136.4,48.275 136.925,48.175 Z M159.35,59.35 L149.9,59.35 C149.95,61.925 151.35,63.775 153.975,63.775 C156.075,63.775 157.25,62.7 157.8,60.95 L159.25,61.55 C158.65,63.675 156.925,65.3 153.8,65.3 C149.75,65.3 147.475,62.625 147.475,58.925 C147.475,55.2 149.975,52.575 153.625,52.575 C157.225,52.575 159.35,54.95 159.35,58.75 L159.35,59.35 Z M153.625,54.05 C151.4,54.05 150.075,55.475 149.9,58.025 L156.975,58.025 C156.925,55.375 155.775,54.05 153.625,54.05 Z M16.275,94.3 L16.275,92.85 L17.675,92.85 C17.925,92.85 18.05,92.775 18.05,92.275 L18.05,80 C18.05,79.475 17.95,79.325 17.675,79.325 L16.225,79.325 L16.225,77.875 L17.6,77.875 C18.75,77.875 19.875,77.75 20.375,77.65 L20.375,80.55 C21.15,78.7 22.7,77.575 24.9,77.575 C28.25,77.575 30.375,80.075 30.375,83.925 C30.375,87.775 28.175,90.3 24.825,90.3 C22.675,90.3 21.2,89.2 20.425,87.5 L20.425,92.275 C20.425,92.775 20.55,92.85 20.775,92.85 L22.2,92.85 L22.2,94.3 L16.275,94.3 Z M24.15,88.625 C26.425,88.625 27.925,87.05 27.925,84.1 L27.925,83.775 C27.925,80.825 26.425,79.225 24.15,79.225 C21.95,79.225 20.425,80.85 20.425,83.775 L20.425,84.1 C20.425,87 21.975,88.625 24.15,88.625 Z M35.5,77.65 L35.5,80.475 C36.125,78.4 37.425,77.575 38.85,77.575 C40.575,77.575 41.55,78.675 41.55,80.2 C41.55,81.475 40.825,82.3 39.75,82.3 C39.025,82.3 38.425,81.7 38.425,81 C38.425,80.4 38.85,79.85 39.475,79.7 C39.35,79.45 39,79.15 38.375,79.15 C36.475,79.15 35.55,81.05 35.55,83.9 L35.55,87.975 C35.55,88.475 35.675,88.55 35.9,88.55 L37.425,88.55 L37.425,90 L31.4,90 L31.4,88.55 L32.8,88.55 C33.05,88.55 33.175,88.475 33.175,87.975 L33.175,80 C33.175,79.475 33.075,79.325 32.8,79.325 L31.35,79.325 L31.35,77.875 L32.7,77.875 C33.85,77.875 34.975,77.75 35.5,77.65 Z M53.85,84.35 L44.4,84.35 C44.45,86.925 45.85,88.775 48.475,88.775 C50.575,88.775 51.75,87.7 52.3,85.95 L53.75,86.55 C53.15,88.675 51.425,90.3 48.3,90.3 C44.25,90.3 41.975,87.625 41.975,83.925 C41.975,80.2 44.475,77.575 48.125,77.575 C51.725,77.575 53.85,79.95 53.85,83.75 L53.85,84.35 Z M48.125,79.05 C45.9,79.05 44.575,80.475 44.4,83.025 L51.475,83.025 C51.425,80.375 50.275,79.05 48.125,79.05 Z M55.175,89.225 L55.175,86.075 L57.025,86.075 L57.025,88.425 C57.625,88.7 58.575,88.9 59.725,88.9 C61.475,88.9 62.55,88.25 62.55,86.925 C62.55,85.5 61.175,85.15 59.4,84.8 C57.3,84.4 55.175,83.775 55.175,81.3 C55.175,79.075 56.975,77.575 60.075,77.575 C61.775,77.575 63.4,78.075 64.375,78.6 L64.375,81.725 L62.525,81.725 L62.525,79.5 C62.025,79.2 61.125,78.975 60.125,78.975 C58.375,78.975 57.375,79.675 57.375,80.875 C57.375,82.35 58.8,82.55 60.525,82.875 C62.725,83.3 64.75,84 64.75,86.475 C64.75,88.775 62.925,90.3 59.75,90.3 C58,90.3 56.325,89.8 55.175,89.225 Z M77.9,84.35 L68.45,84.35 C68.5,86.925 69.9,88.775 72.525,88.775 C74.625,88.775 75.8,87.7 76.35,85.95 L77.8,86.55 C77.2,88.675 75.475,90.3 72.35,90.3 C68.3,90.3 66.025,87.625 66.025,83.925 C66.025,80.2 68.525,77.575 72.175,77.575 C75.775,77.575 77.9,79.95 77.9,83.75 L77.9,84.35 Z M72.175,79.05 C69.95,79.05 68.625,80.475 68.45,83.025 L75.525,83.025 C75.475,80.375 74.325,79.05 72.175,79.05 Z M83.025,77.65 L83.025,80.475 C83.825,78.575 85.325,77.575 87.3,77.575 C89.85,77.575 91.15,79.025 91.15,81.9 L91.15,87.975 C91.15,88.475 91.275,88.55 91.525,88.55 L92.925,88.55 L92.925,90 L87.125,90 L87.125,88.55 L88.425,88.55 C88.65,88.55 88.775,88.475 88.775,87.975 L88.775,81.975 C88.775,80.1 88.075,79.25 86.425,79.25 C84.375,79.25 83.05,80.975 83.05,84.175 L83.05,87.975 C83.05,88.475 83.175,88.55 83.425,88.55 L84.75,88.55 L84.75,90 L78.9,90 L78.9,88.55 L80.3,88.55 C80.55,88.55 80.675,88.475 80.675,87.975 L80.675,80 C80.675,79.475 80.575,79.325 80.3,79.325 L78.9,79.325 L78.9,77.875 L80.25,77.875 C81.375,77.875 82.5,77.75 83.025,77.65 Z M98,90.275 C95.6,90.275 94.625,89.3 94.625,86.825 L94.625,79.325 L92.8,79.325 L92.8,78.025 L94,77.95 C94.675,77.85 95.025,77.625 95.1,76.9 L95.325,74.7 L97,74.7 L97,77.875 L99.675,77.875 L99.675,79.325 L96.925,79.325 L96.925,86.8 C96.925,88.175 97.45,88.7 98.625,88.7 C99.225,88.7 99.575,88.575 99.9,88.475 L99.9,89.975 C99.525,90.1 98.825,90.275 98,90.275 Z"/>
        <path fill="#807BB6" fill-opacity=".3" d="M51.8690925,160 L0,160 L0,104.933178 C5.62196528,101.790928 12.1018358,100 19,100 C40.5391052,100 58,117.460895 58,139 C58,146.731854 55.7500211,153.938197 51.8690925,160 Z"/>
        <path fill="#938FC2" d="M150.550253,130 L146.050253,125.5 L151,120.550253 L166.949747,136.5 L151,152.449747 L146.050253,147.5 L150.550253,143 L14,143 L14,130 L150.550253,130 Z M157,136.449747 L157,136.550253 L157.050253,136.5 L157,136.449747 Z" transform="rotate(-180 90.475 136.5)"/>
        <path fill="#605AA4" d="M17.275,31.6 L17.275,28.875 L23.95,19.4 L30.35,19.4 L20.325,28.85 L24.925,28.85 L24.925,26.375 C27.55,26.375 29.7,23.6 29.7,23.6 L29.7,28.85 L32.1,28.85 L32.1,31.6 L29.7,31.6 L29.7,32.55 C29.7,33.275 29.825,33.45 30.3,33.45 L31.2,33.45 L31.2,36 L23.4,36 L23.4,33.45 L24.225,33.45 C24.675,33.45 24.825,33.275 24.825,32.55 L24.825,31.6 L17.275,31.6 Z M35.85,36.35 C34.2,36.35 33.125,35.3 33.125,33.725 C33.125,32.175 34.2,31.1 35.85,31.1 C37.475,31.1 38.575,32.175 38.575,33.725 C38.575,35.3 37.475,36.35 35.85,36.35 Z"/>
      </g>
      <g transform="translate(241 176)">
        <rect width="224" height="160" fill="#605AA4" fill-opacity=".2"/>
        <path fill="#807BB6" fill-opacity=".3" d="M224,104.933178 L224,160 L172.130907,160 C168.249979,153.938197 166,146.731854 166,139 C166,117.460895 183.460895,100 205,100 C211.898164,100 218.378035,101.790928 224.000008,104.933182 Z"/>
        <path fill="#938FC2" d="M193.550253,130 L189.050253,125.5 L194,120.550253 L209.949747,136.5 L194,152.449747 L189.050253,147.5 L193.550253,143 L57,143 L57,130 L193.550253,130 Z M200,136.449747 L200,136.550253 L200.050253,136.5 L200,136.449747 Z" transform="rotate(-180 133.475 136.5)"/>
        <path fill="#605AA4" d="M38.225 61.575L37.525 59.7 32.875 59.7 32.225 61.575C32 62.275 32.2 62.45 32.775 62.45L33.45 62.45 33.45 65 27.2 65 27.2 62.45 27.95 62.45C28.525 62.45 28.625 62.275 28.9 61.55L33.875 48.375 38.975 48.375 43.75 61.55C44 62.25 44.25 62.45 44.775 62.45L45.4 62.45 45.4 65 37 65 37 62.45 37.7 62.45C38.25 62.45 38.45 62.25 38.225 61.575zM35.25 52.5L33.575 57.35 36.9 57.35 35.25 52.5zM51.725 52.45L51.725 54.55C52.475 53.1 53.85 52.4 55.75 52.4 58.4 52.4 59.775 53.95 59.775 57.3L59.775 61.675C59.775 62.35 59.95 62.45 60.275 62.45L60.925 62.45 60.925 65 53.875 65 53.875 62.45 54.4 62.45C54.725 62.45 54.9 62.35 54.9 61.675L54.9 57.375C54.9 55.95 54.5 55.425 53.5 55.425 52.375 55.425 51.8 56.2 51.8 58.125L51.8 61.675C51.8 62.35 51.975 62.45 52.3 62.45L52.825 62.45 52.825 65 45.775 65 45.775 62.45 46.425 62.45C46.75 62.45 46.925 62.35 46.925 61.675L46.925 56.2C46.925 55.5 46.8 55.3 46.425 55.3L45.775 55.3 45.775 52.75 48.65 52.75C49.975 52.75 51.1 52.6 51.725 52.45zM60.95 65L60.95 62.45 61.45 62.45C61.9 62.45 62.025 62.25 62.45 61.775L64.95 59 62.325 55.975C61.975 55.575 61.825 55.3 61.45 55.3L61.05 55.3 61.05 52.75 68.675 52.75 68.675 55.3 68.05 55.3C67.875 55.3 67.525 55.5 67.9 55.95L69 57.35 70.2 55.95C70.45 55.65 70.375 55.3 70.025 55.3L69.5 55.3 69.5 52.75 74.95 52.75 74.95 55.3 74.35 55.3C73.8 55.3 73.725 55.5 73.325 55.975L70.975 58.575 73.725 61.7C74.025 62.075 74.2 62.45 74.6 62.45L74.925 62.45 74.925 65 67.275 65 67.275 62.45 67.95 62.45C68.225 62.45 68.525 62.225 68.175 61.8L66.875 60.15 65.55 61.8C65.3 62.125 65.375 62.45 65.725 62.45L66.275 62.45 66.275 65 60.95 65zM79.125 52.025C77.575 52.025 76.55 51.075 76.55 49.725 76.55 48.375 77.575 47.425 79.125 47.425 80.675 47.425 81.7 48.375 81.7 49.725 81.7 51.075 80.675 52.025 79.125 52.025zM75.55 65L75.55 62.45 76.225 62.45C76.575 62.45 76.7 62.275 76.7 61.675L76.7 56.3C76.7 55.55 76.575 55.3 76.15 55.3L75.55 55.3 75.55 52.75 78.475 52.75C79.825 52.75 80.95 52.6 81.6 52.45L81.6 61.675C81.6 62.275 81.725 62.45 82.075 62.45L82.7 62.45 82.7 65 75.55 65zM96.35 59.775L88.375 59.775C88.45 61.6 89.5 62.45 91.2 62.45 92.725 62.45 93.525 61.65 93.975 60.7L96.25 62.325C95.35 64.05 93.575 65.35 90.225 65.35 85.775 65.35 83.375 62.7 83.375 58.85 83.375 54.975 86 52.4 90.1 52.4 94.35 52.4 96.35 54.875 96.35 59.275L96.35 59.775zM90.125 54.925C88.95 54.925 88.4 55.7 88.3 57.675L91.725 57.675C91.675 55.65 91.2 54.925 90.125 54.925zM102.525 65.35C99.3 65.35 98.075 64.125 98.075 60.975L98.075 55.3 96.675 55.3 96.675 53.025 97.25 52.95C98.375 52.7 99.1 52.25 99.325 51.075L99.625 49.125 102.9 49.125 102.9 52.75 104.95 52.75 104.95 55.3 102.825 55.3 102.825 61C102.825 62.175 103.275 62.525 104.15 62.525 104.575 62.525 104.875 62.425 105.125 62.35L105.125 65C104.5 65.175 103.525 65.35 102.525 65.35zM109.5 52.025C107.95 52.025 106.925 51.075 106.925 49.725 106.925 48.375 107.95 47.425 109.5 47.425 111.05 47.425 112.075 48.375 112.075 49.725 112.075 51.075 111.05 52.025 109.5 52.025zM105.925 65L105.925 62.45 106.6 62.45C106.95 62.45 107.075 62.275 107.075 61.675L107.075 56.3C107.075 55.55 106.95 55.3 106.525 55.3L105.925 55.3 105.925 52.75 108.85 52.75C110.2 52.75 111.325 52.6 111.975 52.45L111.975 61.675C111.975 62.275 112.1 62.45 112.45 62.45L113.075 62.45 113.075 65 105.925 65zM126.725 59.775L118.75 59.775C118.825 61.6 119.875 62.45 121.575 62.45 123.1 62.45 123.9 61.65 124.35 60.7L126.625 62.325C125.725 64.05 123.95 65.35 120.6 65.35 116.15 65.35 113.75 62.7 113.75 58.85 113.75 54.975 116.375 52.4 120.475 52.4 124.725 52.4 126.725 54.875 126.725 59.275L126.725 59.775zM120.5 54.925C119.325 54.925 118.775 55.7 118.675 57.675L122.1 57.675C122.05 55.65 121.575 54.925 120.5 54.925zM127.55 64.375L127.55 61.225 130.725 61.225 130.725 62.9C131.2 63.025 131.75 63.075 132.4 63.075 133.4 63.075 134.025 62.725 134.025 61.975 134.025 61.125 133.1 60.925 131.55 60.6 129.625 60.15 127.375 59.425 127.375 56.725 127.375 54.05 129.4 52.4 133.05 52.4 135.15 52.4 136.925 52.925 137.875 53.375L137.875 56.425 134.85 56.425 134.85 54.9C134.5 54.775 133.875 54.675 133.35 54.675 132.375 54.675 131.8 55.075 131.8 55.725 131.8 56.6 132.775 56.7 134.2 57.025 136.1 57.475 138.45 58.2 138.45 60.975 138.45 63.725 136.45 65.35 132.725 65.35 130.475 65.35 128.65 64.775 127.55 64.375zM150.7 54.05C149.525 54.05 148.7 54.275 148.175 54.7 148.575 54.95 148.825 55.4 148.825 55.975 148.825 56.85 148.175 57.425 147.325 57.425 146.35 57.425 145.725 56.8 145.725 55.75 145.725 53.625 148.175 52.575 151.05 52.575 154.525 52.575 156.05 53.8 156.05 56.75L156.05 62.975C156.05 63.375 156.15 63.55 156.4 63.55L157.775 63.55 157.775 65 154.225 65C153.975 64.325 153.85 63.65 153.725 62.625 153.05 64.2 151.225 65.3 149.15 65.3 146.875 65.3 145.425 63.925 145.425 62.1 145.425 59.225 148.25 58.1 153.675 57.45L153.675 56.775C153.675 54.85 152.75 54.05 150.7 54.05zM149.975 63.725C152.2 63.725 153.675 62.075 153.675 59.675L153.675 58.675C149.725 59.125 147.725 59.825 147.725 61.725 147.725 62.925 148.625 63.725 149.975 63.725zM166.7 65.3C164.375 65.3 162.7 64.125 161.9 62.225 161.625 63.35 161.225 64.775 161.2 65L159.775 65C159.875 64.3 159.925 63.1 159.925 60.85L159.925 50.525C159.925 50 159.85 49.85 159.575 49.85L158.125 49.85 158.125 48.4 159.475 48.4C160.6 48.4 161.8 48.275 162.3 48.175L162.3 55.45C163.1 53.65 164.65 52.575 166.8 52.575 170.15 52.575 172.275 55.075 172.275 58.925 172.275 62.775 170.075 65.3 166.7 65.3zM166.05 63.675C168.325 63.675 169.825 62.05 169.825 59.1L169.825 58.775C169.825 55.825 168.325 54.2 166.05 54.2 163.85 54.2 162.3 55.85 162.3 58.775L162.3 59.1C162.3 62 163.875 63.675 166.05 63.675zM179.675 65.3C175.975 65.3 173.475 62.725 173.475 58.925 173.475 55.175 176.025 52.575 179.775 52.575 183.425 52.575 185.925 55.15 185.925 58.925 185.925 62.7 183.4 65.3 179.675 65.3zM179.7 63.775C182.175 63.775 183.55 62.075 183.55 59.05L183.55 58.825C183.55 55.75 182.175 54.1 179.725 54.1 177.25 54.1 175.875 55.775 175.875 58.825L175.875 59.05C175.875 62.1 177.225 63.775 179.7 63.775zM200.575 65L199.175 65C198.05 65 196.925 65.125 196.4 65.225L196.4 62.6C195.6 64.35 194.15 65.3 192.225 65.3 189.775 65.3 188.35 64.05 188.35 61.1L188.35 54.9C188.35 54.4 188.225 54.325 188 54.325L186.575 54.325 186.575 52.875 190.75 52.875 190.75 61.025C190.75 63 191.625 63.65 193.1 63.65 195.15 63.65 196.375 61.9 196.375 59.225L196.375 54.9C196.375 54.4 196.25 54.325 196.025 54.325L194.525 54.325 194.525 52.875 198.75 52.875 198.75 62.875C198.75 63.4 198.85 63.55 199.125 63.55L200.575 63.55 200.575 65zM205.65 65.275C203.25 65.275 202.275 64.3 202.275 61.825L202.275 54.325 200.45 54.325 200.45 53.025 201.65 52.95C202.325 52.85 202.675 52.625 202.75 51.9L202.975 49.7 204.65 49.7 204.65 52.875 207.325 52.875 207.325 54.325 204.575 54.325 204.575 61.8C204.575 63.175 205.1 63.7 206.275 63.7 206.875 63.7 207.225 63.575 207.55 63.475L207.55 64.975C207.175 65.1 206.475 65.275 205.65 65.275zM84.9 90.275C82.5 90.275 81.525 89.3 81.525 86.825L81.525 79.325 79.7 79.325 79.7 78.025 80.9 77.95C81.575 77.85 81.925 77.625 82 76.9L82.225 74.7 83.9 74.7 83.9 77.875 86.575 77.875 86.575 79.325 83.825 79.325 83.825 86.8C83.825 88.175 84.35 88.7 85.525 88.7 86.125 88.7 86.475 88.575 86.8 88.475L86.8 89.975C86.425 90.1 85.725 90.275 84.9 90.275zM91.525 73.175L91.525 80.375C92.35 78.525 93.825 77.575 95.775 77.575 98.325 77.575 99.625 79 99.625 81.85L99.625 87.975C99.625 88.475 99.75 88.55 100 88.55L101.4 88.55 101.4 90 95.6 90 95.6 88.55 96.875 88.55C97.125 88.55 97.25 88.475 97.25 87.975L97.25 81.95C97.25 80.1 96.55 79.25 94.9 79.25 92.85 79.25 91.525 81.025 91.525 84.2L91.525 87.975C91.525 88.475 91.65 88.55 91.875 88.55L93.225 88.55 93.225 90 87.375 90 87.375 88.55 88.775 88.55C89.025 88.55 89.15 88.475 89.15 87.975L89.15 75.525C89.15 75 89.05 74.85 88.775 74.85L87.325 74.85 87.325 73.4 88.75 73.4C89.875 73.4 91 73.275 91.525 73.175zM113.95 84.35L104.5 84.35C104.55 86.925 105.95 88.775 108.575 88.775 110.675 88.775 111.85 87.7 112.4 85.95L113.85 86.55C113.25 88.675 111.525 90.3 108.4 90.3 104.35 90.3 102.075 87.625 102.075 83.925 102.075 80.2 104.575 77.575 108.225 77.575 111.825 77.575 113.95 79.95 113.95 83.75L113.95 84.35zM108.225 79.05C106 79.05 104.675 80.475 104.5 83.025L111.575 83.025C111.525 80.375 110.375 79.05 108.225 79.05zM121.1 89.225L121.1 86.075 122.95 86.075 122.95 88.425C123.55 88.7 124.5 88.9 125.65 88.9 127.4 88.9 128.475 88.25 128.475 86.925 128.475 85.5 127.1 85.15 125.325 84.8 123.225 84.4 121.1 83.775 121.1 81.3 121.1 79.075 122.9 77.575 126 77.575 127.7 77.575 129.325 78.075 130.3 78.6L130.3 81.725 128.45 81.725 128.45 79.5C127.95 79.2 127.05 78.975 126.05 78.975 124.3 78.975 123.3 79.675 123.3 80.875 123.3 82.35 124.725 82.55 126.45 82.875 128.65 83.3 130.675 84 130.675 86.475 130.675 88.775 128.85 90.3 125.675 90.3 123.925 90.3 122.25 89.8 121.1 89.225zM138.15 90.3C134.45 90.3 131.95 87.725 131.95 83.925 131.95 80.175 134.5 77.575 138.25 77.575 141.9 77.575 144.4 80.15 144.4 83.925 144.4 87.7 141.875 90.3 138.15 90.3zM138.175 88.775C140.65 88.775 142.025 87.075 142.025 84.05L142.025 83.825C142.025 80.75 140.65 79.1 138.2 79.1 135.725 79.1 134.35 80.775 134.35 83.825L134.35 84.05C134.35 87.1 135.7 88.775 138.175 88.775zM145.1 90L145.1 88.55 146.525 88.55C146.725 88.55 146.875 88.475 146.875 87.975L146.875 75.525C146.875 75 146.775 74.85 146.525 74.85L145.05 74.85 145.05 73.4 146.45 73.4C147.6 73.4 148.725 73.275 149.25 73.175L149.25 87.975C149.25 88.475 149.375 88.55 149.6 88.55L150.975 88.55 150.975 90 145.1 90zM165.5 90L164.1 90C162.975 90 161.85 90.125 161.325 90.225L161.325 87.6C160.525 89.35 159.075 90.3 157.15 90.3 154.7 90.3 153.275 89.05 153.275 86.1L153.275 79.9C153.275 79.4 153.15 79.325 152.925 79.325L151.5 79.325 151.5 77.875 155.675 77.875 155.675 86.025C155.675 88 156.55 88.65 158.025 88.65 160.075 88.65 161.3 86.9 161.3 84.225L161.3 79.9C161.3 79.4 161.175 79.325 160.95 79.325L159.45 79.325 159.45 77.875 163.675 77.875 163.675 87.875C163.675 88.4 163.775 88.55 164.05 88.55L165.5 88.55 165.5 90zM170.575 90.275C168.175 90.275 167.2 89.3 167.2 86.825L167.2 79.325 165.375 79.325 165.375 78.025 166.575 77.95C167.25 77.85 167.6 77.625 167.675 76.9L167.9 74.7 169.575 74.7 169.575 77.875 172.25 77.875 172.25 79.325 169.5 79.325 169.5 86.8C169.5 88.175 170.025 88.7 171.2 88.7 171.8 88.7 172.15 88.575 172.475 88.475L172.475 89.975C172.1 90.1 171.4 90.275 170.575 90.275zM176.3 76.15C175.35 76.15 174.7 75.425 174.7 74.525 174.7 73.65 175.35 72.925 176.3 72.925 177.225 72.925 177.9 73.65 177.9 74.525 177.9 75.425 177.225 76.15 176.3 76.15zM173.375 90L173.375 88.55 174.8 88.55C175.025 88.55 175.15 88.45 175.15 87.975L175.15 80.325C175.15 79.55 175.025 79.325 174.6 79.325L173.375 79.325 173.375 77.875 174.725 77.875C175.875 77.875 177 77.75 177.525 77.65L177.525 87.975C177.525 88.45 177.65 88.55 177.875 88.55L179.25 88.55 179.25 90 173.375 90zM186.5 90.3C182.8 90.3 180.3 87.725 180.3 83.925 180.3 80.175 182.85 77.575 186.6 77.575 190.25 77.575 192.75 80.15 192.75 83.925 192.75 87.7 190.225 90.3 186.5 90.3zM186.525 88.775C189 88.775 190.375 87.075 190.375 84.05L190.375 83.825C190.375 80.75 189 79.1 186.55 79.1 184.075 79.1 182.7 80.775 182.7 83.825L182.7 84.05C182.7 87.1 184.05 88.775 186.525 88.775zM197.8 77.65L197.8 80.475C198.6 78.575 200.1 77.575 202.075 77.575 204.625 77.575 205.925 79.025 205.925 81.9L205.925 87.975C205.925 88.475 206.05 88.55 206.3 88.55L207.7 88.55 207.7 90 201.9 90 201.9 88.55 203.2 88.55C203.425 88.55 203.55 88.475 203.55 87.975L203.55 81.975C203.55 80.1 202.85 79.25 201.2 79.25 199.15 79.25 197.825 80.975 197.825 84.175L197.825 87.975C197.825 88.475 197.95 88.55 198.2 88.55L199.525 88.55 199.525 90 193.675 90 193.675 88.55 195.075 88.55C195.325 88.55 195.45 88.475 195.45 87.975L195.45 80C195.45 79.475 195.35 79.325 195.075 79.325L193.675 79.325 193.675 77.875 195.025 77.875C196.15 77.875 197.275 77.75 197.8 77.65zM191.275 33.5C191.275 34.225 190.9 34.875 190.375 35.25 190.9 35.5 191.55 35.625 192.3 35.625 193.9 35.625 194.9 34.825 194.9 33.35L194.9 33.15C194.9 31.75 194.075 30.975 192.3 30.975 191.6 30.975 191.2 31.075 190.95 31.1L190.95 27.925C191.45 28.05 191.95 28.1 192.425 28.1 193.85 28.1 194.775 27.275 194.775 26.125L194.775 25.925C194.775 24.5 193.825 23.8 192.35 23.8 191.575 23.8 190.925 23.95 190.4 24.2 190.9 24.575 191.25 25.175 191.25 25.85 191.25 27.025 190.275 27.9 188.975 27.9 187.5 27.9 186.375 27.05 186.375 25.3 186.375 22.575 189.025 21.025 193.075 21.025 197.375 21.025 199.875 22.4 199.875 25.5 199.875 27.175 198.725 28.475 196.55 28.975 199.025 29.6 200.2 31.1 200.2 33.3 200.2 36.575 197.325 38.35 192.725 38.35 188.8 38.35 186.175 37.075 186.175 34.225 186.175 32.425 187.35 31.375 188.925 31.375 190.225 31.375 191.275 32.275 191.275 33.5zM203.775 38.35C202.125 38.35 201.05 37.3 201.05 35.725 201.05 34.175 202.125 33.1 203.775 33.1 205.4 33.1 206.5 34.175 206.5 35.725 206.5 37.3 205.4 38.35 203.775 38.35z"/>
      </g>
      <g transform="translate(284)">
        <polygon fill="#605AA4" fill-opacity=".2" points="0 0 224 0 224 160 0 160"/>
        <path fill="#807BB6" fill-opacity=".3" d="M224,104.933178 L224,160 L172.130907,160 C168.249979,153.938197 166,146.731854 166,139 C166,117.460895 183.460895,100 205,100 C211.898164,100 218.378035,101.790928 224.000008,104.933182 Z"/>
        <path fill="#605AA4" d="M69.125,59.575 L68.425,57.7 L63.775,57.7 L63.125,59.575 C62.9,60.275 63.1,60.45 63.675,60.45 L64.35,60.45 L64.35,63 L58.1,63 L58.1,60.45 L58.85,60.45 C59.425,60.45 59.525,60.275 59.8,59.55 L64.775,46.375 L69.875,46.375 L74.65,59.55 C74.9,60.25 75.15,60.45 75.675,60.45 L76.3,60.45 L76.3,63 L67.9,63 L67.9,60.45 L68.6,60.45 C69.15,60.45 69.35,60.25 69.125,59.575 Z M66.15,50.5 L64.475,55.35 L67.8,55.35 L66.15,50.5 Z M81.575,63.35 C78.35,63.35 77.125,62.125 77.125,58.975 L77.125,53.3 L75.725,53.3 L75.725,51.025 L76.3,50.95 C77.425,50.7 78.15,50.25 78.375,49.075 L78.675,47.125 L81.95,47.125 L81.95,50.75 L84,50.75 L84,53.3 L81.875,53.3 L81.875,59 C81.875,60.175 82.325,60.525 83.2,60.525 C83.625,60.525 83.925,60.425 84.175,60.35 L84.175,63 C83.55,63.175 82.575,63.35 81.575,63.35 Z M90.5,63.35 C87.275,63.35 86.05,62.125 86.05,58.975 L86.05,53.3 L84.65,53.3 L84.65,51.025 L85.225,50.95 C86.35,50.7 87.075,50.25 87.3,49.075 L87.6,47.125 L90.875,47.125 L90.875,50.75 L92.925,50.75 L92.925,53.3 L90.8,53.3 L90.8,59 C90.8,60.175 91.25,60.525 92.125,60.525 C92.55,60.525 92.85,60.425 93.1,60.35 L93.1,63 C92.475,63.175 91.5,63.35 90.5,63.35 Z M99.825,50.45 L99.825,52.95 C100.325,51.175 101.45,50.4 103.025,50.4 C105,50.4 106.2,51.875 106.2,54.15 C106.2,56.125 105.1,57.325 103.425,57.325 C102.275,57.325 101.325,56.525 101.325,55.425 C101.325,54.65 101.675,54.025 102.3,53.6 C102.125,53.5 101.9,53.45 101.675,53.45 C100.4,53.45 99.9,54.575 99.825,56.775 L99.825,59.675 C99.825,60.35 100,60.45 100.325,60.45 L101.075,60.45 L101.075,63 L93.8,63 L93.8,60.45 L94.45,60.45 C94.775,60.45 94.95,60.35 94.95,59.675 L94.95,54.2 C94.95,53.5 94.85,53.3 94.45,53.3 L93.7,53.3 L93.7,50.75 L96.725,50.75 C98.05,50.75 99.175,50.6 99.825,50.45 Z M112.55,52.85 C112.15,52.85 111.825,52.9 111.575,52.95 C111.675,53.25 111.75,53.55 111.75,53.9 C111.75,55.075 110.775,55.95 109.45,55.95 C107.9,55.95 107.025,55.175 107.025,53.75 C107.025,51.525 109.275,50.4 113.3,50.4 C117.7,50.4 119.325,51.55 119.325,54.725 L119.325,59.675 C119.325,60.25 119.45,60.45 119.8,60.45 L120.45,60.45 L120.45,63 L115.6,63 C115.025,62.45 114.775,61.975 114.5,61.125 C113.9,62.4 112.225,63.35 110.425,63.35 C108.05,63.35 106.65,61.95 106.65,60.05 C106.65,56.6 110.9,56.05 114.45,55.425 L114.45,54.75 C114.45,53.45 113.925,52.85 112.55,52.85 Z M112.45,60.6 C113.775,60.6 114.45,59.6 114.45,58.15 L114.45,57.25 C112.725,57.525 111.2,57.925 111.2,59.35 C111.2,60.1 111.725,60.6 112.45,60.6 Z M128.4,55.475 C128.4,54.4 129,53.625 130.1,53.375 C129.725,53.05 129.15,52.9 128.375,52.9 C126.65,52.9 125.675,53.95 125.675,56.4 L125.675,56.975 C125.675,59.35 126.625,60.375 128.275,60.375 C129.6,60.375 130.4,59.725 130.9,58.525 L133.4,59.95 C132.6,61.925 130.95,63.35 127.65,63.35 C123.3,63.35 120.725,60.975 120.725,56.825 C120.725,52.825 123.325,50.4 127.625,50.4 C131.375,50.4 133.425,51.925 133.425,54.625 C133.425,56.35 132.45,57.575 130.775,57.575 C129.275,57.575 128.4,56.625 128.4,55.475 Z M139.475,63.35 C136.25,63.35 135.025,62.125 135.025,58.975 L135.025,53.3 L133.625,53.3 L133.625,51.025 L134.2,50.95 C135.325,50.7 136.05,50.25 136.275,49.075 L136.575,47.125 L139.85,47.125 L139.85,50.75 L141.9,50.75 L141.9,53.3 L139.775,53.3 L139.775,59 C139.775,60.175 140.225,60.525 141.1,60.525 C141.525,60.525 141.825,60.425 142.075,60.35 L142.075,63 C141.45,63.175 140.475,63.35 139.475,63.35 Z M146.45,50.025 C144.9,50.025 143.875,49.075 143.875,47.725 C143.875,46.375 144.9,45.425 146.45,45.425 C148,45.425 149.025,46.375 149.025,47.725 C149.025,49.075 148,50.025 146.45,50.025 Z M142.875,63 L142.875,60.45 L143.55,60.45 C143.9,60.45 144.025,60.275 144.025,59.675 L144.025,54.3 C144.025,53.55 143.9,53.3 143.475,53.3 L142.875,53.3 L142.875,50.75 L145.8,50.75 C147.15,50.75 148.275,50.6 148.925,50.45 L148.925,59.675 C148.925,60.275 149.05,60.45 149.4,60.45 L150.025,60.45 L150.025,63 L142.875,63 Z M157.525,63.35 C153.4,63.35 150.7,60.775 150.7,56.875 C150.7,53 153.475,50.4 157.65,50.4 C161.725,50.4 164.45,52.975 164.45,56.875 C164.45,60.75 161.7,63.35 157.525,63.35 Z M157.575,60.675 C158.975,60.675 159.55,59.8 159.55,57.1 L159.55,56.65 C159.55,53.925 158.975,53.05 157.575,53.05 C156.2,53.05 155.6,53.925 155.6,56.65 L155.6,57.1 C155.6,59.825 156.175,60.675 157.575,60.675 Z M170.925,50.45 L170.925,52.55 C171.675,51.1 173.05,50.4 174.95,50.4 C177.6,50.4 178.975,51.95 178.975,55.3 L178.975,59.675 C178.975,60.35 179.15,60.45 179.475,60.45 L180.125,60.45 L180.125,63 L173.075,63 L173.075,60.45 L173.6,60.45 C173.925,60.45 174.1,60.35 174.1,59.675 L174.1,55.375 C174.1,53.95 173.7,53.425 172.7,53.425 C171.575,53.425 171,54.2 171,56.125 L171,59.675 C171,60.35 171.175,60.45 171.5,60.45 L172.025,60.45 L172.025,63 L164.975,63 L164.975,60.45 L165.625,60.45 C165.95,60.45 166.125,60.35 166.125,59.675 L166.125,54.2 C166.125,53.5 166,53.3 165.625,53.3 L164.975,53.3 L164.975,50.75 L167.85,50.75 C169.175,50.75 170.3,50.6 170.925,50.45 Z M191.45,63.275 C189.05,63.275 188.075,62.3 188.075,59.825 L188.075,52.325 L186.25,52.325 L186.25,51.025 L187.45,50.95 C188.125,50.85 188.475,50.625 188.55,49.9 L188.775,47.7 L190.45,47.7 L190.45,50.875 L193.125,50.875 L193.125,52.325 L190.375,52.325 L190.375,59.8 C190.375,61.175 190.9,61.7 192.075,61.7 C192.675,61.7 193.025,61.575 193.35,61.475 L193.35,62.975 C192.975,63.1 192.275,63.275 191.45,63.275 Z M200.15,63.3 C196.45,63.3 193.95,60.725 193.95,56.925 C193.95,53.175 196.5,50.575 200.25,50.575 C203.9,50.575 206.4,53.15 206.4,56.925 C206.4,60.7 203.875,63.3 200.15,63.3 Z M200.175,61.775 C202.65,61.775 204.025,60.075 204.025,57.05 L204.025,56.825 C204.025,53.75 202.65,52.1 200.2,52.1 C197.725,52.1 196.35,53.775 196.35,56.825 L196.35,57.05 C196.35,60.1 197.7,61.775 200.175,61.775 Z M83.9,88.275 C81.5,88.275 80.525,87.3 80.525,84.825 L80.525,77.325 L78.7,77.325 L78.7,76.025 L79.9,75.95 C80.575,75.85 80.925,75.625 81,74.9 L81.225,72.7 L82.9,72.7 L82.9,75.875 L85.575,75.875 L85.575,77.325 L82.825,77.325 L82.825,84.8 C82.825,86.175 83.35,86.7 84.525,86.7 C85.125,86.7 85.475,86.575 85.8,86.475 L85.8,87.975 C85.425,88.1 84.725,88.275 83.9,88.275 Z M90.525,71.175 L90.525,78.375 C91.35,76.525 92.825,75.575 94.775,75.575 C97.325,75.575 98.625,77 98.625,79.85 L98.625,85.975 C98.625,86.475 98.75,86.55 99,86.55 L100.4,86.55 L100.4,88 L94.6,88 L94.6,86.55 L95.875,86.55 C96.125,86.55 96.25,86.475 96.25,85.975 L96.25,79.95 C96.25,78.1 95.55,77.25 93.9,77.25 C91.85,77.25 90.525,79.025 90.525,82.2 L90.525,85.975 C90.525,86.475 90.65,86.55 90.875,86.55 L92.225,86.55 L92.225,88 L86.375,88 L86.375,86.55 L87.775,86.55 C88.025,86.55 88.15,86.475 88.15,85.975 L88.15,73.525 C88.15,73 88.05,72.85 87.775,72.85 L86.325,72.85 L86.325,71.4 L87.75,71.4 C88.875,71.4 90,71.275 90.525,71.175 Z M112.95,82.35 L103.5,82.35 C103.55,84.925 104.95,86.775 107.575,86.775 C109.675,86.775 110.85,85.7 111.4,83.95 L112.85,84.55 C112.25,86.675 110.525,88.3 107.4,88.3 C103.35,88.3 101.075,85.625 101.075,81.925 C101.075,78.2 103.575,75.575 107.225,75.575 C110.825,75.575 112.95,77.95 112.95,81.75 L112.95,82.35 Z M107.225,77.05 C105,77.05 103.675,78.475 103.5,81.025 L110.575,81.025 C110.525,78.375 109.375,77.05 107.225,77.05 Z M120.1,87.225 L120.1,84.075 L121.95,84.075 L121.95,86.425 C122.55,86.7 123.5,86.9 124.65,86.9 C126.4,86.9 127.475,86.25 127.475,84.925 C127.475,83.5 126.1,83.15 124.325,82.8 C122.225,82.4 120.1,81.775 120.1,79.3 C120.1,77.075 121.9,75.575 125,75.575 C126.7,75.575 128.325,76.075 129.3,76.6 L129.3,79.725 L127.45,79.725 L127.45,77.5 C126.95,77.2 126.05,76.975 125.05,76.975 C123.3,76.975 122.3,77.675 122.3,78.875 C122.3,80.35 123.725,80.55 125.45,80.875 C127.65,81.3 129.675,82 129.675,84.475 C129.675,86.775 127.85,88.3 124.675,88.3 C122.925,88.3 121.25,87.8 120.1,87.225 Z M137.15,88.3 C133.45,88.3 130.95,85.725 130.95,81.925 C130.95,78.175 133.5,75.575 137.25,75.575 C140.9,75.575 143.4,78.15 143.4,81.925 C143.4,85.7 140.875,88.3 137.15,88.3 Z M137.175,86.775 C139.65,86.775 141.025,85.075 141.025,82.05 L141.025,81.825 C141.025,78.75 139.65,77.1 137.2,77.1 C134.725,77.1 133.35,78.775 133.35,81.825 L133.35,82.05 C133.35,85.1 134.7,86.775 137.175,86.775 Z M144.1,88 L144.1,86.55 L145.525,86.55 C145.725,86.55 145.875,86.475 145.875,85.975 L145.875,73.525 C145.875,73 145.775,72.85 145.525,72.85 L144.05,72.85 L144.05,71.4 L145.45,71.4 C146.6,71.4 147.725,71.275 148.25,71.175 L148.25,85.975 C148.25,86.475 148.375,86.55 148.6,86.55 L149.975,86.55 L149.975,88 L144.1,88 Z M164.5,88 L163.1,88 C161.975,88 160.85,88.125 160.325,88.225 L160.325,85.6 C159.525,87.35 158.075,88.3 156.15,88.3 C153.7,88.3 152.275,87.05 152.275,84.1 L152.275,77.9 C152.275,77.4 152.15,77.325 151.925,77.325 L150.5,77.325 L150.5,75.875 L154.675,75.875 L154.675,84.025 C154.675,86 155.55,86.65 157.025,86.65 C159.075,86.65 160.3,84.9 160.3,82.225 L160.3,77.9 C160.3,77.4 160.175,77.325 159.95,77.325 L158.45,77.325 L158.45,75.875 L162.675,75.875 L162.675,85.875 C162.675,86.4 162.775,86.55 163.05,86.55 L164.5,86.55 L164.5,88 Z M169.575,88.275 C167.175,88.275 166.2,87.3 166.2,84.825 L166.2,77.325 L164.375,77.325 L164.375,76.025 L165.575,75.95 C166.25,75.85 166.6,75.625 166.675,74.9 L166.9,72.7 L168.575,72.7 L168.575,75.875 L171.25,75.875 L171.25,77.325 L168.5,77.325 L168.5,84.8 C168.5,86.175 169.025,86.7 170.2,86.7 C170.8,86.7 171.15,86.575 171.475,86.475 L171.475,87.975 C171.1,88.1 170.4,88.275 169.575,88.275 Z M175.3,74.15 C174.35,74.15 173.7,73.425 173.7,72.525 C173.7,71.65 174.35,70.925 175.3,70.925 C176.225,70.925 176.9,71.65 176.9,72.525 C176.9,73.425 176.225,74.15 175.3,74.15 Z M172.375,88 L172.375,86.55 L173.8,86.55 C174.025,86.55 174.15,86.45 174.15,85.975 L174.15,78.325 C174.15,77.55 174.025,77.325 173.6,77.325 L172.375,77.325 L172.375,75.875 L173.725,75.875 C174.875,75.875 176,75.75 176.525,75.65 L176.525,85.975 C176.525,86.45 176.65,86.55 176.875,86.55 L178.25,86.55 L178.25,88 L172.375,88 Z M185.5,88.3 C181.8,88.3 179.3,85.725 179.3,81.925 C179.3,78.175 181.85,75.575 185.6,75.575 C189.25,75.575 191.75,78.15 191.75,81.925 C191.75,85.7 189.225,88.3 185.5,88.3 Z M185.525,86.775 C188,86.775 189.375,85.075 189.375,82.05 L189.375,81.825 C189.375,78.75 188,77.1 185.55,77.1 C183.075,77.1 181.7,78.775 181.7,81.825 L181.7,82.05 C181.7,85.1 183.05,86.775 185.525,86.775 Z M196.8,75.65 L196.8,78.475 C197.6,76.575 199.1,75.575 201.075,75.575 C203.625,75.575 204.925,77.025 204.925,79.9 L204.925,85.975 C204.925,86.475 205.05,86.55 205.3,86.55 L206.7,86.55 L206.7,88 L200.9,88 L200.9,86.55 L202.2,86.55 C202.425,86.55 202.55,86.475 202.55,85.975 L202.55,79.975 C202.55,78.1 201.85,77.25 200.2,77.25 C198.15,77.25 196.825,78.975 196.825,82.175 L196.825,85.975 C196.825,86.475 196.95,86.55 197.2,86.55 L198.525,86.55 L198.525,88 L192.675,88 L192.675,86.55 L194.075,86.55 C194.325,86.55 194.45,86.475 194.45,85.975 L194.45,78 C194.45,77.475 194.35,77.325 194.075,77.325 L192.675,77.325 L192.675,75.875 L194.025,75.875 C195.15,75.875 196.275,75.75 196.8,75.65 Z"/>
        <path fill="#938FC2" d="M193.550253,130 L189.050253,125.5 L194,120.550253 L209.949747,136.5 L194,152.449747 L189.050253,147.5 L193.550253,143 L57,143 L57,130 L193.550253,130 Z M200,136.449747 L200,136.550253 L200.050253,136.5 L200,136.449747 Z"/>
        <path fill="#605AA4" d="M192.275,23.9 C191.4,23.9 190.8,24.15 190.35,24.5 C191.175,24.85 191.675,25.625 191.675,26.575 C191.675,27.9 190.65,28.975 189.125,28.975 C187.425,28.975 186.2,27.85 186.2,25.95 C186.2,23.025 188.675,21.05 193.2,21.05 C197.7,21.05 200.125,23.025 200.125,26.55 C200.125,32.45 192.225,31.35 190.05,34.45 L195.475,34.45 C196.475,34.45 196.75,34.275 196.8,33.425 L196.925,32.3 L199.725,32.3 L199.725,38 L186.075,38 L186.15,36.4 C186.6,29.775 194.875,30.05 194.875,26.5 C194.875,24.825 193.975,23.9 192.275,23.9 Z M203.775,38.35 C202.125,38.35 201.05,37.3 201.05,35.725 C201.05,34.175 202.125,33.1 203.775,33.1 C205.4,33.1 206.5,34.175 206.5,35.725 C206.5,37.3 205.4,38.35 203.775,38.35 Z"/>
      </g>
      <g transform="translate(43)">
        <polygon fill="#605AA4" fill-opacity=".2" points="0 0 224 0 224 160 0 160"/>
        <path fill="#807BB6" fill-opacity=".3" d="M51.8690925,160 L0,160 L0,104.933178 C5.62196528,101.790928 12.1018358,100 19,100 C40.5391052,100 58,117.460895 58,139 C58,146.731854 55.7500211,153.938197 51.8690925,160 Z"/>
        <path fill="#938FC2" d="M150.550253,130 L146.050253,125.5 L151,120.550253 L166.949747,136.5 L151,152.449747 L146.050253,147.5 L150.550253,143 L14,143 L14,130 L150.550253,130 Z M157,136.449747 L157,136.550253 L157.050253,136.5 L157,136.449747 Z"/>
        <path fill="#605AA4" d="M23.175 65.35C20.375 65.35 18.275 64.75 16.8 64.1L16.8 59.925 20.7 59.925 20.7 62.225C21.3 62.45 22.2 62.6 23.1 62.6 24.45 62.6 25.35 62 25.35 60.975 25.35 59.55 24.2 59.375 21.725 58.775 18.775 58.025 16.675 56.825 16.675 53.675 16.675 50.225 19.2 48.05 23.825 48.05 26.4 48.05 28.325 48.575 29.775 49.2L29.775 53.225 25.9 53.225 25.9 51.2C25.4 51.025 24.65 50.9 23.875 50.9 22.4 50.9 21.575 51.475 21.575 52.5 21.575 53.75 22.7 53.925 25.05 54.525 27.825 55.225 30.35 56.3 30.35 59.675 30.35 63.125 28.175 65.35 23.175 65.35zM36.65 65.35C33.425 65.35 32.2 64.125 32.2 60.975L32.2 55.3 30.8 55.3 30.8 53.025 31.375 52.95C32.5 52.7 33.225 52.25 33.45 51.075L33.75 49.125 37.025 49.125 37.025 52.75 39.075 52.75 39.075 55.3 36.95 55.3 36.95 61C36.95 62.175 37.4 62.525 38.275 62.525 38.7 62.525 39 62.425 39.25 62.35L39.25 65C38.625 65.175 37.65 65.35 36.65 65.35zM45.975 52.45L45.975 54.95C46.475 53.175 47.6 52.4 49.175 52.4 51.15 52.4 52.35 53.875 52.35 56.15 52.35 58.125 51.25 59.325 49.575 59.325 48.425 59.325 47.475 58.525 47.475 57.425 47.475 56.65 47.825 56.025 48.45 55.6 48.275 55.5 48.05 55.45 47.825 55.45 46.55 55.45 46.05 56.575 45.975 58.775L45.975 61.675C45.975 62.35 46.15 62.45 46.475 62.45L47.225 62.45 47.225 65 39.95 65 39.95 62.45 40.6 62.45C40.925 62.45 41.1 62.35 41.1 61.675L41.1 56.2C41.1 55.5 41 55.3 40.6 55.3L39.85 55.3 39.85 52.75 42.875 52.75C44.2 52.75 45.325 52.6 45.975 52.45zM67.925 65L64.9 65C63.575 65 62.45 65.15 61.8 65.3L61.8 63.35C61 64.7 59.675 65.35 57.875 65.35 55.175 65.35 53.85 63.85 53.85 60.5L53.85 56.075C53.85 55.4 53.675 55.3 53.35 55.3L52.7 55.3 52.7 52.75 58.725 52.75 58.725 60.425C58.725 61.875 59.175 62.325 60.15 62.325 61.275 62.325 61.8 61.55 61.8 59.775L61.8 56.075C61.8 55.4 61.625 55.3 61.3 55.3L60.375 55.3 60.375 52.75 66.675 52.75 66.675 61.55C66.675 62.25 66.8 62.45 67.175 62.45L67.925 62.45 67.925 65zM74.975 69.975C69.525 69.975 67.9 69.2 67.9 67.675 67.9 66.625 68.85 65.825 70.8 65.35 69.225 64.9 68.425 63.95 68.425 62.6 68.425 61.35 69.225 60.4 70.675 59.875 69.55 59.175 68.975 58.125 68.975 56.7 68.975 54.125 71.525 52.4 75.225 52.4 76.6 52.4 77.825 52.65 78.8 53.1 79.2 51.75 80.075 51 81.3 51 82.475 51 83.3 51.725 83.3 52.775 83.3 53.9 82.725 54.525 81.7 54.525 81.1 54.525 80.6 54.275 80.325 53.8L80.1 53.95C80.825 54.65 81.25 55.575 81.25 56.675 81.25 59.375 78.875 60.85 75 60.85 73.95 60.85 73 60.75 72.225 60.55 71.775 60.625 71.6 60.775 71.6 61.075 71.6 61.55 71.925 61.725 72.95 61.725 74.775 61.725 76.9 61.65 78.5 61.65 81.375 61.65 82.675 63.2 82.675 65.375 82.675 68.375 80.375 69.975 74.975 69.975zM75.05 58.75C76.075 58.75 76.55 58.2 76.55 56.925L76.55 56.4C76.55 55.125 76.075 54.55 75.1 54.55 74.075 54.55 73.6 55.175 73.6 56.425L73.6 56.975C73.6 58.175 74.075 58.75 75.05 58.75zM77.375 65.9L72.85 65.9C71.975 66.15 71.5 66.6 71.5 67.15 71.5 67.925 72.45 68.125 75.175 68.125 78.1 68.125 79.225 67.7 79.225 66.825 79.225 66.125 78.925 65.9 77.375 65.9zM89.65 69.975C84.2 69.975 82.575 69.2 82.575 67.675 82.575 66.625 83.525 65.825 85.475 65.35 83.9 64.9 83.1 63.95 83.1 62.6 83.1 61.35 83.9 60.4 85.35 59.875 84.225 59.175 83.65 58.125 83.65 56.7 83.65 54.125 86.2 52.4 89.9 52.4 91.275 52.4 92.5 52.65 93.475 53.1 93.875 51.75 94.75 51 95.975 51 97.15 51 97.975 51.725 97.975 52.775 97.975 53.9 97.4 54.525 96.375 54.525 95.775 54.525 95.275 54.275 95 53.8L94.775 53.95C95.5 54.65 95.925 55.575 95.925 56.675 95.925 59.375 93.55 60.85 89.675 60.85 88.625 60.85 87.675 60.75 86.9 60.55 86.45 60.625 86.275 60.775 86.275 61.075 86.275 61.55 86.6 61.725 87.625 61.725 89.45 61.725 91.575 61.65 93.175 61.65 96.05 61.65 97.35 63.2 97.35 65.375 97.35 68.375 95.05 69.975 89.65 69.975zM89.725 58.75C90.75 58.75 91.225 58.2 91.225 56.925L91.225 56.4C91.225 55.125 90.75 54.55 89.775 54.55 88.75 54.55 88.275 55.175 88.275 56.425L88.275 56.975C88.275 58.175 88.75 58.75 89.725 58.75zM92.05 65.9L87.525 65.9C86.65 66.15 86.175 66.6 86.175 67.15 86.175 67.925 87.125 68.125 89.85 68.125 92.775 68.125 93.9 67.7 93.9 66.825 93.9 66.125 93.6 65.9 92.05 65.9zM97.95 65L97.95 62.45 98.625 62.45C98.925 62.45 99.1 62.35 99.1 61.675L99.1 51.85C99.1 51.15 99 50.95 98.625 50.95L97.85 50.95 97.85 48.4 100.875 48.4C102.225 48.4 103.35 48.25 104 48.1L104 61.675C104 62.35 104.175 62.45 104.475 62.45L105.025 62.45 105.025 65 97.95 65zM118.45 59.775L110.475 59.775C110.55 61.6 111.6 62.45 113.3 62.45 114.825 62.45 115.625 61.65 116.075 60.7L118.35 62.325C117.45 64.05 115.675 65.35 112.325 65.35 107.875 65.35 105.475 62.7 105.475 58.85 105.475 54.975 108.1 52.4 112.2 52.4 116.45 52.4 118.45 54.875 118.45 59.275L118.45 59.775zM112.225 54.925C111.05 54.925 110.5 55.7 110.4 57.675L113.825 57.675C113.775 55.65 113.3 54.925 112.225 54.925zM131.35 65.3C127.65 65.3 125.15 62.725 125.15 58.925 125.15 55.175 127.7 52.575 131.45 52.575 135.1 52.575 137.6 55.15 137.6 58.925 137.6 62.7 135.075 65.3 131.35 65.3zM131.375 63.775C133.85 63.775 135.225 62.075 135.225 59.05L135.225 58.825C135.225 55.75 133.85 54.1 131.4 54.1 128.925 54.1 127.55 55.775 127.55 58.825L127.55 59.05C127.55 62.1 128.9 63.775 131.375 63.775zM138.075 54.325L138.075 52.875 139.825 52.875 139.825 51.6C139.825 48.975 140.85 47.95 143.2 47.95 144.075 47.95 144.8 48.175 145.125 48.375L145.125 49.825C144.825 49.65 144.35 49.525 143.825 49.525 142.55 49.525 142.075 50.025 142.125 51.9L142.125 52.875 144.55 52.875 144.55 54.325 142.15 54.325 142.15 62.975C142.15 63.475 142.275 63.55 142.525 63.55L144.1 63.55 144.1 65 138.15 65 138.15 63.55 139.45 63.55C139.7 63.55 139.825 63.475 139.825 62.975L139.825 54.325 138.075 54.325zM21.375 90.275C18.975 90.275 18 89.3 18 86.825L18 79.325 16.175 79.325 16.175 78.025 17.375 77.95C18.05 77.85 18.4 77.625 18.475 76.9L18.7 74.7 20.375 74.7 20.375 77.875 23.05 77.875 23.05 79.325 20.3 79.325 20.3 86.8C20.3 88.175 20.825 88.7 22 88.7 22.6 88.7 22.95 88.575 23.275 88.475L23.275 89.975C22.9 90.1 22.2 90.275 21.375 90.275zM28 73.175L28 80.375C28.825 78.525 30.3 77.575 32.25 77.575 34.8 77.575 36.1 79 36.1 81.85L36.1 87.975C36.1 88.475 36.225 88.55 36.475 88.55L37.875 88.55 37.875 90 32.075 90 32.075 88.55 33.35 88.55C33.6 88.55 33.725 88.475 33.725 87.975L33.725 81.95C33.725 80.1 33.025 79.25 31.375 79.25 29.325 79.25 28 81.025 28 84.2L28 87.975C28 88.475 28.125 88.55 28.35 88.55L29.7 88.55 29.7 90 23.85 90 23.85 88.55 25.25 88.55C25.5 88.55 25.625 88.475 25.625 87.975L25.625 75.525C25.625 75 25.525 74.85 25.25 74.85L23.8 74.85 23.8 73.4 25.225 73.4C26.35 73.4 27.475 73.275 28 73.175zM50.425 84.35L40.975 84.35C41.025 86.925 42.425 88.775 45.05 88.775 47.15 88.775 48.325 87.7 48.875 85.95L50.325 86.55C49.725 88.675 48 90.3 44.875 90.3 40.825 90.3 38.55 87.625 38.55 83.925 38.55 80.2 41.05 77.575 44.7 77.575 48.3 77.575 50.425 79.95 50.425 83.75L50.425 84.35zM44.7 79.05C42.475 79.05 41.15 80.475 40.975 83.025L48.05 83.025C48 80.375 46.85 79.05 44.7 79.05zM57.25 90L57.25 88.55 58.65 88.55C58.9 88.55 59.025 88.475 59.025 87.975L59.025 80C59.025 79.475 58.925 79.325 58.65 79.325L57.25 79.325 57.25 77.875 58.575 77.875C59.725 77.875 60.85 77.75 61.35 77.65L61.35 80.075C62.1 78.45 63.275 77.575 65.075 77.575 67.025 77.575 68.25 78.5 68.65 80.45 69.325 78.575 70.575 77.575 72.55 77.575 75.2 77.575 76.475 79.05 76.475 82.225L76.475 87.975C76.475 88.475 76.6 88.55 76.85 88.55L78.25 88.55 78.25 90 72.475 90 72.475 88.55 73.75 88.55C73.975 88.55 74.1 88.475 74.1 87.975L74.1 82.375C74.1 80.225 73.4 79.275 71.725 79.275 69.9 79.275 68.95 80.775 68.95 83.45L68.95 87.975C68.95 88.475 69.075 88.55 69.3 88.55L70.725 88.55 70.725 90 64.95 90 64.95 88.55 66.2 88.55C66.425 88.55 66.575 88.475 66.575 87.975L66.575 82.075C66.575 80.225 65.75 79.275 64.2 79.275 62.375 79.275 61.4 80.775 61.4 83.45L61.4 87.975C61.4 88.475 61.525 88.55 61.775 88.55L63.1 88.55 63.1 90 57.25 90zM85.175 90.3C81.475 90.3 78.975 87.725 78.975 83.925 78.975 80.175 81.525 77.575 85.275 77.575 88.925 77.575 91.425 80.15 91.425 83.925 91.425 87.7 88.9 90.3 85.175 90.3zM85.2 88.775C87.675 88.775 89.05 87.075 89.05 84.05L89.05 83.825C89.05 80.75 87.675 79.1 85.225 79.1 82.75 79.1 81.375 80.775 81.375 83.825L81.375 84.05C81.375 87.1 82.725 88.775 85.2 88.775zM92.35 90L92.35 88.55 93.75 88.55C94 88.55 94.125 88.475 94.125 87.975L94.125 80C94.125 79.475 94.025 79.325 93.75 79.325L92.35 79.325 92.35 77.875 93.675 77.875C94.825 77.875 95.95 77.75 96.45 77.65L96.45 80.075C97.2 78.45 98.375 77.575 100.175 77.575 102.125 77.575 103.35 78.5 103.75 80.45 104.425 78.575 105.675 77.575 107.65 77.575 110.3 77.575 111.575 79.05 111.575 82.225L111.575 87.975C111.575 88.475 111.7 88.55 111.95 88.55L113.35 88.55 113.35 90 107.575 90 107.575 88.55 108.85 88.55C109.075 88.55 109.2 88.475 109.2 87.975L109.2 82.375C109.2 80.225 108.5 79.275 106.825 79.275 105 79.275 104.05 80.775 104.05 83.45L104.05 87.975C104.05 88.475 104.175 88.55 104.4 88.55L105.825 88.55 105.825 90 100.05 90 100.05 88.55 101.3 88.55C101.525 88.55 101.675 88.475 101.675 87.975L101.675 82.075C101.675 80.225 100.85 79.275 99.3 79.275 97.475 79.275 96.5 80.775 96.5 83.45L96.5 87.975C96.5 88.475 96.625 88.55 96.875 88.55L98.2 88.55 98.2 90 92.35 90zM125.95 84.35L116.5 84.35C116.55 86.925 117.95 88.775 120.575 88.775 122.675 88.775 123.85 87.7 124.4 85.95L125.85 86.55C125.25 88.675 123.525 90.3 120.4 90.3 116.35 90.3 114.075 87.625 114.075 83.925 114.075 80.2 116.575 77.575 120.225 77.575 123.825 77.575 125.95 79.95 125.95 83.75L125.95 84.35zM120.225 79.05C118 79.05 116.675 80.475 116.5 83.025L123.575 83.025C123.525 80.375 122.375 79.05 120.225 79.05zM131.075 77.65L131.075 80.475C131.875 78.575 133.375 77.575 135.35 77.575 137.9 77.575 139.2 79.025 139.2 81.9L139.2 87.975C139.2 88.475 139.325 88.55 139.575 88.55L140.975 88.55 140.975 90 135.175 90 135.175 88.55 136.475 88.55C136.7 88.55 136.825 88.475 136.825 87.975L136.825 81.975C136.825 80.1 136.125 79.25 134.475 79.25 132.425 79.25 131.1 80.975 131.1 84.175L131.1 87.975C131.1 88.475 131.225 88.55 131.475 88.55L132.8 88.55 132.8 90 126.95 90 126.95 88.55 128.35 88.55C128.6 88.55 128.725 88.475 128.725 87.975L128.725 80C128.725 79.475 128.625 79.325 128.35 79.325L126.95 79.325 126.95 77.875 128.3 77.875C129.425 77.875 130.55 77.75 131.075 77.65zM146.05 90.275C143.65 90.275 142.675 89.3 142.675 86.825L142.675 79.325 140.85 79.325 140.85 78.025 142.05 77.95C142.725 77.85 143.075 77.625 143.15 76.9L143.375 74.7 145.05 74.7 145.05 77.875 147.725 77.875 147.725 79.325 144.975 79.325 144.975 86.8C144.975 88.175 145.5 88.7 146.675 88.7 147.275 88.7 147.625 88.575 147.95 88.475L147.95 89.975C147.575 90.1 146.875 90.275 146.05 90.275zM17.675 27.225L16.75 27.225 16.75 24.275 17.5 24.275C19.525 24.275 20.05 23.45 20.65 21.375L24.4 21.375 24.4 34.675C24.4 35.325 24.6 35.45 24.9 35.45L26.7 35.45 26.7 38 17 38 17 35.45 19.025 35.45C19.35 35.45 19.525 35.325 19.525 34.675L19.525 26.975C18.975 27.15 18.375 27.225 17.675 27.225zM30.525 38.35C28.875 38.35 27.8 37.3 27.8 35.725 27.8 34.175 28.875 33.1 30.525 33.1 32.15 33.1 33.25 34.175 33.25 35.725 33.25 37.3 32.15 38.35 30.525 38.35z"/>
      </g>
    </g>
  </g>
</svg>
