<svg xmlns="http://www.w3.org/2000/svg" width="674" height="474" viewBox="0 0 674 474">
  <g fill="none" fill-rule="evenodd">
    <rect width="674" height="474" fill="#FFF"/>
    <g transform="translate(32 18)">
      <g transform="translate(0 176)">
        <rect width="224" height="160" fill="#605AA4" fill-opacity=".2"/>
        <path fill="#605AA4" d="M16.3,65 L16.3,62.45 L17.175,62.45 C17.65,62.45 17.775,62.275 17.775,61.55 L17.775,51.825 C17.775,51.125 17.65,50.95 17.175,50.95 L16.3,50.95 L16.3,48.4 L24.425,48.4 L24.425,50.95 L23.65,50.95 C23.2,50.95 23.05,51.125 23.05,51.825 L23.05,55.375 L27.95,55.375 L27.95,51.825 C27.95,51.125 27.825,50.95 27.375,50.95 L26.575,50.95 L26.575,48.4 L34.7,48.4 L34.7,50.95 L33.825,50.95 C33.375,50.95 33.225,51.125 33.225,51.825 L33.225,61.55 C33.225,62.275 33.375,62.45 33.825,62.45 L34.7,62.45 L34.7,65 L26.575,65 L26.575,62.45 L27.375,62.45 C27.825,62.45 27.95,62.275 27.95,61.55 L27.95,57.775 L23.05,57.775 L23.05,61.55 C23.05,62.275 23.2,62.45 23.65,62.45 L24.425,62.45 L24.425,65 L16.3,65 Z M41.25,54.85 C40.85,54.85 40.525,54.9 40.275,54.95 C40.375,55.25 40.45,55.55 40.45,55.9 C40.45,57.075 39.475,57.95 38.15,57.95 C36.6,57.95 35.725,57.175 35.725,55.75 C35.725,53.525 37.975,52.4 42,52.4 C46.4,52.4 48.025,53.55 48.025,56.725 L48.025,61.675 C48.025,62.25 48.15,62.45 48.5,62.45 L49.15,62.45 L49.15,65 L44.3,65 C43.725,64.45 43.475,63.975 43.2,63.125 C42.6,64.4 40.925,65.35 39.125,65.35 C36.75,65.35 35.35,63.95 35.35,62.05 C35.35,58.6 39.6,58.05 43.15,57.425 L43.15,56.75 C43.15,55.45 42.625,54.85 41.25,54.85 Z M41.15,62.6 C42.475,62.6 43.15,61.6 43.15,60.15 L43.15,59.25 C41.425,59.525 39.9,59.925 39.9,61.35 C39.9,62.1 40.425,62.6 41.15,62.6 Z M59.125,65.35 C56.775,65.35 55.425,64.2 54.825,62.45 L54.475,65 L50.575,65 C50.6,64.8 50.625,63.925 50.625,60.85 L50.625,51.85 C50.625,51.15 50.5,50.95 50.125,50.95 L49.375,50.95 L49.375,48.4 L52.375,48.4 C53.725,48.4 54.875,48.25 55.5,48.1 L55.5,54.65 C56.175,53.225 57.4,52.4 59.35,52.4 C62.525,52.4 64.475,54.975 64.475,58.875 C64.475,62.775 62.375,65.35 59.125,65.35 Z M57.45,62.425 C58.65,62.425 59.4,61.475 59.4,59.1 L59.4,58.65 C59.4,56.275 58.65,55.325 57.45,55.325 C56.25,55.325 55.5,56.25 55.5,58.65 L55.5,59.1 C55.5,61.475 56.25,62.425 57.45,62.425 Z M68.55,52.025 C67,52.025 65.975,51.075 65.975,49.725 C65.975,48.375 67,47.425 68.55,47.425 C70.1,47.425 71.125,48.375 71.125,49.725 C71.125,51.075 70.1,52.025 68.55,52.025 Z M64.975,65 L64.975,62.45 L65.65,62.45 C66,62.45 66.125,62.275 66.125,61.675 L66.125,56.3 C66.125,55.55 66,55.3 65.575,55.3 L64.975,55.3 L64.975,52.75 L67.9,52.75 C69.25,52.75 70.375,52.6 71.025,52.45 L71.025,61.675 C71.025,62.275 71.15,62.45 71.5,62.45 L72.125,62.45 L72.125,65 L64.975,65 Z M78,65.35 C74.775,65.35 73.55,64.125 73.55,60.975 L73.55,55.3 L72.15,55.3 L72.15,53.025 L72.725,52.95 C73.85,52.7 74.575,52.25 74.8,51.075 L75.1,49.125 L78.375,49.125 L78.375,52.75 L80.425,52.75 L80.425,55.3 L78.3,55.3 L78.3,61 C78.3,62.175 78.75,62.525 79.625,62.525 C80.05,62.525 80.35,62.425 80.6,62.35 L80.6,65 C79.975,65.175 79,65.35 78,65.35 Z M81.575,64.375 L81.575,61.225 L84.75,61.225 L84.75,62.9 C85.225,63.025 85.775,63.075 86.425,63.075 C87.425,63.075 88.05,62.725 88.05,61.975 C88.05,61.125 87.125,60.925 85.575,60.6 C83.65,60.15 81.4,59.425 81.4,56.725 C81.4,54.05 83.425,52.4 87.075,52.4 C89.175,52.4 90.95,52.925 91.9,53.375 L91.9,56.425 L88.875,56.425 L88.875,54.9 C88.525,54.775 87.9,54.675 87.375,54.675 C86.4,54.675 85.825,55.075 85.825,55.725 C85.825,56.6 86.8,56.7 88.225,57.025 C90.125,57.475 92.475,58.2 92.475,60.975 C92.475,63.725 90.475,65.35 86.75,65.35 C84.5,65.35 82.675,64.775 81.575,64.375 Z M105.425,65.3 C101.725,65.3 99.225,62.725 99.225,58.925 C99.225,55.175 101.775,52.575 105.525,52.575 C109.175,52.575 111.675,55.15 111.675,58.925 C111.675,62.7 109.15,65.3 105.425,65.3 Z M105.45,63.775 C107.925,63.775 109.3,62.075 109.3,59.05 L109.3,58.825 C109.3,55.75 107.925,54.1 105.475,54.1 C103,54.1 101.625,55.775 101.625,58.825 L101.625,59.05 C101.625,62.1 102.975,63.775 105.45,63.775 Z M112.15,54.325 L112.15,52.875 L113.9,52.875 L113.9,51.6 C113.9,48.975 114.925,47.95 117.275,47.95 C118.15,47.95 118.875,48.175 119.2,48.375 L119.2,49.825 C118.9,49.65 118.425,49.525 117.9,49.525 C116.625,49.525 116.15,50.025 116.2,51.9 L116.2,52.875 L118.625,52.875 L118.625,54.325 L116.225,54.325 L116.225,62.975 C116.225,63.475 116.35,63.55 116.6,63.55 L118.175,63.55 L118.175,65 L112.225,65 L112.225,63.55 L113.525,63.55 C113.775,63.55 113.9,63.475 113.9,62.975 L113.9,54.325 L112.15,54.325 Z M130.3,65.275 C127.9,65.275 126.925,64.3 126.925,61.825 L126.925,54.325 L125.1,54.325 L125.1,53.025 L126.3,52.95 C126.975,52.85 127.325,52.625 127.4,51.9 L127.625,49.7 L129.3,49.7 L129.3,52.875 L131.975,52.875 L131.975,54.325 L129.225,54.325 L129.225,61.8 C129.225,63.175 129.75,63.7 130.925,63.7 C131.525,63.7 131.875,63.575 132.2,63.475 L132.2,64.975 C131.825,65.1 131.125,65.275 130.3,65.275 Z M136.925,48.175 L136.925,55.375 C137.75,53.525 139.225,52.575 141.175,52.575 C143.725,52.575 145.025,54 145.025,56.85 L145.025,62.975 C145.025,63.475 145.15,63.55 145.4,63.55 L146.8,63.55 L146.8,65 L141,65 L141,63.55 L142.275,63.55 C142.525,63.55 142.65,63.475 142.65,62.975 L142.65,56.95 C142.65,55.1 141.95,54.25 140.3,54.25 C138.25,54.25 136.925,56.025 136.925,59.2 L136.925,62.975 C136.925,63.475 137.05,63.55 137.275,63.55 L138.625,63.55 L138.625,65 L132.775,65 L132.775,63.55 L134.175,63.55 C134.425,63.55 134.55,63.475 134.55,62.975 L134.55,50.525 C134.55,50 134.45,49.85 134.175,49.85 L132.725,49.85 L132.725,48.4 L134.15,48.4 C135.275,48.4 136.4,48.275 136.925,48.175 Z M159.35,59.35 L149.9,59.35 C149.95,61.925 151.35,63.775 153.975,63.775 C156.075,63.775 157.25,62.7 157.8,60.95 L159.25,61.55 C158.65,63.675 156.925,65.3 153.8,65.3 C149.75,65.3 147.475,62.625 147.475,58.925 C147.475,55.2 149.975,52.575 153.625,52.575 C157.225,52.575 159.35,54.95 159.35,58.75 L159.35,59.35 Z M153.625,54.05 C151.4,54.05 150.075,55.475 149.9,58.025 L156.975,58.025 C156.925,55.375 155.775,54.05 153.625,54.05 Z M16.275,94.3 L16.275,92.85 L17.675,92.85 C17.925,92.85 18.05,92.775 18.05,92.275 L18.05,80 C18.05,79.475 17.95,79.325 17.675,79.325 L16.225,79.325 L16.225,77.875 L17.6,77.875 C18.75,77.875 19.875,77.75 20.375,77.65 L20.375,80.55 C21.15,78.7 22.7,77.575 24.9,77.575 C28.25,77.575 30.375,80.075 30.375,83.925 C30.375,87.775 28.175,90.3 24.825,90.3 C22.675,90.3 21.2,89.2 20.425,87.5 L20.425,92.275 C20.425,92.775 20.55,92.85 20.775,92.85 L22.2,92.85 L22.2,94.3 L16.275,94.3 Z M24.15,88.625 C26.425,88.625 27.925,87.05 27.925,84.1 L27.925,83.775 C27.925,80.825 26.425,79.225 24.15,79.225 C21.95,79.225 20.425,80.85 20.425,83.775 L20.425,84.1 C20.425,87 21.975,88.625 24.15,88.625 Z M35.5,77.65 L35.5,80.475 C36.125,78.4 37.425,77.575 38.85,77.575 C40.575,77.575 41.55,78.675 41.55,80.2 C41.55,81.475 40.825,82.3 39.75,82.3 C39.025,82.3 38.425,81.7 38.425,81 C38.425,80.4 38.85,79.85 39.475,79.7 C39.35,79.45 39,79.15 38.375,79.15 C36.475,79.15 35.55,81.05 35.55,83.9 L35.55,87.975 C35.55,88.475 35.675,88.55 35.9,88.55 L37.425,88.55 L37.425,90 L31.4,90 L31.4,88.55 L32.8,88.55 C33.05,88.55 33.175,88.475 33.175,87.975 L33.175,80 C33.175,79.475 33.075,79.325 32.8,79.325 L31.35,79.325 L31.35,77.875 L32.7,77.875 C33.85,77.875 34.975,77.75 35.5,77.65 Z M53.85,84.35 L44.4,84.35 C44.45,86.925 45.85,88.775 48.475,88.775 C50.575,88.775 51.75,87.7 52.3,85.95 L53.75,86.55 C53.15,88.675 51.425,90.3 48.3,90.3 C44.25,90.3 41.975,87.625 41.975,83.925 C41.975,80.2 44.475,77.575 48.125,77.575 C51.725,77.575 53.85,79.95 53.85,83.75 L53.85,84.35 Z M48.125,79.05 C45.9,79.05 44.575,80.475 44.4,83.025 L51.475,83.025 C51.425,80.375 50.275,79.05 48.125,79.05 Z M55.175,89.225 L55.175,86.075 L57.025,86.075 L57.025,88.425 C57.625,88.7 58.575,88.9 59.725,88.9 C61.475,88.9 62.55,88.25 62.55,86.925 C62.55,85.5 61.175,85.15 59.4,84.8 C57.3,84.4 55.175,83.775 55.175,81.3 C55.175,79.075 56.975,77.575 60.075,77.575 C61.775,77.575 63.4,78.075 64.375,78.6 L64.375,81.725 L62.525,81.725 L62.525,79.5 C62.025,79.2 61.125,78.975 60.125,78.975 C58.375,78.975 57.375,79.675 57.375,80.875 C57.375,82.35 58.8,82.55 60.525,82.875 C62.725,83.3 64.75,84 64.75,86.475 C64.75,88.775 62.925,90.3 59.75,90.3 C58,90.3 56.325,89.8 55.175,89.225 Z M77.9,84.35 L68.45,84.35 C68.5,86.925 69.9,88.775 72.525,88.775 C74.625,88.775 75.8,87.7 76.35,85.95 L77.8,86.55 C77.2,88.675 75.475,90.3 72.35,90.3 C68.3,90.3 66.025,87.625 66.025,83.925 C66.025,80.2 68.525,77.575 72.175,77.575 C75.775,77.575 77.9,79.95 77.9,83.75 L77.9,84.35 Z M72.175,79.05 C69.95,79.05 68.625,80.475 68.45,83.025 L75.525,83.025 C75.475,80.375 74.325,79.05 72.175,79.05 Z M83.025,77.65 L83.025,80.475 C83.825,78.575 85.325,77.575 87.3,77.575 C89.85,77.575 91.15,79.025 91.15,81.9 L91.15,87.975 C91.15,88.475 91.275,88.55 91.525,88.55 L92.925,88.55 L92.925,90 L87.125,90 L87.125,88.55 L88.425,88.55 C88.65,88.55 88.775,88.475 88.775,87.975 L88.775,81.975 C88.775,80.1 88.075,79.25 86.425,79.25 C84.375,79.25 83.05,80.975 83.05,84.175 L83.05,87.975 C83.05,88.475 83.175,88.55 83.425,88.55 L84.75,88.55 L84.75,90 L78.9,90 L78.9,88.55 L80.3,88.55 C80.55,88.55 80.675,88.475 80.675,87.975 L80.675,80 C80.675,79.475 80.575,79.325 80.3,79.325 L78.9,79.325 L78.9,77.875 L80.25,77.875 C81.375,77.875 82.5,77.75 83.025,77.65 Z M98,90.275 C95.6,90.275 94.625,89.3 94.625,86.825 L94.625,79.325 L92.8,79.325 L92.8,78.025 L94,77.95 C94.675,77.85 95.025,77.625 95.1,76.9 L95.325,74.7 L97,74.7 L97,77.875 L99.675,77.875 L99.675,79.325 L96.925,79.325 L96.925,86.8 C96.925,88.175 97.45,88.7 98.625,88.7 C99.225,88.7 99.575,88.575 99.9,88.475 L99.9,89.975 C99.525,90.1 98.825,90.275 98,90.275 Z"/>
        <path fill="#807BB6" fill-opacity=".3" d="M51.8690925,160 L0,160 L0,104.933178 C5.62196528,101.790928 12.1018358,100 19,100 C40.5391052,100 58,117.460895 58,139 C58,146.731854 55.7500211,153.938197 51.8690925,160 Z"/>
        <path fill="#938FC2" d="M150.550253,130 L146.050253,125.5 L151,120.550253 L166.949747,136.5 L151,152.449747 L146.050253,147.5 L150.550253,143 L14,143 L14,130 L150.550253,130 Z M157,136.449747 L157,136.550253 L157.050253,136.5 L157,136.449747 Z" transform="rotate(-180 90.475 136.5)"/>
        <path fill="#605AA4" d="M17.275,31.6 L17.275,28.875 L23.95,19.4 L30.35,19.4 L20.325,28.85 L24.925,28.85 L24.925,26.375 C27.55,26.375 29.7,23.6 29.7,23.6 L29.7,28.85 L32.1,28.85 L32.1,31.6 L29.7,31.6 L29.7,32.55 C29.7,33.275 29.825,33.45 30.3,33.45 L31.2,33.45 L31.2,36 L23.4,36 L23.4,33.45 L24.225,33.45 C24.675,33.45 24.825,33.275 24.825,32.55 L24.825,31.6 L17.275,31.6 Z M35.85,36.35 C34.2,36.35 33.125,35.3 33.125,33.725 C33.125,32.175 34.2,31.1 35.85,31.1 C37.475,31.1 38.575,32.175 38.575,33.725 C38.575,35.3 37.475,36.35 35.85,36.35 Z"/>
      </g>
      <g transform="translate(241 176)">
        <rect width="368" height="262" fill="#605AA4" fill-opacity=".2"/>
        <g transform="translate(201 202)">
          <path fill="#807BB6" fill-opacity=".3" d="M167,4.93317758 L167,60 L115.130907,60 C111.249979,53.9381969 109,46.7318538 109,39 C109,17.4608948 126.460895,0 148,0 C154.898164,0 161.378035,1.79092846 167.000008,4.93318218 Z"/>
          <path fill="#938FC2" d="M136.550253,30 L132.050253,25.5 L137,20.5502525 L152.949747,36.5 L137,52.4497475 L132.050253,47.5 L136.550253,43 L0,43 L0,30 L136.550253,30 Z M143,36.4497475 L143,36.5502525 L143.050253,36.5 L143,36.4497475 Z" transform="rotate(-180 76.475 36.5)"/>
        </g>
        <path fill="#605AA4" d="M46.925 72.575L46.225 70.7 41.575 70.7 40.925 72.575C40.7 73.275 40.9 73.45 41.475 73.45L42.15 73.45 42.15 76 35.9 76 35.9 73.45 36.65 73.45C37.225 73.45 37.325 73.275 37.6 72.55L42.575 59.375 47.675 59.375 52.45 72.55C52.7 73.25 52.95 73.45 53.475 73.45L54.1 73.45 54.1 76 45.7 76 45.7 73.45 46.4 73.45C46.95 73.45 47.15 73.25 46.925 72.575zM43.95 63.5L42.275 68.35 45.6 68.35 43.95 63.5zM60.425 63.45L60.425 65.55C61.175 64.1 62.55 63.4 64.45 63.4 67.1 63.4 68.475 64.95 68.475 68.3L68.475 72.675C68.475 73.35 68.65 73.45 68.975 73.45L69.625 73.45 69.625 76 62.575 76 62.575 73.45 63.1 73.45C63.425 73.45 63.6 73.35 63.6 72.675L63.6 68.375C63.6 66.95 63.2 66.425 62.2 66.425 61.075 66.425 60.5 67.2 60.5 69.125L60.5 72.675C60.5 73.35 60.675 73.45 61 73.45L61.525 73.45 61.525 76 54.475 76 54.475 73.45 55.125 73.45C55.45 73.45 55.625 73.35 55.625 72.675L55.625 67.2C55.625 66.5 55.5 66.3 55.125 66.3L54.475 66.3 54.475 63.75 57.35 63.75C58.675 63.75 59.8 63.6 60.425 63.45zM69.65 76L69.65 73.45 70.15 73.45C70.6 73.45 70.725 73.25 71.15 72.775L73.65 70 71.025 66.975C70.675 66.575 70.525 66.3 70.15 66.3L69.75 66.3 69.75 63.75 77.375 63.75 77.375 66.3 76.75 66.3C76.575 66.3 76.225 66.5 76.6 66.95L77.7 68.35 78.9 66.95C79.15 66.65 79.075 66.3 78.725 66.3L78.2 66.3 78.2 63.75 83.65 63.75 83.65 66.3 83.05 66.3C82.5 66.3 82.425 66.5 82.025 66.975L79.675 69.575 82.425 72.7C82.725 73.075 82.9 73.45 83.3 73.45L83.625 73.45 83.625 76 75.975 76 75.975 73.45 76.65 73.45C76.925 73.45 77.225 73.225 76.875 72.8L75.575 71.15 74.25 72.8C74 73.125 74.075 73.45 74.425 73.45L74.975 73.45 74.975 76 69.65 76zM87.825 63.025C86.275 63.025 85.25 62.075 85.25 60.725 85.25 59.375 86.275 58.425 87.825 58.425 89.375 58.425 90.4 59.375 90.4 60.725 90.4 62.075 89.375 63.025 87.825 63.025zM84.25 76L84.25 73.45 84.925 73.45C85.275 73.45 85.4 73.275 85.4 72.675L85.4 67.3C85.4 66.55 85.275 66.3 84.85 66.3L84.25 66.3 84.25 63.75 87.175 63.75C88.525 63.75 89.65 63.6 90.3 63.45L90.3 72.675C90.3 73.275 90.425 73.45 90.775 73.45L91.4 73.45 91.4 76 84.25 76zM105.05 70.775L97.075 70.775C97.15 72.6 98.2 73.45 99.9 73.45 101.425 73.45 102.225 72.65 102.675 71.7L104.95 73.325C104.05 75.05 102.275 76.35 98.925 76.35 94.475 76.35 92.075 73.7 92.075 69.85 92.075 65.975 94.7 63.4 98.8 63.4 103.05 63.4 105.05 65.875 105.05 70.275L105.05 70.775zM98.825 65.925C97.65 65.925 97.1 66.7 97 68.675L100.425 68.675C100.375 66.65 99.9 65.925 98.825 65.925zM111.225 76.35C108 76.35 106.775 75.125 106.775 71.975L106.775 66.3 105.375 66.3 105.375 64.025 105.95 63.95C107.075 63.7 107.8 63.25 108.025 62.075L108.325 60.125 111.6 60.125 111.6 63.75 113.65 63.75 113.65 66.3 111.525 66.3 111.525 72C111.525 73.175 111.975 73.525 112.85 73.525 113.275 73.525 113.575 73.425 113.825 73.35L113.825 76C113.2 76.175 112.225 76.35 111.225 76.35zM118.2 63.025C116.65 63.025 115.625 62.075 115.625 60.725 115.625 59.375 116.65 58.425 118.2 58.425 119.75 58.425 120.775 59.375 120.775 60.725 120.775 62.075 119.75 63.025 118.2 63.025zM114.625 76L114.625 73.45 115.3 73.45C115.65 73.45 115.775 73.275 115.775 72.675L115.775 67.3C115.775 66.55 115.65 66.3 115.225 66.3L114.625 66.3 114.625 63.75 117.55 63.75C118.9 63.75 120.025 63.6 120.675 63.45L120.675 72.675C120.675 73.275 120.8 73.45 121.15 73.45L121.775 73.45 121.775 76 114.625 76zM135.425 70.775L127.45 70.775C127.525 72.6 128.575 73.45 130.275 73.45 131.8 73.45 132.6 72.65 133.05 71.7L135.325 73.325C134.425 75.05 132.65 76.35 129.3 76.35 124.85 76.35 122.45 73.7 122.45 69.85 122.45 65.975 125.075 63.4 129.175 63.4 133.425 63.4 135.425 65.875 135.425 70.275L135.425 70.775zM129.2 65.925C128.025 65.925 127.475 66.7 127.375 68.675L130.8 68.675C130.75 66.65 130.275 65.925 129.2 65.925zM136.25 75.375L136.25 72.225 139.425 72.225 139.425 73.9C139.9 74.025 140.45 74.075 141.1 74.075 142.1 74.075 142.725 73.725 142.725 72.975 142.725 72.125 141.8 71.925 140.25 71.6 138.325 71.15 136.075 70.425 136.075 67.725 136.075 65.05 138.1 63.4 141.75 63.4 143.85 63.4 145.625 63.925 146.575 64.375L146.575 67.425 143.55 67.425 143.55 65.9C143.2 65.775 142.575 65.675 142.05 65.675 141.075 65.675 140.5 66.075 140.5 66.725 140.5 67.6 141.475 67.7 142.9 68.025 144.8 68.475 147.15 69.2 147.15 71.975 147.15 74.725 145.15 76.35 141.425 76.35 139.175 76.35 137.35 75.775 136.25 75.375zM159.4 65.05C158.225 65.05 157.4 65.275 156.875 65.7 157.275 65.95 157.525 66.4 157.525 66.975 157.525 67.85 156.875 68.425 156.025 68.425 155.05 68.425 154.425 67.8 154.425 66.75 154.425 64.625 156.875 63.575 159.75 63.575 163.225 63.575 164.75 64.8 164.75 67.75L164.75 73.975C164.75 74.375 164.85 74.55 165.1 74.55L166.475 74.55 166.475 76 162.925 76C162.675 75.325 162.55 74.65 162.425 73.625 161.75 75.2 159.925 76.3 157.85 76.3 155.575 76.3 154.125 74.925 154.125 73.1 154.125 70.225 156.95 69.1 162.375 68.45L162.375 67.775C162.375 65.85 161.45 65.05 159.4 65.05zM158.675 74.725C160.9 74.725 162.375 73.075 162.375 70.675L162.375 69.675C158.425 70.125 156.425 70.825 156.425 72.725 156.425 73.925 157.325 74.725 158.675 74.725zM175.4 76.3C173.075 76.3 171.4 75.125 170.6 73.225 170.325 74.35 169.925 75.775 169.9 76L168.475 76C168.575 75.3 168.625 74.1 168.625 71.85L168.625 61.525C168.625 61 168.55 60.85 168.275 60.85L166.825 60.85 166.825 59.4 168.175 59.4C169.3 59.4 170.5 59.275 171 59.175L171 66.45C171.8 64.65 173.35 63.575 175.5 63.575 178.85 63.575 180.975 66.075 180.975 69.925 180.975 73.775 178.775 76.3 175.4 76.3zM174.75 74.675C177.025 74.675 178.525 73.05 178.525 70.1L178.525 69.775C178.525 66.825 177.025 65.2 174.75 65.2 172.55 65.2 171 66.85 171 69.775L171 70.1C171 73 172.575 74.675 174.75 74.675zM188.375 76.3C184.675 76.3 182.175 73.725 182.175 69.925 182.175 66.175 184.725 63.575 188.475 63.575 192.125 63.575 194.625 66.15 194.625 69.925 194.625 73.7 192.1 76.3 188.375 76.3zM188.4 74.775C190.875 74.775 192.25 73.075 192.25 70.05L192.25 69.825C192.25 66.75 190.875 65.1 188.425 65.1 185.95 65.1 184.575 66.775 184.575 69.825L184.575 70.05C184.575 73.1 185.925 74.775 188.4 74.775zM209.275 76L207.875 76C206.75 76 205.625 76.125 205.1 76.225L205.1 73.6C204.3 75.35 202.85 76.3 200.925 76.3 198.475 76.3 197.05 75.05 197.05 72.1L197.05 65.9C197.05 65.4 196.925 65.325 196.7 65.325L195.275 65.325 195.275 63.875 199.45 63.875 199.45 72.025C199.45 74 200.325 74.65 201.8 74.65 203.85 74.65 205.075 72.9 205.075 70.225L205.075 65.9C205.075 65.4 204.95 65.325 204.725 65.325L203.225 65.325 203.225 63.875 207.45 63.875 207.45 73.875C207.45 74.4 207.55 74.55 207.825 74.55L209.275 74.55 209.275 76zM214.35 76.275C211.95 76.275 210.975 75.3 210.975 72.825L210.975 65.325 209.15 65.325 209.15 64.025 210.35 63.95C211.025 63.85 211.375 63.625 211.45 62.9L211.675 60.7 213.35 60.7 213.35 63.875 216.025 63.875 216.025 65.325 213.275 65.325 213.275 72.8C213.275 74.175 213.8 74.7 214.975 74.7 215.575 74.7 215.925 74.575 216.25 74.475L216.25 75.975C215.875 76.1 215.175 76.275 214.35 76.275zM227.9 76.275C225.5 76.275 224.525 75.3 224.525 72.825L224.525 65.325 222.7 65.325 222.7 64.025 223.9 63.95C224.575 63.85 224.925 63.625 225 62.9L225.225 60.7 226.9 60.7 226.9 63.875 229.575 63.875 229.575 65.325 226.825 65.325 226.825 72.8C226.825 74.175 227.35 74.7 228.525 74.7 229.125 74.7 229.475 74.575 229.8 74.475L229.8 75.975C229.425 76.1 228.725 76.275 227.9 76.275zM234.525 59.175L234.525 66.375C235.35 64.525 236.825 63.575 238.775 63.575 241.325 63.575 242.625 65 242.625 67.85L242.625 73.975C242.625 74.475 242.75 74.55 243 74.55L244.4 74.55 244.4 76 238.6 76 238.6 74.55 239.875 74.55C240.125 74.55 240.25 74.475 240.25 73.975L240.25 67.95C240.25 66.1 239.55 65.25 237.9 65.25 235.85 65.25 234.525 67.025 234.525 70.2L234.525 73.975C234.525 74.475 234.65 74.55 234.875 74.55L236.225 74.55 236.225 76 230.375 76 230.375 74.55 231.775 74.55C232.025 74.55 232.15 74.475 232.15 73.975L232.15 61.525C232.15 61 232.05 60.85 231.775 60.85L230.325 60.85 230.325 59.4 231.75 59.4C232.875 59.4 234 59.275 234.525 59.175zM256.95 70.35L247.5 70.35C247.55 72.925 248.95 74.775 251.575 74.775 253.675 74.775 254.85 73.7 255.4 71.95L256.85 72.55C256.25 74.675 254.525 76.3 251.4 76.3 247.35 76.3 245.075 73.625 245.075 69.925 245.075 66.2 247.575 63.575 251.225 63.575 254.825 63.575 256.95 65.95 256.95 69.75L256.95 70.35zM251.225 65.05C249 65.05 247.675 66.475 247.5 69.025L254.575 69.025C254.525 66.375 253.375 65.05 251.225 65.05zM264.1 75.225L264.1 72.075 265.95 72.075 265.95 74.425C266.55 74.7 267.5 74.9 268.65 74.9 270.4 74.9 271.475 74.25 271.475 72.925 271.475 71.5 270.1 71.15 268.325 70.8 266.225 70.4 264.1 69.775 264.1 67.3 264.1 65.075 265.9 63.575 269 63.575 270.7 63.575 272.325 64.075 273.3 64.6L273.3 67.725 271.45 67.725 271.45 65.5C270.95 65.2 270.05 64.975 269.05 64.975 267.3 64.975 266.3 65.675 266.3 66.875 266.3 68.35 267.725 68.55 269.45 68.875 271.65 69.3 273.675 70 273.675 72.475 273.675 74.775 271.85 76.3 268.675 76.3 266.925 76.3 265.25 75.8 264.1 75.225zM281.15 76.3C277.45 76.3 274.95 73.725 274.95 69.925 274.95 66.175 277.5 63.575 281.25 63.575 284.9 63.575 287.4 66.15 287.4 69.925 287.4 73.7 284.875 76.3 281.15 76.3zM281.175 74.775C283.65 74.775 285.025 73.075 285.025 70.05L285.025 69.825C285.025 66.75 283.65 65.1 281.2 65.1 278.725 65.1 277.35 66.775 277.35 69.825L277.35 70.05C277.35 73.1 278.7 74.775 281.175 74.775zM288.1 76L288.1 74.55 289.525 74.55C289.725 74.55 289.875 74.475 289.875 73.975L289.875 61.525C289.875 61 289.775 60.85 289.525 60.85L288.05 60.85 288.05 59.4 289.45 59.4C290.6 59.4 291.725 59.275 292.25 59.175L292.25 73.975C292.25 74.475 292.375 74.55 292.6 74.55L293.975 74.55 293.975 76 288.1 76zM308.5 76L307.1 76C305.975 76 304.85 76.125 304.325 76.225L304.325 73.6C303.525 75.35 302.075 76.3 300.15 76.3 297.7 76.3 296.275 75.05 296.275 72.1L296.275 65.9C296.275 65.4 296.15 65.325 295.925 65.325L294.5 65.325 294.5 63.875 298.675 63.875 298.675 72.025C298.675 74 299.55 74.65 301.025 74.65 303.075 74.65 304.3 72.9 304.3 70.225L304.3 65.9C304.3 65.4 304.175 65.325 303.95 65.325L302.45 65.325 302.45 63.875 306.675 63.875 306.675 73.875C306.675 74.4 306.775 74.55 307.05 74.55L308.5 74.55 308.5 76zM313.575 76.275C311.175 76.275 310.2 75.3 310.2 72.825L310.2 65.325 308.375 65.325 308.375 64.025 309.575 63.95C310.25 63.85 310.6 63.625 310.675 62.9L310.9 60.7 312.575 60.7 312.575 63.875 315.25 63.875 315.25 65.325 312.5 65.325 312.5 72.8C312.5 74.175 313.025 74.7 314.2 74.7 314.8 74.7 315.15 74.575 315.475 74.475L315.475 75.975C315.1 76.1 314.4 76.275 313.575 76.275zM319.3 62.15C318.35 62.15 317.7 61.425 317.7 60.525 317.7 59.65 318.35 58.925 319.3 58.925 320.225 58.925 320.9 59.65 320.9 60.525 320.9 61.425 320.225 62.15 319.3 62.15zM316.375 76L316.375 74.55 317.8 74.55C318.025 74.55 318.15 74.45 318.15 73.975L318.15 66.325C318.15 65.55 318.025 65.325 317.6 65.325L316.375 65.325 316.375 63.875 317.725 63.875C318.875 63.875 320 63.75 320.525 63.65L320.525 73.975C320.525 74.45 320.65 74.55 320.875 74.55L322.25 74.55 322.25 76 316.375 76zM329.5 76.3C325.8 76.3 323.3 73.725 323.3 69.925 323.3 66.175 325.85 63.575 329.6 63.575 333.25 63.575 335.75 66.15 335.75 69.925 335.75 73.7 333.225 76.3 329.5 76.3zM329.525 74.775C332 74.775 333.375 73.075 333.375 70.05L333.375 69.825C333.375 66.75 332 65.1 329.55 65.1 327.075 65.1 325.7 66.775 325.7 69.825L325.7 70.05C325.7 73.1 327.05 74.775 329.525 74.775zM340.8 63.65L340.8 66.475C341.6 64.575 343.1 63.575 345.075 63.575 347.625 63.575 348.925 65.025 348.925 67.9L348.925 73.975C348.925 74.475 349.05 74.55 349.3 74.55L350.7 74.55 350.7 76 344.9 76 344.9 74.55 346.2 74.55C346.425 74.55 346.55 74.475 346.55 73.975L346.55 67.975C346.55 66.1 345.85 65.25 344.2 65.25 342.15 65.25 340.825 66.975 340.825 70.175L340.825 73.975C340.825 74.475 340.95 74.55 341.2 74.55L342.525 74.55 342.525 76 336.675 76 336.675 74.55 338.075 74.55C338.325 74.55 338.45 74.475 338.45 73.975L338.45 66C338.45 65.475 338.35 65.325 338.075 65.325L336.675 65.325 336.675 63.875 338.025 63.875C339.15 63.875 340.275 63.75 340.8 63.65zM78 137.4C77.075 137.4 76.525 137.675 76.35 138.325 76.55 138.275 76.725 138.25 76.925 138.25 78.2 138.25 79.1 139.025 79.1 140.325 79.1 141.675 78.05 142.625 76.6 142.625 74.95 142.625 73.475 141.325 73.475 139.275 73.475 136.775 75.1 135.15 77.625 135.15 78.3 135.15 78.95 135.275 79.325 135.4L79.325 137.625C78.975 137.5 78.5 137.4 78 137.4zM84.025 137.4C83.1 137.4 82.55 137.675 82.375 138.325 82.575 138.275 82.75 138.25 82.95 138.25 84.225 138.25 85.1 139.025 85.1 140.325 85.1 141.675 84.075 142.625 82.6 142.625 80.95 142.625 79.5 141.325 79.5 139.275 79.5 136.775 81.125 135.15 83.65 135.15 84.325 135.15 84.975 135.275 85.35 135.4L85.35 137.625C85 137.5 84.525 137.4 84.025 137.4zM89.475 152L89.475 149.45 90.55 149.45C91 149.45 91.15 149.275 91.15 148.55L91.15 137.9 90.9 137.9C89.425 137.9 88.9 138.1 88.725 139.1L88.525 140.275 86.125 140.275 86.125 135.4 101.45 135.4 101.45 140.275 99.05 140.275 98.85 139.1C98.675 138.1 98.125 137.9 96.65 137.9L96.225 137.9 96.225 148.55C96.225 149.275 96.35 149.45 96.825 149.45L97.9 149.45 97.9 152 89.475 152zM108.1 135.1L108.1 141.425C108.875 140.05 110.2 139.4 112.05 139.4 114.7 139.4 116.075 140.95 116.075 144.275L116.075 148.675C116.075 149.35 116.25 149.45 116.575 149.45L117.225 149.45 117.225 152 110.175 152 110.175 149.45 110.7 149.45C111.025 149.45 111.2 149.35 111.2 148.675L111.2 144.45C111.2 143.025 110.8 142.5 109.775 142.5 108.675 142.5 108.1 143.3 108.1 145.225L108.1 148.675C108.1 149.35 108.275 149.45 108.6 149.45L109.125 149.45 109.125 152 102.075 152 102.075 149.45 102.725 149.45C103.05 149.45 103.225 149.35 103.225 148.675L103.225 138.85C103.225 138.15 103.1 137.95 102.725 137.95L101.975 137.95 101.975 135.4 105 135.4C106.35 135.4 107.475 135.25 108.1 135.1zM130.45 146.775L122.475 146.775C122.55 148.6 123.6 149.45 125.3 149.45 126.825 149.45 127.625 148.65 128.075 147.7L130.35 149.325C129.45 151.05 127.675 152.35 124.325 152.35 119.875 152.35 117.475 149.7 117.475 145.85 117.475 141.975 120.1 139.4 124.2 139.4 128.45 139.4 130.45 141.875 130.45 146.275L130.45 146.775zM124.225 141.925C123.05 141.925 122.5 142.7 122.4 144.675L125.825 144.675C125.775 142.65 125.3 141.925 124.225 141.925zM137 152L137 149.45 137.875 149.45C138.35 149.45 138.475 149.275 138.475 148.55L138.475 138.825C138.475 138.125 138.35 137.95 137.875 137.95L137 137.95 137 135.4 145.65 135.4C150.2 135.4 152.325 137 152.325 140.475 152.325 144.025 150.3 145.575 145.625 145.575L143.75 145.575 143.75 148.55C143.75 149.275 143.9 149.45 144.35 149.45L145.425 149.45 145.425 152 137 152zM143.75 137.975L143.75 143.1 145 143.1C146.625 143.1 147.3 142.325 147.3 140.5 147.3 138.675 146.65 137.975 144.975 137.975L143.75 137.975zM159.075 139.45L159.075 141.95C159.575 140.175 160.7 139.4 162.275 139.4 164.25 139.4 165.45 140.875 165.45 143.15 165.45 145.125 164.35 146.325 162.675 146.325 161.525 146.325 160.575 145.525 160.575 144.425 160.575 143.65 160.925 143.025 161.55 142.6 161.375 142.5 161.15 142.45 160.925 142.45 159.65 142.45 159.15 143.575 159.075 145.775L159.075 148.675C159.075 149.35 159.25 149.45 159.575 149.45L160.325 149.45 160.325 152 153.05 152 153.05 149.45 153.7 149.45C154.025 149.45 154.2 149.35 154.2 148.675L154.2 143.2C154.2 142.5 154.1 142.3 153.7 142.3L152.95 142.3 152.95 139.75 155.975 139.75C157.3 139.75 158.425 139.6 159.075 139.45zM169.525 139.025C167.975 139.025 166.95 138.075 166.95 136.725 166.95 135.375 167.975 134.425 169.525 134.425 171.075 134.425 172.1 135.375 172.1 136.725 172.1 138.075 171.075 139.025 169.525 139.025zM165.95 152L165.95 149.45 166.625 149.45C166.975 149.45 167.1 149.275 167.1 148.675L167.1 143.3C167.1 142.55 166.975 142.3 166.55 142.3L165.95 142.3 165.95 139.75 168.875 139.75C170.225 139.75 171.35 139.6 172 139.45L172 148.675C172 149.275 172.125 149.45 172.475 149.45L173.1 149.45 173.1 152 165.95 152zM181.45 144.475C181.45 143.4 182.05 142.625 183.15 142.375 182.775 142.05 182.2 141.9 181.425 141.9 179.7 141.9 178.725 142.95 178.725 145.4L178.725 145.975C178.725 148.35 179.675 149.375 181.325 149.375 182.65 149.375 183.45 148.725 183.95 147.525L186.45 148.95C185.65 150.925 184 152.35 180.7 152.35 176.35 152.35 173.775 149.975 173.775 145.825 173.775 141.825 176.375 139.4 180.675 139.4 184.425 139.4 186.475 140.925 186.475 143.625 186.475 145.35 185.5 146.575 183.825 146.575 182.325 146.575 181.45 145.625 181.45 144.475zM199.825 146.775L191.85 146.775C191.925 148.6 192.975 149.45 194.675 149.45 196.2 149.45 197 148.65 197.45 147.7L199.725 149.325C198.825 151.05 197.05 152.35 193.7 152.35 189.25 152.35 186.85 149.7 186.85 145.85 186.85 141.975 189.475 139.4 193.575 139.4 197.825 139.4 199.825 141.875 199.825 146.275L199.825 146.775zM193.6 141.925C192.425 141.925 191.875 142.7 191.775 144.675L195.2 144.675C195.15 142.65 194.675 141.925 193.6 141.925zM210 139.025C208.45 139.025 207.425 138.075 207.425 136.725 207.425 135.375 208.45 134.425 210 134.425 211.55 134.425 212.575 135.375 212.575 136.725 212.575 138.075 211.55 139.025 210 139.025zM206.425 152L206.425 149.45 207.1 149.45C207.45 149.45 207.575 149.275 207.575 148.675L207.575 143.3C207.575 142.55 207.45 142.3 207.025 142.3L206.425 142.3 206.425 139.75 209.35 139.75C210.7 139.75 211.825 139.6 212.475 139.45L212.475 148.675C212.475 149.275 212.6 149.45 212.95 149.45L213.575 149.45 213.575 152 206.425 152zM214.575 151.375L214.575 148.225 217.75 148.225 217.75 149.9C218.225 150.025 218.775 150.075 219.425 150.075 220.425 150.075 221.05 149.725 221.05 148.975 221.05 148.125 220.125 147.925 218.575 147.6 216.65 147.15 214.4 146.425 214.4 143.725 214.4 141.05 216.425 139.4 220.075 139.4 222.175 139.4 223.95 139.925 224.9 140.375L224.9 143.425 221.875 143.425 221.875 141.9C221.525 141.775 220.9 141.675 220.375 141.675 219.4 141.675 218.825 142.075 218.825 142.725 218.825 143.6 219.8 143.7 221.225 144.025 223.125 144.475 225.475 145.2 225.475 147.975 225.475 150.725 223.475 152.35 219.75 152.35 217.5 152.35 215.675 151.775 214.575 151.375zM237.65 152.35C234.425 152.35 233.2 151.125 233.2 147.975L233.2 142.3 231.8 142.3 231.8 140.025 232.375 139.95C233.5 139.7 234.225 139.25 234.45 138.075L234.75 136.125 238.025 136.125 238.025 139.75 240.075 139.75 240.075 142.3 237.95 142.3 237.95 148C237.95 149.175 238.4 149.525 239.275 149.525 239.7 149.525 240 149.425 240.25 149.35L240.25 152C239.625 152.175 238.65 152.35 237.65 152.35zM247.375 152.35C243.25 152.35 240.55 149.775 240.55 145.875 240.55 142 243.325 139.4 247.5 139.4 251.575 139.4 254.3 141.975 254.3 145.875 254.3 149.75 251.55 152.35 247.375 152.35zM247.425 149.675C248.825 149.675 249.4 148.8 249.4 146.1L249.4 145.65C249.4 142.925 248.825 142.05 247.425 142.05 246.05 142.05 245.45 142.925 245.45 145.65L245.45 146.1C245.45 148.825 246.025 149.675 247.425 149.675zM261.725 152.35C257.6 152.35 254.9 149.775 254.9 145.875 254.9 142 257.675 139.4 261.85 139.4 265.925 139.4 268.65 141.975 268.65 145.875 268.65 149.75 265.9 152.35 261.725 152.35zM261.775 149.675C263.175 149.675 263.75 148.8 263.75 146.1L263.75 145.65C263.75 142.925 263.175 142.05 261.775 142.05 260.4 142.05 259.8 142.925 259.8 145.65L259.8 146.1C259.8 148.825 260.375 149.675 261.775 149.675zM275.2 152L275.2 149.45 276.075 149.45C276.55 149.45 276.675 149.275 276.675 148.55L276.675 138.825C276.675 138.125 276.55 137.95 276.075 137.95L275.2 137.95 275.2 135.4 283.325 135.4 283.325 137.95 282.55 137.95C282.1 137.95 281.95 138.125 281.95 138.825L281.95 142.375 286.85 142.375 286.85 138.825C286.85 138.125 286.725 137.95 286.275 137.95L285.475 137.95 285.475 135.4 293.6 135.4 293.6 137.95 292.725 137.95C292.275 137.95 292.125 138.125 292.125 138.825L292.125 148.55C292.125 149.275 292.275 149.45 292.725 149.45L293.6 149.45 293.6 152 285.475 152 285.475 149.45 286.275 149.45C286.725 149.45 286.85 149.275 286.85 148.55L286.85 144.775 281.95 144.775 281.95 148.55C281.95 149.275 282.1 149.45 282.55 149.45L283.325 149.45 283.325 152 275.2 152zM297.825 139.025C296.275 139.025 295.25 138.075 295.25 136.725 295.25 135.375 296.275 134.425 297.825 134.425 299.375 134.425 300.4 135.375 300.4 136.725 300.4 138.075 299.375 139.025 297.825 139.025zM294.25 152L294.25 149.45 294.925 149.45C295.275 149.45 295.4 149.275 295.4 148.675L295.4 143.3C295.4 142.55 295.275 142.3 294.85 142.3L294.25 142.3 294.25 139.75 297.175 139.75C298.525 139.75 299.65 139.6 300.3 139.45L300.3 148.675C300.3 149.275 300.425 149.45 300.775 149.45L301.4 149.45 301.4 152 294.25 152zM308.725 156.975C303.275 156.975 301.65 156.2 301.65 154.675 301.65 153.625 302.6 152.825 304.55 152.35 302.975 151.9 302.175 150.95 302.175 149.6 302.175 148.35 302.975 147.4 304.425 146.875 303.3 146.175 302.725 145.125 302.725 143.7 302.725 141.125 305.275 139.4 308.975 139.4 310.35 139.4 311.575 139.65 312.55 140.1 312.95 138.75 313.825 138 315.05 138 316.225 138 317.05 138.725 317.05 139.775 317.05 140.9 316.475 141.525 315.45 141.525 314.85 141.525 314.35 141.275 314.075 140.8L313.85 140.95C314.575 141.65 315 142.575 315 143.675 315 146.375 312.625 147.85 308.75 147.85 307.7 147.85 306.75 147.75 305.975 147.55 305.525 147.625 305.35 147.775 305.35 148.075 305.35 148.55 305.675 148.725 306.7 148.725 308.525 148.725 310.65 148.65 312.25 148.65 315.125 148.65 316.425 150.2 316.425 152.375 316.425 155.375 314.125 156.975 308.725 156.975zM308.8 145.75C309.825 145.75 310.3 145.2 310.3 143.925L310.3 143.4C310.3 142.125 309.825 141.55 308.85 141.55 307.825 141.55 307.35 142.175 307.35 143.425L307.35 143.975C307.35 145.175 307.825 145.75 308.8 145.75zM311.125 152.9L306.6 152.9C305.725 153.15 305.25 153.6 305.25 154.15 305.25 154.925 306.2 155.125 308.925 155.125 311.85 155.125 312.975 154.7 312.975 153.825 312.975 153.125 312.675 152.9 311.125 152.9zM322.925 135.1L322.925 141.425C323.7 140.05 325.025 139.4 326.875 139.4 329.525 139.4 330.9 140.95 330.9 144.275L330.9 148.675C330.9 149.35 331.075 149.45 331.4 149.45L332.05 149.45 332.05 152 325 152 325 149.45 325.525 149.45C325.85 149.45 326.025 149.35 326.025 148.675L326.025 144.45C326.025 143.025 325.625 142.5 324.6 142.5 323.5 142.5 322.925 143.3 322.925 145.225L322.925 148.675C322.925 149.35 323.1 149.45 323.425 149.45L323.95 149.45 323.95 152 316.9 152 316.9 149.45 317.55 149.45C317.875 149.45 318.05 149.35 318.05 148.675L318.05 138.85C318.05 138.15 317.925 137.95 317.55 137.95L316.8 137.95 316.8 135.4 319.825 135.4C321.175 135.4 322.3 135.25 322.925 135.1zM336 146.725L334.475 146.725C333.85 144.9 332.7 141.85 332.7 139.35L332.7 135.4 337.775 135.4 337.775 139.35C337.775 141.85 336.625 144.9 336 146.725zM335.2 152.35C333.725 152.35 332.75 151.4 332.75 150 332.75 148.6 333.75 147.65 335.2 147.65 336.65 147.65 337.65 148.6 337.65 150 337.65 151.4 336.65 152.35 335.2 152.35zM340.075 140.275C341 140.275 341.525 140.025 341.7 139.375 341.525 139.425 341.325 139.425 341.15 139.425 339.875 139.425 339 138.65 339 137.35 339 136.025 340.025 135.075 341.5 135.075 343.15 135.075 344.6 136.35 344.6 138.425 344.6 140.9 342.975 142.525 340.45 142.525 339.775 142.525 339.125 142.4 338.75 142.275L338.75 140.05C339.1 140.175 339.575 140.275 340.075 140.275zM346.1 140.275C347.025 140.275 347.55 140.025 347.725 139.375 347.55 139.425 347.35 139.425 347.175 139.425 345.9 139.425 345 138.65 345 137.35 345 136.025 346.05 135.075 347.5 135.075 349.15 135.075 350.6 136.35 350.6 138.425 350.6 140.9 349 142.525 346.475 142.525 345.8 142.525 345.15 142.4 344.775 142.275L344.775 140.05C345.125 140.175 345.6 140.275 346.1 140.275zM335.275 39.5C335.275 40.225 334.9 40.875 334.375 41.25 334.9 41.5 335.55 41.625 336.3 41.625 337.9 41.625 338.9 40.825 338.9 39.35L338.9 39.15C338.9 37.75 338.075 36.975 336.3 36.975 335.6 36.975 335.2 37.075 334.95 37.1L334.95 33.925C335.45 34.05 335.95 34.1 336.425 34.1 337.85 34.1 338.775 33.275 338.775 32.125L338.775 31.925C338.775 30.5 337.825 29.8 336.35 29.8 335.575 29.8 334.925 29.95 334.4 30.2 334.9 30.575 335.25 31.175 335.25 31.85 335.25 33.025 334.275 33.9 332.975 33.9 331.5 33.9 330.375 33.05 330.375 31.3 330.375 28.575 333.025 27.025 337.075 27.025 341.375 27.025 343.875 28.4 343.875 31.5 343.875 33.175 342.725 34.475 340.55 34.975 343.025 35.6 344.2 37.1 344.2 39.3 344.2 42.575 341.325 44.35 336.725 44.35 332.8 44.35 330.175 43.075 330.175 40.225 330.175 38.425 331.35 37.375 332.925 37.375 334.225 37.375 335.275 38.275 335.275 39.5zM347.775 44.35C346.125 44.35 345.05 43.3 345.05 41.725 345.05 40.175 346.125 39.1 347.775 39.1 349.4 39.1 350.5 40.175 350.5 41.725 350.5 43.3 349.4 44.35 347.775 44.35z"/>
      </g>
      <g transform="translate(284)">
        <polygon fill="#605AA4" fill-opacity=".2" points="0 0 224 0 224 160 0 160"/>
        <path fill="#807BB6" fill-opacity=".3" d="M224,104.933178 L224,160 L172.130907,160 C168.249979,153.938197 166,146.731854 166,139 C166,117.460895 183.460895,100 205,100 C211.898164,100 218.378035,101.790928 224.000008,104.933182 Z"/>
        <path fill="#605AA4" d="M69.125,59.575 L68.425,57.7 L63.775,57.7 L63.125,59.575 C62.9,60.275 63.1,60.45 63.675,60.45 L64.35,60.45 L64.35,63 L58.1,63 L58.1,60.45 L58.85,60.45 C59.425,60.45 59.525,60.275 59.8,59.55 L64.775,46.375 L69.875,46.375 L74.65,59.55 C74.9,60.25 75.15,60.45 75.675,60.45 L76.3,60.45 L76.3,63 L67.9,63 L67.9,60.45 L68.6,60.45 C69.15,60.45 69.35,60.25 69.125,59.575 Z M66.15,50.5 L64.475,55.35 L67.8,55.35 L66.15,50.5 Z M81.575,63.35 C78.35,63.35 77.125,62.125 77.125,58.975 L77.125,53.3 L75.725,53.3 L75.725,51.025 L76.3,50.95 C77.425,50.7 78.15,50.25 78.375,49.075 L78.675,47.125 L81.95,47.125 L81.95,50.75 L84,50.75 L84,53.3 L81.875,53.3 L81.875,59 C81.875,60.175 82.325,60.525 83.2,60.525 C83.625,60.525 83.925,60.425 84.175,60.35 L84.175,63 C83.55,63.175 82.575,63.35 81.575,63.35 Z M90.5,63.35 C87.275,63.35 86.05,62.125 86.05,58.975 L86.05,53.3 L84.65,53.3 L84.65,51.025 L85.225,50.95 C86.35,50.7 87.075,50.25 87.3,49.075 L87.6,47.125 L90.875,47.125 L90.875,50.75 L92.925,50.75 L92.925,53.3 L90.8,53.3 L90.8,59 C90.8,60.175 91.25,60.525 92.125,60.525 C92.55,60.525 92.85,60.425 93.1,60.35 L93.1,63 C92.475,63.175 91.5,63.35 90.5,63.35 Z M99.825,50.45 L99.825,52.95 C100.325,51.175 101.45,50.4 103.025,50.4 C105,50.4 106.2,51.875 106.2,54.15 C106.2,56.125 105.1,57.325 103.425,57.325 C102.275,57.325 101.325,56.525 101.325,55.425 C101.325,54.65 101.675,54.025 102.3,53.6 C102.125,53.5 101.9,53.45 101.675,53.45 C100.4,53.45 99.9,54.575 99.825,56.775 L99.825,59.675 C99.825,60.35 100,60.45 100.325,60.45 L101.075,60.45 L101.075,63 L93.8,63 L93.8,60.45 L94.45,60.45 C94.775,60.45 94.95,60.35 94.95,59.675 L94.95,54.2 C94.95,53.5 94.85,53.3 94.45,53.3 L93.7,53.3 L93.7,50.75 L96.725,50.75 C98.05,50.75 99.175,50.6 99.825,50.45 Z M112.55,52.85 C112.15,52.85 111.825,52.9 111.575,52.95 C111.675,53.25 111.75,53.55 111.75,53.9 C111.75,55.075 110.775,55.95 109.45,55.95 C107.9,55.95 107.025,55.175 107.025,53.75 C107.025,51.525 109.275,50.4 113.3,50.4 C117.7,50.4 119.325,51.55 119.325,54.725 L119.325,59.675 C119.325,60.25 119.45,60.45 119.8,60.45 L120.45,60.45 L120.45,63 L115.6,63 C115.025,62.45 114.775,61.975 114.5,61.125 C113.9,62.4 112.225,63.35 110.425,63.35 C108.05,63.35 106.65,61.95 106.65,60.05 C106.65,56.6 110.9,56.05 114.45,55.425 L114.45,54.75 C114.45,53.45 113.925,52.85 112.55,52.85 Z M112.45,60.6 C113.775,60.6 114.45,59.6 114.45,58.15 L114.45,57.25 C112.725,57.525 111.2,57.925 111.2,59.35 C111.2,60.1 111.725,60.6 112.45,60.6 Z M128.4,55.475 C128.4,54.4 129,53.625 130.1,53.375 C129.725,53.05 129.15,52.9 128.375,52.9 C126.65,52.9 125.675,53.95 125.675,56.4 L125.675,56.975 C125.675,59.35 126.625,60.375 128.275,60.375 C129.6,60.375 130.4,59.725 130.9,58.525 L133.4,59.95 C132.6,61.925 130.95,63.35 127.65,63.35 C123.3,63.35 120.725,60.975 120.725,56.825 C120.725,52.825 123.325,50.4 127.625,50.4 C131.375,50.4 133.425,51.925 133.425,54.625 C133.425,56.35 132.45,57.575 130.775,57.575 C129.275,57.575 128.4,56.625 128.4,55.475 Z M139.475,63.35 C136.25,63.35 135.025,62.125 135.025,58.975 L135.025,53.3 L133.625,53.3 L133.625,51.025 L134.2,50.95 C135.325,50.7 136.05,50.25 136.275,49.075 L136.575,47.125 L139.85,47.125 L139.85,50.75 L141.9,50.75 L141.9,53.3 L139.775,53.3 L139.775,59 C139.775,60.175 140.225,60.525 141.1,60.525 C141.525,60.525 141.825,60.425 142.075,60.35 L142.075,63 C141.45,63.175 140.475,63.35 139.475,63.35 Z M146.45,50.025 C144.9,50.025 143.875,49.075 143.875,47.725 C143.875,46.375 144.9,45.425 146.45,45.425 C148,45.425 149.025,46.375 149.025,47.725 C149.025,49.075 148,50.025 146.45,50.025 Z M142.875,63 L142.875,60.45 L143.55,60.45 C143.9,60.45 144.025,60.275 144.025,59.675 L144.025,54.3 C144.025,53.55 143.9,53.3 143.475,53.3 L142.875,53.3 L142.875,50.75 L145.8,50.75 C147.15,50.75 148.275,50.6 148.925,50.45 L148.925,59.675 C148.925,60.275 149.05,60.45 149.4,60.45 L150.025,60.45 L150.025,63 L142.875,63 Z M157.525,63.35 C153.4,63.35 150.7,60.775 150.7,56.875 C150.7,53 153.475,50.4 157.65,50.4 C161.725,50.4 164.45,52.975 164.45,56.875 C164.45,60.75 161.7,63.35 157.525,63.35 Z M157.575,60.675 C158.975,60.675 159.55,59.8 159.55,57.1 L159.55,56.65 C159.55,53.925 158.975,53.05 157.575,53.05 C156.2,53.05 155.6,53.925 155.6,56.65 L155.6,57.1 C155.6,59.825 156.175,60.675 157.575,60.675 Z M170.925,50.45 L170.925,52.55 C171.675,51.1 173.05,50.4 174.95,50.4 C177.6,50.4 178.975,51.95 178.975,55.3 L178.975,59.675 C178.975,60.35 179.15,60.45 179.475,60.45 L180.125,60.45 L180.125,63 L173.075,63 L173.075,60.45 L173.6,60.45 C173.925,60.45 174.1,60.35 174.1,59.675 L174.1,55.375 C174.1,53.95 173.7,53.425 172.7,53.425 C171.575,53.425 171,54.2 171,56.125 L171,59.675 C171,60.35 171.175,60.45 171.5,60.45 L172.025,60.45 L172.025,63 L164.975,63 L164.975,60.45 L165.625,60.45 C165.95,60.45 166.125,60.35 166.125,59.675 L166.125,54.2 C166.125,53.5 166,53.3 165.625,53.3 L164.975,53.3 L164.975,50.75 L167.85,50.75 C169.175,50.75 170.3,50.6 170.925,50.45 Z M191.45,63.275 C189.05,63.275 188.075,62.3 188.075,59.825 L188.075,52.325 L186.25,52.325 L186.25,51.025 L187.45,50.95 C188.125,50.85 188.475,50.625 188.55,49.9 L188.775,47.7 L190.45,47.7 L190.45,50.875 L193.125,50.875 L193.125,52.325 L190.375,52.325 L190.375,59.8 C190.375,61.175 190.9,61.7 192.075,61.7 C192.675,61.7 193.025,61.575 193.35,61.475 L193.35,62.975 C192.975,63.1 192.275,63.275 191.45,63.275 Z M200.15,63.3 C196.45,63.3 193.95,60.725 193.95,56.925 C193.95,53.175 196.5,50.575 200.25,50.575 C203.9,50.575 206.4,53.15 206.4,56.925 C206.4,60.7 203.875,63.3 200.15,63.3 Z M200.175,61.775 C202.65,61.775 204.025,60.075 204.025,57.05 L204.025,56.825 C204.025,53.75 202.65,52.1 200.2,52.1 C197.725,52.1 196.35,53.775 196.35,56.825 L196.35,57.05 C196.35,60.1 197.7,61.775 200.175,61.775 Z M83.9,88.275 C81.5,88.275 80.525,87.3 80.525,84.825 L80.525,77.325 L78.7,77.325 L78.7,76.025 L79.9,75.95 C80.575,75.85 80.925,75.625 81,74.9 L81.225,72.7 L82.9,72.7 L82.9,75.875 L85.575,75.875 L85.575,77.325 L82.825,77.325 L82.825,84.8 C82.825,86.175 83.35,86.7 84.525,86.7 C85.125,86.7 85.475,86.575 85.8,86.475 L85.8,87.975 C85.425,88.1 84.725,88.275 83.9,88.275 Z M90.525,71.175 L90.525,78.375 C91.35,76.525 92.825,75.575 94.775,75.575 C97.325,75.575 98.625,77 98.625,79.85 L98.625,85.975 C98.625,86.475 98.75,86.55 99,86.55 L100.4,86.55 L100.4,88 L94.6,88 L94.6,86.55 L95.875,86.55 C96.125,86.55 96.25,86.475 96.25,85.975 L96.25,79.95 C96.25,78.1 95.55,77.25 93.9,77.25 C91.85,77.25 90.525,79.025 90.525,82.2 L90.525,85.975 C90.525,86.475 90.65,86.55 90.875,86.55 L92.225,86.55 L92.225,88 L86.375,88 L86.375,86.55 L87.775,86.55 C88.025,86.55 88.15,86.475 88.15,85.975 L88.15,73.525 C88.15,73 88.05,72.85 87.775,72.85 L86.325,72.85 L86.325,71.4 L87.75,71.4 C88.875,71.4 90,71.275 90.525,71.175 Z M112.95,82.35 L103.5,82.35 C103.55,84.925 104.95,86.775 107.575,86.775 C109.675,86.775 110.85,85.7 111.4,83.95 L112.85,84.55 C112.25,86.675 110.525,88.3 107.4,88.3 C103.35,88.3 101.075,85.625 101.075,81.925 C101.075,78.2 103.575,75.575 107.225,75.575 C110.825,75.575 112.95,77.95 112.95,81.75 L112.95,82.35 Z M107.225,77.05 C105,77.05 103.675,78.475 103.5,81.025 L110.575,81.025 C110.525,78.375 109.375,77.05 107.225,77.05 Z M120.1,87.225 L120.1,84.075 L121.95,84.075 L121.95,86.425 C122.55,86.7 123.5,86.9 124.65,86.9 C126.4,86.9 127.475,86.25 127.475,84.925 C127.475,83.5 126.1,83.15 124.325,82.8 C122.225,82.4 120.1,81.775 120.1,79.3 C120.1,77.075 121.9,75.575 125,75.575 C126.7,75.575 128.325,76.075 129.3,76.6 L129.3,79.725 L127.45,79.725 L127.45,77.5 C126.95,77.2 126.05,76.975 125.05,76.975 C123.3,76.975 122.3,77.675 122.3,78.875 C122.3,80.35 123.725,80.55 125.45,80.875 C127.65,81.3 129.675,82 129.675,84.475 C129.675,86.775 127.85,88.3 124.675,88.3 C122.925,88.3 121.25,87.8 120.1,87.225 Z M137.15,88.3 C133.45,88.3 130.95,85.725 130.95,81.925 C130.95,78.175 133.5,75.575 137.25,75.575 C140.9,75.575 143.4,78.15 143.4,81.925 C143.4,85.7 140.875,88.3 137.15,88.3 Z M137.175,86.775 C139.65,86.775 141.025,85.075 141.025,82.05 L141.025,81.825 C141.025,78.75 139.65,77.1 137.2,77.1 C134.725,77.1 133.35,78.775 133.35,81.825 L133.35,82.05 C133.35,85.1 134.7,86.775 137.175,86.775 Z M144.1,88 L144.1,86.55 L145.525,86.55 C145.725,86.55 145.875,86.475 145.875,85.975 L145.875,73.525 C145.875,73 145.775,72.85 145.525,72.85 L144.05,72.85 L144.05,71.4 L145.45,71.4 C146.6,71.4 147.725,71.275 148.25,71.175 L148.25,85.975 C148.25,86.475 148.375,86.55 148.6,86.55 L149.975,86.55 L149.975,88 L144.1,88 Z M164.5,88 L163.1,88 C161.975,88 160.85,88.125 160.325,88.225 L160.325,85.6 C159.525,87.35 158.075,88.3 156.15,88.3 C153.7,88.3 152.275,87.05 152.275,84.1 L152.275,77.9 C152.275,77.4 152.15,77.325 151.925,77.325 L150.5,77.325 L150.5,75.875 L154.675,75.875 L154.675,84.025 C154.675,86 155.55,86.65 157.025,86.65 C159.075,86.65 160.3,84.9 160.3,82.225 L160.3,77.9 C160.3,77.4 160.175,77.325 159.95,77.325 L158.45,77.325 L158.45,75.875 L162.675,75.875 L162.675,85.875 C162.675,86.4 162.775,86.55 163.05,86.55 L164.5,86.55 L164.5,88 Z M169.575,88.275 C167.175,88.275 166.2,87.3 166.2,84.825 L166.2,77.325 L164.375,77.325 L164.375,76.025 L165.575,75.95 C166.25,75.85 166.6,75.625 166.675,74.9 L166.9,72.7 L168.575,72.7 L168.575,75.875 L171.25,75.875 L171.25,77.325 L168.5,77.325 L168.5,84.8 C168.5,86.175 169.025,86.7 170.2,86.7 C170.8,86.7 171.15,86.575 171.475,86.475 L171.475,87.975 C171.1,88.1 170.4,88.275 169.575,88.275 Z M175.3,74.15 C174.35,74.15 173.7,73.425 173.7,72.525 C173.7,71.65 174.35,70.925 175.3,70.925 C176.225,70.925 176.9,71.65 176.9,72.525 C176.9,73.425 176.225,74.15 175.3,74.15 Z M172.375,88 L172.375,86.55 L173.8,86.55 C174.025,86.55 174.15,86.45 174.15,85.975 L174.15,78.325 C174.15,77.55 174.025,77.325 173.6,77.325 L172.375,77.325 L172.375,75.875 L173.725,75.875 C174.875,75.875 176,75.75 176.525,75.65 L176.525,85.975 C176.525,86.45 176.65,86.55 176.875,86.55 L178.25,86.55 L178.25,88 L172.375,88 Z M185.5,88.3 C181.8,88.3 179.3,85.725 179.3,81.925 C179.3,78.175 181.85,75.575 185.6,75.575 C189.25,75.575 191.75,78.15 191.75,81.925 C191.75,85.7 189.225,88.3 185.5,88.3 Z M185.525,86.775 C188,86.775 189.375,85.075 189.375,82.05 L189.375,81.825 C189.375,78.75 188,77.1 185.55,77.1 C183.075,77.1 181.7,78.775 181.7,81.825 L181.7,82.05 C181.7,85.1 183.05,86.775 185.525,86.775 Z M196.8,75.65 L196.8,78.475 C197.6,76.575 199.1,75.575 201.075,75.575 C203.625,75.575 204.925,77.025 204.925,79.9 L204.925,85.975 C204.925,86.475 205.05,86.55 205.3,86.55 L206.7,86.55 L206.7,88 L200.9,88 L200.9,86.55 L202.2,86.55 C202.425,86.55 202.55,86.475 202.55,85.975 L202.55,79.975 C202.55,78.1 201.85,77.25 200.2,77.25 C198.15,77.25 196.825,78.975 196.825,82.175 L196.825,85.975 C196.825,86.475 196.95,86.55 197.2,86.55 L198.525,86.55 L198.525,88 L192.675,88 L192.675,86.55 L194.075,86.55 C194.325,86.55 194.45,86.475 194.45,85.975 L194.45,78 C194.45,77.475 194.35,77.325 194.075,77.325 L192.675,77.325 L192.675,75.875 L194.025,75.875 C195.15,75.875 196.275,75.75 196.8,75.65 Z"/>
        <path fill="#938FC2" d="M193.550253,130 L189.050253,125.5 L194,120.550253 L209.949747,136.5 L194,152.449747 L189.050253,147.5 L193.550253,143 L57,143 L57,130 L193.550253,130 Z M200,136.449747 L200,136.550253 L200.050253,136.5 L200,136.449747 Z"/>
        <path fill="#605AA4" d="M192.275,23.9 C191.4,23.9 190.8,24.15 190.35,24.5 C191.175,24.85 191.675,25.625 191.675,26.575 C191.675,27.9 190.65,28.975 189.125,28.975 C187.425,28.975 186.2,27.85 186.2,25.95 C186.2,23.025 188.675,21.05 193.2,21.05 C197.7,21.05 200.125,23.025 200.125,26.55 C200.125,32.45 192.225,31.35 190.05,34.45 L195.475,34.45 C196.475,34.45 196.75,34.275 196.8,33.425 L196.925,32.3 L199.725,32.3 L199.725,38 L186.075,38 L186.15,36.4 C186.6,29.775 194.875,30.05 194.875,26.5 C194.875,24.825 193.975,23.9 192.275,23.9 Z M203.775,38.35 C202.125,38.35 201.05,37.3 201.05,35.725 C201.05,34.175 202.125,33.1 203.775,33.1 C205.4,33.1 206.5,34.175 206.5,35.725 C206.5,37.3 205.4,38.35 203.775,38.35 Z"/>
      </g>
      <g transform="translate(43)">
        <polygon fill="#605AA4" fill-opacity=".2" points="0 0 224 0 224 160 0 160"/>
        <path fill="#807BB6" fill-opacity=".3" d="M51.8690925,160 L0,160 L0,104.933178 C5.62196528,101.790928 12.1018358,100 19,100 C40.5391052,100 58,117.460895 58,139 C58,146.731854 55.7500211,153.938197 51.8690925,160 Z"/>
        <path fill="#938FC2" d="M150.550253,130 L146.050253,125.5 L151,120.550253 L166.949747,136.5 L151,152.449747 L146.050253,147.5 L150.550253,143 L14,143 L14,130 L150.550253,130 Z M157,136.449747 L157,136.550253 L157.050253,136.5 L157,136.449747 Z"/>
        <path fill="#605AA4" d="M23.175 65.35C20.375 65.35 18.275 64.75 16.8 64.1L16.8 59.925 20.7 59.925 20.7 62.225C21.3 62.45 22.2 62.6 23.1 62.6 24.45 62.6 25.35 62 25.35 60.975 25.35 59.55 24.2 59.375 21.725 58.775 18.775 58.025 16.675 56.825 16.675 53.675 16.675 50.225 19.2 48.05 23.825 48.05 26.4 48.05 28.325 48.575 29.775 49.2L29.775 53.225 25.9 53.225 25.9 51.2C25.4 51.025 24.65 50.9 23.875 50.9 22.4 50.9 21.575 51.475 21.575 52.5 21.575 53.75 22.7 53.925 25.05 54.525 27.825 55.225 30.35 56.3 30.35 59.675 30.35 63.125 28.175 65.35 23.175 65.35zM36.65 65.35C33.425 65.35 32.2 64.125 32.2 60.975L32.2 55.3 30.8 55.3 30.8 53.025 31.375 52.95C32.5 52.7 33.225 52.25 33.45 51.075L33.75 49.125 37.025 49.125 37.025 52.75 39.075 52.75 39.075 55.3 36.95 55.3 36.95 61C36.95 62.175 37.4 62.525 38.275 62.525 38.7 62.525 39 62.425 39.25 62.35L39.25 65C38.625 65.175 37.65 65.35 36.65 65.35zM45.975 52.45L45.975 54.95C46.475 53.175 47.6 52.4 49.175 52.4 51.15 52.4 52.35 53.875 52.35 56.15 52.35 58.125 51.25 59.325 49.575 59.325 48.425 59.325 47.475 58.525 47.475 57.425 47.475 56.65 47.825 56.025 48.45 55.6 48.275 55.5 48.05 55.45 47.825 55.45 46.55 55.45 46.05 56.575 45.975 58.775L45.975 61.675C45.975 62.35 46.15 62.45 46.475 62.45L47.225 62.45 47.225 65 39.95 65 39.95 62.45 40.6 62.45C40.925 62.45 41.1 62.35 41.1 61.675L41.1 56.2C41.1 55.5 41 55.3 40.6 55.3L39.85 55.3 39.85 52.75 42.875 52.75C44.2 52.75 45.325 52.6 45.975 52.45zM67.925 65L64.9 65C63.575 65 62.45 65.15 61.8 65.3L61.8 63.35C61 64.7 59.675 65.35 57.875 65.35 55.175 65.35 53.85 63.85 53.85 60.5L53.85 56.075C53.85 55.4 53.675 55.3 53.35 55.3L52.7 55.3 52.7 52.75 58.725 52.75 58.725 60.425C58.725 61.875 59.175 62.325 60.15 62.325 61.275 62.325 61.8 61.55 61.8 59.775L61.8 56.075C61.8 55.4 61.625 55.3 61.3 55.3L60.375 55.3 60.375 52.75 66.675 52.75 66.675 61.55C66.675 62.25 66.8 62.45 67.175 62.45L67.925 62.45 67.925 65zM74.975 69.975C69.525 69.975 67.9 69.2 67.9 67.675 67.9 66.625 68.85 65.825 70.8 65.35 69.225 64.9 68.425 63.95 68.425 62.6 68.425 61.35 69.225 60.4 70.675 59.875 69.55 59.175 68.975 58.125 68.975 56.7 68.975 54.125 71.525 52.4 75.225 52.4 76.6 52.4 77.825 52.65 78.8 53.1 79.2 51.75 80.075 51 81.3 51 82.475 51 83.3 51.725 83.3 52.775 83.3 53.9 82.725 54.525 81.7 54.525 81.1 54.525 80.6 54.275 80.325 53.8L80.1 53.95C80.825 54.65 81.25 55.575 81.25 56.675 81.25 59.375 78.875 60.85 75 60.85 73.95 60.85 73 60.75 72.225 60.55 71.775 60.625 71.6 60.775 71.6 61.075 71.6 61.55 71.925 61.725 72.95 61.725 74.775 61.725 76.9 61.65 78.5 61.65 81.375 61.65 82.675 63.2 82.675 65.375 82.675 68.375 80.375 69.975 74.975 69.975zM75.05 58.75C76.075 58.75 76.55 58.2 76.55 56.925L76.55 56.4C76.55 55.125 76.075 54.55 75.1 54.55 74.075 54.55 73.6 55.175 73.6 56.425L73.6 56.975C73.6 58.175 74.075 58.75 75.05 58.75zM77.375 65.9L72.85 65.9C71.975 66.15 71.5 66.6 71.5 67.15 71.5 67.925 72.45 68.125 75.175 68.125 78.1 68.125 79.225 67.7 79.225 66.825 79.225 66.125 78.925 65.9 77.375 65.9zM89.65 69.975C84.2 69.975 82.575 69.2 82.575 67.675 82.575 66.625 83.525 65.825 85.475 65.35 83.9 64.9 83.1 63.95 83.1 62.6 83.1 61.35 83.9 60.4 85.35 59.875 84.225 59.175 83.65 58.125 83.65 56.7 83.65 54.125 86.2 52.4 89.9 52.4 91.275 52.4 92.5 52.65 93.475 53.1 93.875 51.75 94.75 51 95.975 51 97.15 51 97.975 51.725 97.975 52.775 97.975 53.9 97.4 54.525 96.375 54.525 95.775 54.525 95.275 54.275 95 53.8L94.775 53.95C95.5 54.65 95.925 55.575 95.925 56.675 95.925 59.375 93.55 60.85 89.675 60.85 88.625 60.85 87.675 60.75 86.9 60.55 86.45 60.625 86.275 60.775 86.275 61.075 86.275 61.55 86.6 61.725 87.625 61.725 89.45 61.725 91.575 61.65 93.175 61.65 96.05 61.65 97.35 63.2 97.35 65.375 97.35 68.375 95.05 69.975 89.65 69.975zM89.725 58.75C90.75 58.75 91.225 58.2 91.225 56.925L91.225 56.4C91.225 55.125 90.75 54.55 89.775 54.55 88.75 54.55 88.275 55.175 88.275 56.425L88.275 56.975C88.275 58.175 88.75 58.75 89.725 58.75zM92.05 65.9L87.525 65.9C86.65 66.15 86.175 66.6 86.175 67.15 86.175 67.925 87.125 68.125 89.85 68.125 92.775 68.125 93.9 67.7 93.9 66.825 93.9 66.125 93.6 65.9 92.05 65.9zM97.95 65L97.95 62.45 98.625 62.45C98.925 62.45 99.1 62.35 99.1 61.675L99.1 51.85C99.1 51.15 99 50.95 98.625 50.95L97.85 50.95 97.85 48.4 100.875 48.4C102.225 48.4 103.35 48.25 104 48.1L104 61.675C104 62.35 104.175 62.45 104.475 62.45L105.025 62.45 105.025 65 97.95 65zM118.45 59.775L110.475 59.775C110.55 61.6 111.6 62.45 113.3 62.45 114.825 62.45 115.625 61.65 116.075 60.7L118.35 62.325C117.45 64.05 115.675 65.35 112.325 65.35 107.875 65.35 105.475 62.7 105.475 58.85 105.475 54.975 108.1 52.4 112.2 52.4 116.45 52.4 118.45 54.875 118.45 59.275L118.45 59.775zM112.225 54.925C111.05 54.925 110.5 55.7 110.4 57.675L113.825 57.675C113.775 55.65 113.3 54.925 112.225 54.925zM131.35 65.3C127.65 65.3 125.15 62.725 125.15 58.925 125.15 55.175 127.7 52.575 131.45 52.575 135.1 52.575 137.6 55.15 137.6 58.925 137.6 62.7 135.075 65.3 131.35 65.3zM131.375 63.775C133.85 63.775 135.225 62.075 135.225 59.05L135.225 58.825C135.225 55.75 133.85 54.1 131.4 54.1 128.925 54.1 127.55 55.775 127.55 58.825L127.55 59.05C127.55 62.1 128.9 63.775 131.375 63.775zM138.075 54.325L138.075 52.875 139.825 52.875 139.825 51.6C139.825 48.975 140.85 47.95 143.2 47.95 144.075 47.95 144.8 48.175 145.125 48.375L145.125 49.825C144.825 49.65 144.35 49.525 143.825 49.525 142.55 49.525 142.075 50.025 142.125 51.9L142.125 52.875 144.55 52.875 144.55 54.325 142.15 54.325 142.15 62.975C142.15 63.475 142.275 63.55 142.525 63.55L144.1 63.55 144.1 65 138.15 65 138.15 63.55 139.45 63.55C139.7 63.55 139.825 63.475 139.825 62.975L139.825 54.325 138.075 54.325zM21.375 90.275C18.975 90.275 18 89.3 18 86.825L18 79.325 16.175 79.325 16.175 78.025 17.375 77.95C18.05 77.85 18.4 77.625 18.475 76.9L18.7 74.7 20.375 74.7 20.375 77.875 23.05 77.875 23.05 79.325 20.3 79.325 20.3 86.8C20.3 88.175 20.825 88.7 22 88.7 22.6 88.7 22.95 88.575 23.275 88.475L23.275 89.975C22.9 90.1 22.2 90.275 21.375 90.275zM28 73.175L28 80.375C28.825 78.525 30.3 77.575 32.25 77.575 34.8 77.575 36.1 79 36.1 81.85L36.1 87.975C36.1 88.475 36.225 88.55 36.475 88.55L37.875 88.55 37.875 90 32.075 90 32.075 88.55 33.35 88.55C33.6 88.55 33.725 88.475 33.725 87.975L33.725 81.95C33.725 80.1 33.025 79.25 31.375 79.25 29.325 79.25 28 81.025 28 84.2L28 87.975C28 88.475 28.125 88.55 28.35 88.55L29.7 88.55 29.7 90 23.85 90 23.85 88.55 25.25 88.55C25.5 88.55 25.625 88.475 25.625 87.975L25.625 75.525C25.625 75 25.525 74.85 25.25 74.85L23.8 74.85 23.8 73.4 25.225 73.4C26.35 73.4 27.475 73.275 28 73.175zM50.425 84.35L40.975 84.35C41.025 86.925 42.425 88.775 45.05 88.775 47.15 88.775 48.325 87.7 48.875 85.95L50.325 86.55C49.725 88.675 48 90.3 44.875 90.3 40.825 90.3 38.55 87.625 38.55 83.925 38.55 80.2 41.05 77.575 44.7 77.575 48.3 77.575 50.425 79.95 50.425 83.75L50.425 84.35zM44.7 79.05C42.475 79.05 41.15 80.475 40.975 83.025L48.05 83.025C48 80.375 46.85 79.05 44.7 79.05zM57.25 90L57.25 88.55 58.65 88.55C58.9 88.55 59.025 88.475 59.025 87.975L59.025 80C59.025 79.475 58.925 79.325 58.65 79.325L57.25 79.325 57.25 77.875 58.575 77.875C59.725 77.875 60.85 77.75 61.35 77.65L61.35 80.075C62.1 78.45 63.275 77.575 65.075 77.575 67.025 77.575 68.25 78.5 68.65 80.45 69.325 78.575 70.575 77.575 72.55 77.575 75.2 77.575 76.475 79.05 76.475 82.225L76.475 87.975C76.475 88.475 76.6 88.55 76.85 88.55L78.25 88.55 78.25 90 72.475 90 72.475 88.55 73.75 88.55C73.975 88.55 74.1 88.475 74.1 87.975L74.1 82.375C74.1 80.225 73.4 79.275 71.725 79.275 69.9 79.275 68.95 80.775 68.95 83.45L68.95 87.975C68.95 88.475 69.075 88.55 69.3 88.55L70.725 88.55 70.725 90 64.95 90 64.95 88.55 66.2 88.55C66.425 88.55 66.575 88.475 66.575 87.975L66.575 82.075C66.575 80.225 65.75 79.275 64.2 79.275 62.375 79.275 61.4 80.775 61.4 83.45L61.4 87.975C61.4 88.475 61.525 88.55 61.775 88.55L63.1 88.55 63.1 90 57.25 90zM85.175 90.3C81.475 90.3 78.975 87.725 78.975 83.925 78.975 80.175 81.525 77.575 85.275 77.575 88.925 77.575 91.425 80.15 91.425 83.925 91.425 87.7 88.9 90.3 85.175 90.3zM85.2 88.775C87.675 88.775 89.05 87.075 89.05 84.05L89.05 83.825C89.05 80.75 87.675 79.1 85.225 79.1 82.75 79.1 81.375 80.775 81.375 83.825L81.375 84.05C81.375 87.1 82.725 88.775 85.2 88.775zM92.35 90L92.35 88.55 93.75 88.55C94 88.55 94.125 88.475 94.125 87.975L94.125 80C94.125 79.475 94.025 79.325 93.75 79.325L92.35 79.325 92.35 77.875 93.675 77.875C94.825 77.875 95.95 77.75 96.45 77.65L96.45 80.075C97.2 78.45 98.375 77.575 100.175 77.575 102.125 77.575 103.35 78.5 103.75 80.45 104.425 78.575 105.675 77.575 107.65 77.575 110.3 77.575 111.575 79.05 111.575 82.225L111.575 87.975C111.575 88.475 111.7 88.55 111.95 88.55L113.35 88.55 113.35 90 107.575 90 107.575 88.55 108.85 88.55C109.075 88.55 109.2 88.475 109.2 87.975L109.2 82.375C109.2 80.225 108.5 79.275 106.825 79.275 105 79.275 104.05 80.775 104.05 83.45L104.05 87.975C104.05 88.475 104.175 88.55 104.4 88.55L105.825 88.55 105.825 90 100.05 90 100.05 88.55 101.3 88.55C101.525 88.55 101.675 88.475 101.675 87.975L101.675 82.075C101.675 80.225 100.85 79.275 99.3 79.275 97.475 79.275 96.5 80.775 96.5 83.45L96.5 87.975C96.5 88.475 96.625 88.55 96.875 88.55L98.2 88.55 98.2 90 92.35 90zM125.95 84.35L116.5 84.35C116.55 86.925 117.95 88.775 120.575 88.775 122.675 88.775 123.85 87.7 124.4 85.95L125.85 86.55C125.25 88.675 123.525 90.3 120.4 90.3 116.35 90.3 114.075 87.625 114.075 83.925 114.075 80.2 116.575 77.575 120.225 77.575 123.825 77.575 125.95 79.95 125.95 83.75L125.95 84.35zM120.225 79.05C118 79.05 116.675 80.475 116.5 83.025L123.575 83.025C123.525 80.375 122.375 79.05 120.225 79.05zM131.075 77.65L131.075 80.475C131.875 78.575 133.375 77.575 135.35 77.575 137.9 77.575 139.2 79.025 139.2 81.9L139.2 87.975C139.2 88.475 139.325 88.55 139.575 88.55L140.975 88.55 140.975 90 135.175 90 135.175 88.55 136.475 88.55C136.7 88.55 136.825 88.475 136.825 87.975L136.825 81.975C136.825 80.1 136.125 79.25 134.475 79.25 132.425 79.25 131.1 80.975 131.1 84.175L131.1 87.975C131.1 88.475 131.225 88.55 131.475 88.55L132.8 88.55 132.8 90 126.95 90 126.95 88.55 128.35 88.55C128.6 88.55 128.725 88.475 128.725 87.975L128.725 80C128.725 79.475 128.625 79.325 128.35 79.325L126.95 79.325 126.95 77.875 128.3 77.875C129.425 77.875 130.55 77.75 131.075 77.65zM146.05 90.275C143.65 90.275 142.675 89.3 142.675 86.825L142.675 79.325 140.85 79.325 140.85 78.025 142.05 77.95C142.725 77.85 143.075 77.625 143.15 76.9L143.375 74.7 145.05 74.7 145.05 77.875 147.725 77.875 147.725 79.325 144.975 79.325 144.975 86.8C144.975 88.175 145.5 88.7 146.675 88.7 147.275 88.7 147.625 88.575 147.95 88.475L147.95 89.975C147.575 90.1 146.875 90.275 146.05 90.275zM17.675 27.225L16.75 27.225 16.75 24.275 17.5 24.275C19.525 24.275 20.05 23.45 20.65 21.375L24.4 21.375 24.4 34.675C24.4 35.325 24.6 35.45 24.9 35.45L26.7 35.45 26.7 38 17 38 17 35.45 19.025 35.45C19.35 35.45 19.525 35.325 19.525 34.675L19.525 26.975C18.975 27.15 18.375 27.225 17.675 27.225zM30.525 38.35C28.875 38.35 27.8 37.3 27.8 35.725 27.8 34.175 28.875 33.1 30.525 33.1 32.15 33.1 33.25 34.175 33.25 35.725 33.25 37.3 32.15 38.35 30.525 38.35z"/>
      </g>
    </g>
  </g>
</svg>
