<svg xmlns="http://www.w3.org/2000/svg" xmlns:xlink="http://www.w3.org/1999/xlink" width="572" height="372" viewBox="0 0 572 372">
  <defs>
    <rect id="2019-02-01-interview-and-timeline-diagram-01-a" width="572" height="372" rx="3"/>
    <rect id="2019-02-01-interview-and-timeline-diagram-01-b" width="572" height="372" rx="3"/>
  </defs>
  <g fill="none" fill-rule="evenodd">
    <rect width="567" height="367" x="2.5" y="2.5" stroke="#979797" stroke-width="5" rx="3"/>
    <mask id="2019-02-01-interview-and-timeline-diagram-01-c" fill="#fff">
      <use xlink:href="#2019-02-01-interview-and-timeline-diagram-01-b"/>
    </mask>
    <rect width="567" height="367" x="2.5" y="2.5" stroke="#979797" stroke-width="5" rx="3"/>
    <path fill="#605AA4" d="M435.375 248.7C435.025 251.05 433.475 253 430.4 253L427.2 253 426.125 259 424.75 259 427.4 244 431.625 244C434.675 244 435.75 246.325 435.375 248.7zM434.05 248.525C434.275 246.95 433.7 245.2 431.4 245.2L428.55 245.2 427.4 251.8 430.45 251.8C432.775 251.8 433.8 250.1 434.05 248.525zM439.875 259.2C437.9 259.2 436.875 257.95 436.875 256.2 436.875 254.15 438.075 251.15 438.075 249.625 438.075 249.075 437.825 248.9 437.375 248.9 437.175 248.9 436.925 248.975 436.725 249.05L436.725 248.425C437.125 248.2 437.55 248.025 438.1 248.025 438.9 248.025 439.4 248.575 439.4 249.475 439.4 251.05 438.2 254.025 438.2 255.85 438.2 257.325 438.975 257.975 440.3 257.975 442.025 257.975 444.375 256.25 444.95 253.025L445.8 248.2 447.125 248.2 445.575 257.1C445.425 258 445.6 258.325 446.225 258.325 446.45 258.325 446.7 258.25 446.875 258.175L446.875 258.8C446.5 259.05 446.05 259.2 445.5 259.2 444.55 259.2 443.875 258.475 444.4 256.375 443.375 258.15 441.55 259.2 439.875 259.2zM457.5 249.725C457.5 250.55 456.85 251.375 455.95 251.4L455.8 251.175C456.125 250.925 456.275 250.55 456.275 250.225 456.275 249.65 455.85 249.175 455.025 249.175 453.7 249.175 451.825 251.05 451.275 254.225L450.45 259 449.125 259 450.675 250.1C450.825 249.225 450.65 248.875 450.025 248.875 449.8 248.875 449.55 248.95 449.375 249.025L449.375 248.4C449.75 248.15 450.2 248 450.75 248 451.675 248 452.35 248.675 451.875 250.75 452.675 249.075 454.025 248 455.4 248 456.825 248 457.5 248.825 457.5 249.725zM466.725 248.95L466.525 250.15C465.825 249.575 464.875 249.075 463.7 249.075 461.3 249.075 459.4 250.825 459 253.425 458.575 256.2 460 258.125 462.6 258.125 463.725 258.125 464.7 257.575 465.4 257.075L465.75 257.975C464.975 258.7 463.75 259.3 462.175 259.3 459.05 259.3 457.2 256.65 457.675 253.4 458.15 250.075 460.7 247.9 463.65 247.9 464.925 247.9 466.075 248.35 466.725 248.95zM475.05 248C477.025 248 478.05 249.25 478.05 251 478.05 253.05 477 256.05 477 257.575 477 258.125 477.25 258.3 477.7 258.3 477.9 258.3 478.15 258.225 478.35 258.15L478.35 258.775C477.95 259 477.525 259.175 476.975 259.175 476.175 259.175 475.675 258.625 475.675 257.725 475.675 256.15 476.725 253.175 476.725 251.35 476.725 249.875 475.95 249.225 474.625 249.225 472.9 249.225 470.525 250.95 469.975 254.175L469.125 259 467.8 259 470.425 243.9 471.8 243.675 470.525 250.825C471.55 249.05 473.375 248 475.05 248zM491.1 248.075L489.525 257.075C489.375 257.95 489.55 258.3 490.175 258.3 490.4 258.3 490.65 258.225 490.825 258.15L490.825 258.775C490.45 259.025 489.975 259.175 489.45 259.175 488.5 259.175 488 258.45 488.225 257.2 487.4 258.425 485.925 259.3 484.375 259.3 481.25 259.3 479.875 256.6 480.45 253.45 481.025 250.325 483.6 247.9 486.7 247.9 487.75 247.9 488.85 248.25 489.775 248.95L490.275 248.075 491.1 248.075zM489.475 250.025C488.775 249.475 487.975 249.025 486.6 249.025 484.125 249.025 482.25 251.025 481.775 253.525 481.3 256.125 482.275 258.175 484.775 258.175 486.375 258.175 488.325 256.65 488.675 254.6L489.475 250.025zM500.225 248.725L499.875 249.825C499.45 249.55 498.525 249.075 497.225 249.075 495.825 249.075 494.975 249.65 494.8 250.525 494.675 251.375 494.85 252.25 496.725 252.775 499.125 253.5 499.85 254.95 499.6 256.4 499.275 258.4 497.55 259.325 495.65 259.325 493.875 259.325 492.7 258.6 492.175 258.25L492.5 257.1C493.05 257.5 494.1 258.15 495.675 258.15 497 258.15 498.075 257.65 498.275 256.525 498.45 255.65 498.35 254.525 496.125 253.9 494 253.275 493.225 251.975 493.5 250.5 493.775 249.025 495.2 247.9 497.225 247.9 498.7 247.9 499.9 248.5 500.225 248.725zM510.35 250.225C510.15 251.8 508.075 254.1 502.775 254.775 502.875 256.975 504.2 258.15 506.125 258.15 507.325 258.15 508.475 257.75 509.425 256.9L509.775 257.775C508.825 258.725 507.375 259.3 505.75 259.3 502.65 259.3 501.075 256.35 501.55 253.5 502.1 250.175 504.8 247.9 507.625 247.9 509.35 247.9 510.525 248.9 510.35 250.225zM509.025 250.325C509.1 249.6 508.55 249.05 507.425 249.05 505.5 249.05 503.4 250.575 502.875 253.475L502.825 253.725C506.7 253.25 508.9 251.625 509.025 250.325zM245.175 175L246.55 175 246.55 182.525 253.8 175 255.5 175 248.95 181.8 256.4 190 254.6 190 248.025 182.75 246.55 184.25 246.55 190 245.175 190 245.175 175zM256.575 184.5C256.575 181.025 259.1 178.875 261.6 178.875 264.125 178.875 266.025 180.575 266.025 183 266.025 183.3 265.975 183.75 265.925 184.1L257.9 184.1C257.7 186.525 258.925 189.1 262.45 189.1 263.625 189.1 264.85 188.55 265.675 187.975L266.125 188.8C265.2 189.65 263.625 190.275 261.8 190.275 258.8 190.275 256.575 187.825 256.575 184.5zM264.725 183.075C264.95 181.35 263.65 180 261.675 180 260.025 180 258.425 180.975 258 183.075L264.725 183.075zM268.025 194.8L268.025 193.775C268.25 193.925 268.5 194 268.775 194 269.85 194 270.325 192.95 271.45 189.95L267.05 179.2 268.45 179.2 272.175 188.425 275.875 179.2 277.175 179.2 271.875 192.1C271.025 194.175 270.3 195.1 269.075 195.1 268.725 195.1 268.275 194.95 268.025 194.8zM283.8 175L292.3 175 292.3 176.225 285.175 176.225 285.175 181.5 291.05 181.5 291.05 182.725 285.175 182.725 285.175 188.775 292.3 188.775 292.3 190 283.8 190 283.8 175zM293.175 179.2L294.575 179.2 298.3 188.175 302 179.2 303.3 179.2 298.75 190 297.725 190 293.175 179.2zM304.3 184.5C304.3 181.025 306.825 178.875 309.325 178.875 311.85 178.875 313.75 180.575 313.75 183 313.75 183.3 313.7 183.75 313.65 184.1L305.625 184.1C305.425 186.525 306.65 189.1 310.175 189.1 311.35 189.1 312.575 188.55 313.4 187.975L313.85 188.8C312.925 189.65 311.35 190.275 309.525 190.275 306.525 190.275 304.3 187.825 304.3 184.5zM312.45 183.075C312.675 181.35 311.375 180 309.4 180 307.75 180 306.15 180.975 305.725 183.075L312.45 183.075zM316.4 190L316.4 179.3 317.5 179.075 317.65 181.275C318.45 180.05 320.175 178.9 322 178.9 324.875 178.9 325.9 180.9 325.9 183.325L325.9 190 324.575 190 324.575 183.4C324.575 181.025 323.425 180.15 321.85 180.15 320.15 180.15 317.725 181.625 317.725 183.525L317.725 190 316.4 190zM331.875 190.25C330.125 190.25 329.6 189.125 329.6 186.725L329.6 180.325 327.95 180.325 327.95 179.2 329.6 179.2 329.6 176.525 330.925 176.25 330.925 179.2 333.65 179.2 333.65 180.325 330.925 180.325 330.925 187.025C330.925 188.275 331.225 189.1 332.175 189.1 332.975 189.1 333.475 188.85 333.875 188.6L334.125 189.35C333.6 189.875 332.95 190.25 331.875 190.25zM335.425 189.275L335.7 188.125C336.5 188.6 337.8 189.125 339.2 189.125 340.725 189.125 341.8 188.525 341.8 187.075 341.8 185.975 340.875 185.525 338.925 185.025 336.8 184.475 335.75 183.275 335.75 181.9 335.75 180.25 337 178.875 339.45 178.875 340.825 178.875 342.075 179.45 342.525 179.7L342.25 180.8C341.475 180.375 340.425 180.05 339.45 180.05 337.75 180.05 337.05 180.775 337.05 181.825 337.05 182.9 337.925 183.4 339.5 183.8 341.8 184.375 343.125 185.475 343.125 186.85 343.125 189.075 341.45 190.325 339.15 190.325 337.35 190.325 335.9 189.575 335.425 189.275zM127.625 58L136.125 58 136.125 59.225 129 59.225 129 64.5 134.875 64.5 134.875 65.725 129 65.725 129 73 127.625 73 127.625 58zM137.95 62.3L139.275 62.05 139.275 73 137.95 73 137.95 62.3zM137.7 58.875C137.7 58.375 138.1 57.975 138.6 57.975 139.1 57.975 139.525 58.375 139.525 58.875 139.525 59.375 139.1 59.775 138.6 59.775 138.1 59.775 137.7 59.375 137.7 58.875zM142.475 73L142.475 62.3 143.575 62.075 143.725 64.275C144.5 63.05 146.225 61.9 147.875 61.9L147.875 63.45C145.9 63.15 143.8 64.65 143.8 66.55L143.8 73 142.475 73zM149.125 72.275L149.4 71.125C150.2 71.6 151.5 72.125 152.9 72.125 154.425 72.125 155.5 71.525 155.5 70.075 155.5 68.975 154.575 68.525 152.625 68.025 150.5 67.475 149.45 66.275 149.45 64.9 149.45 63.25 150.7 61.875 153.15 61.875 154.525 61.875 155.775 62.45 156.225 62.7L155.95 63.8C155.175 63.375 154.125 63.05 153.15 63.05 151.45 63.05 150.75 63.775 150.75 64.825 150.75 65.9 151.625 66.4 153.2 66.8 155.5 67.375 156.825 68.475 156.825 69.85 156.825 72.075 155.15 73.325 152.85 73.325 151.05 73.325 149.6 72.575 149.125 72.275zM162.1 73.25C160.35 73.25 159.825 72.125 159.825 69.725L159.825 63.325 158.175 63.325 158.175 62.2 159.825 62.2 159.825 59.525 161.15 59.25 161.15 62.2 163.875 62.2 163.875 63.325 161.15 63.325 161.15 70.025C161.15 71.275 161.45 72.1 162.4 72.1 163.2 72.1 163.7 71.85 164.1 71.6L164.35 72.35C163.825 72.875 163.175 73.25 162.1 73.25zM175.15 59.225L169.8 59.225 169.8 58 181.875 58 181.875 59.225 176.525 59.225 176.525 73 175.15 73 175.15 59.225zM183.7 57.875L185.025 57.625 185.025 64.15C185.85 62.975 187.525 61.9 189.3 61.9 192.175 61.9 193.2 63.9 193.2 66.325L193.2 73 191.875 73 191.875 66.4C191.875 64.025 190.725 63.15 189.15 63.15 187.45 63.15 185.025 64.625 185.025 66.525L185.025 73 183.7 73 183.7 57.875zM195.625 67.6C195.625 64.45 198.075 61.85 201.375 61.85 204.675 61.85 207.125 64.45 207.125 67.6 207.125 70.75 204.675 73.35 201.375 73.35 198.075 73.35 195.625 70.75 195.625 67.6zM205.8 67.6C205.8 64.95 203.95 63.05 201.375 63.05 198.8 63.05 196.95 64.95 196.95 67.6 196.95 70.25 198.8 72.15 201.375 72.15 203.95 72.15 205.8 70.25 205.8 67.6zM217.725 71.05C216.9 72.225 215.225 73.3 213.45 73.3 210.575 73.3 209.55 71.3 209.55 68.875L209.55 62.2 210.875 62.2 210.875 68.8C210.875 71.175 212.025 72.05 213.6 72.05 215.3 72.05 217.725 70.575 217.725 68.675L217.725 62.2 219.05 62.2 219.05 71.325C219.05 71.95 219.275 72.225 219.725 72.225 220 72.225 220.2 72.15 220.375 72.05L220.375 72.85C220.15 73.05 219.8 73.2 219.35 73.2 218.375 73.2 217.725 72.675 217.725 71.3L217.725 71.05zM221.475 75.55C221.475 74.65 222.175 73.85 222.85 73.7L223.575 74C223.2 74.175 222.7 74.625 222.7 75.175 222.7 76.325 224.225 76.95 226.35 76.95 228.9 76.95 230 75.925 230 74.8 230 73.575 229.025 72.925 226.025 72.925 223.975 72.925 222.25 72.525 222.25 70.85 222.25 70.25 222.675 69.325 224.175 69.025 222.875 68.45 222.05 67.175 222.05 65.7 222.05 63.525 223.8 61.9 226.275 61.9 227.475 61.9 227.975 62.2 229.025 62.2L231.5 62.2 231.5 63.325 229.45 63.325C230.15 64.075 230.475 64.675 230.475 65.7 230.475 67.775 228.9 69.325 226.7 69.475 224 69.65 223.45 70 223.45 70.675 223.45 71.15 223.9 71.675 226.5 71.7 230.175 71.725 231.3 73 231.3 74.7 231.3 76.675 229.325 78.1 226.35 78.1 223.275 78.1 221.475 76.875 221.475 75.55zM229.225 65.7C229.225 64.05 228.075 62.85 226.275 62.85 224.45 62.85 223.3 64.05 223.3 65.7 223.3 67.325 224.45 68.55 226.275 68.55 228.075 68.55 229.225 67.325 229.225 65.7zM233.85 57.875L235.175 57.625 235.175 64.15C236 62.975 237.675 61.9 239.45 61.9 242.325 61.9 243.35 63.9 243.35 66.325L243.35 73 242.025 73 242.025 66.4C242.025 64.025 240.875 63.15 239.3 63.15 237.6 63.15 235.175 64.625 235.175 66.525L235.175 73 233.85 73 233.85 57.875zM249.325 73.25C247.575 73.25 247.05 72.125 247.05 69.725L247.05 63.325 245.4 63.325 245.4 62.2 247.05 62.2 247.05 59.525 248.375 59.25 248.375 62.2 251.1 62.2 251.1 63.325 248.375 63.325 248.375 70.025C248.375 71.275 248.675 72.1 249.625 72.1 250.425 72.1 250.925 71.85 251.325 71.6L251.575 72.35C251.05 72.875 250.4 73.25 249.325 73.25z" mask="url(#2019-02-01-interview-and-timeline-diagram-01-c)"/>
    <g mask="url(#2019-02-01-interview-and-timeline-diagram-01-c)">
      <g transform="translate(46 48)">
        <path stroke="#938FC2" stroke-width="9" d="M24,16 C87.7783603,86.550387 151.111694,139.88372 214,176 C276.888306,212.11628 354.888306,239.949613 448,259.5"/>
        <polygon fill="#938FC2" points="435.062 247.205 440.273 241.93 457.062 258.93 440.273 275.93 435.062 270.654 446.642 258.93" transform="rotate(10 446.062 258.93)"/>
        <path fill="#DDD" stroke="#FFF" stroke-width="5" d="M12.2796763,29.3005682 C11.5327492,29.4328276 10.7704692,29.5 10,29.5 C3.12430541,29.5 -2.5,24.1569099 -2.5,17.5 C-2.5,11.2852927 2.40560795,6.20628958 8.66551455,5.5676953 C11.666859,2.37193591 15.9291223,0.5 20.5,0.5 C21.9334403,0.5 23.3426994,0.683233458 24.6993929,1.03988189 C26.8344855,-1.18754915 29.8075995,-2.5 33,-2.5 C35.926098,-2.5 38.6790462,-1.39854841 40.7745751,0.525805643 C42.7193007,0.655706902 44.5703706,1.27265223 46.1797837,2.29990657 C47.369036,1.77715422 48.6652156,1.5 50,1.5 C55.2467051,1.5 59.5,5.75329488 59.5,11 C59.5,11.3033891 59.485697,11.6051919 59.4573184,11.9046297 C61.3844719,13.9219798 62.5,16.6208748 62.5,19.5 C62.5,25.5751322 57.5751322,30.5 51.5,30.5 C50.8151457,30.5 50.1375774,30.4371029 49.4739087,30.313351 C47.9490871,31.0875301 46.2529565,31.5 44.5,31.5 C42.2519631,31.5 40.1079764,30.8205636 38.3092148,29.5939429 C36.1175224,30.831083 33.6087601,31.5 31,31.5 C29.2296959,31.5 27.5008472,31.1924995 25.87954,30.6015788 C24.1686596,31.1931558 22.354867,31.5 20.5,31.5 C17.5629406,31.5 14.7386974,30.7296539 12.2796763,29.3005682 Z"/>
        <rect width="8" height="35" x="136" y="108" fill="#938FC2" transform="rotate(36 140 125.5)"/>
        <rect width="8" height="35" x="257.5" y="183.332" fill="#938FC2" transform="rotate(25 261.5 200.832)"/>
        <rect width="8" height="35" x="392.021" y="230.051" fill="#938FC2" transform="rotate(15 396.021 247.55)"/>
      </g>
    </g>
  </g>
</svg>
