<svg xmlns="http://www.w3.org/2000/svg" xmlns:xlink="http://www.w3.org/1999/xlink" width="572" height="372" viewBox="0 0 572 372">
  <defs>
    <rect id="2019-02-01-interview-and-timeline-diagram-02-a" width="572" height="372" rx="3"/>
    <rect id="2019-02-01-interview-and-timeline-diagram-02-b" width="572" height="372" rx="3"/>
    <rect id="2019-02-01-interview-and-timeline-diagram-02-d" width="47.623" height="33.745"/>
    <rect id="2019-02-01-interview-and-timeline-diagram-02-f" width="47.623" height="33.745"/>
  </defs>
  <g fill="none" fill-rule="evenodd">
    <rect width="567" height="367" x="2.5" y="2.5" stroke="#979797" stroke-width="5" rx="3"/>
    <mask id="2019-02-01-interview-and-timeline-diagram-02-c" fill="#fff">
      <use xlink:href="#2019-02-01-interview-and-timeline-diagram-02-b"/>
    </mask>
    <rect width="567" height="367" x="2.5" y="2.5" stroke="#979797" stroke-width="5" rx="3"/>
    <g mask="url(#2019-02-01-interview-and-timeline-diagram-02-c)">
      <g transform="translate(46 48)">
        <path stroke="#938FC2" stroke-width="9" d="M24,16 C87.7783603,86.550387 151.111694,139.88372 214,176 C276.888306,212.11628 354.888306,239.949613 448,259.5"/>
        <polygon fill="#938FC2" points="435.062 247.205 440.273 241.93 457.062 258.93 440.273 275.93 435.062 270.654 446.642 258.93" transform="rotate(10 446.062 258.93)"/>
        <path fill="#DDD" stroke="#FFF" stroke-width="5" d="M12.2796763,29.3005682 C11.5327492,29.4328276 10.7704692,29.5 10,29.5 C3.12430541,29.5 -2.5,24.1569099 -2.5,17.5 C-2.5,11.2852927 2.40560795,6.20628958 8.66551455,5.5676953 C11.666859,2.37193591 15.9291223,0.5 20.5,0.5 C21.9334403,0.5 23.3426994,0.683233458 24.6993929,1.03988189 C26.8344855,-1.18754915 29.8075995,-2.5 33,-2.5 C35.926098,-2.5 38.6790462,-1.39854841 40.7745751,0.525805643 C42.7193007,0.655706902 44.5703706,1.27265223 46.1797837,2.29990657 C47.369036,1.77715422 48.6652156,1.5 50,1.5 C55.2467051,1.5 59.5,5.75329488 59.5,11 C59.5,11.3033891 59.485697,11.6051919 59.4573184,11.9046297 C61.3844719,13.9219798 62.5,16.6208748 62.5,19.5 C62.5,25.5751322 57.5751322,30.5 51.5,30.5 C50.8151457,30.5 50.1375774,30.4371029 49.4739087,30.313351 C47.9490871,31.0875301 46.2529565,31.5 44.5,31.5 C42.2519631,31.5 40.1079764,30.8205636 38.3092148,29.5939429 C36.1175224,30.831083 33.6087601,31.5 31,31.5 C29.2296959,31.5 27.5008472,31.1924995 25.87954,30.6015788 C24.1686596,31.1931558 22.354867,31.5 20.5,31.5 C17.5629406,31.5 14.7386974,30.7296539 12.2796763,29.3005682 Z"/>
        <rect width="8" height="35" x="136" y="108" fill="#938FC2" transform="rotate(36 140 125.5)"/>
        <rect width="8" height="35" x="257.5" y="183.332" fill="#938FC2" transform="rotate(25 261.5 200.832)"/>
        <rect width="8" height="35" x="392.021" y="230.051" fill="#938FC2" transform="rotate(15 396.021 247.55)"/>
      </g>
    </g>
    <g mask="url(#2019-02-01-interview-and-timeline-diagram-02-c)">
      <g transform="translate(260 138)">
        <g transform="translate(14 43)">
          <rect width="36" height="27" fill="#605AA4" fill-opacity=".2"/>
          <path fill="#807BB6" fill-opacity=".3" d="M16.9736822,27 L0,27 L0,8.62144816 C1.8397363,7.57272222 3.96021417,6.975 6.21757479,6.975 C13.2660483,6.975 18.9799652,12.8025737 18.9799652,19.99125 C18.9799652,22.5717563 18.2436803,24.9768732 16.9736822,27 Z"/>
          <polygon fill="#938FC2" fill-rule="nonzero" points="22.825 17.066 21.619 15.797 22.946 14.4 27.22 18.9 22.946 23.4 21.619 22.003 22.825 20.734 9.659 20.734 9.659 17.066" transform="rotate(-180 18.439 18.9)"/>
        </g>
        <g transform="translate(52 44)">
          <rect width="60.623" height="42.745" fill="#605AA4" fill-opacity=".2"/>
          <path fill="#807BB6" fill-opacity=".3" d="M23.922951,2.0348487 L23.9229543,24.7489413 L2.54240073,24.7489413 C0.942673971,22.2485544 0.0152278504,19.2760651 0.0152278504,16.0868118 C0.0152278504,7.20231099 7.21264584,-5.68434189e-14 16.0911107,-5.68434189e-14 C18.9345485,-5.68434189e-14 21.6055651,0.738726387 23.9229543,2.0348506 L23.922951,2.0348487 Z" transform="translate(36.7 17.996)"/>
          <polygon fill="#938FC2" fill-rule="nonzero" points="40.363 32.527 39.131 31.285 40.486 29.92 44.853 34.32 40.486 38.72 39.131 37.355 40.363 36.113 26.912 36.113 26.912 32.527" transform="rotate(-180 35.882 34.32)"/>
        </g>
        <g transform="translate(60 15)">
          <polygon fill="#605AA4" fill-opacity=".2" points="0 0 36 0 36 27 0 27"/>
          <path fill="#807BB6" fill-opacity=".3" d="M36.0000013,27 L19.8115519,27 C18.6003065,25.0678003 17.8980836,22.7707785 17.8980836,20.30625 C17.8980836,13.4406603 23.3476636,7.875 30.0700611,7.875 C32.2229917,7.875 34.2453723,8.4458583 36.0000013,9.44745176 L36.0000013,27 Z"/>
          <path fill="#938FC2" fill-rule="nonzero" d="M23.7031058,17.0661151 L22.497273,15.7965025 L23.8236213,14.4 L28.097561,18.9 L23.8236213,23.4 L22.497273,22.0034975 L23.7031058,20.7338849 L10.5365854,20.7338849 L10.5365854,17.0661151 L23.7031058,17.0661151 Z M25.4566833,18.8858485 L25.4566833,18.9141515 L25.470146,18.9 L25.4566833,18.8858485 Z"/>
        </g>
        <polygon fill="#605AA4" fill-opacity=".2" points="0 0 57 0 57 42 0 42"/>
        <path fill="#807BB6" fill-opacity=".3" d="M18.0132761,42 L0,42 L0,23.7517925 C1.95241535,22.7105043 4.20276698,22.1170213 6.59838506,22.1170213 C14.0785593,22.1170213 20.1424386,27.9032647 20.1424386,35.0409574 C20.1424386,37.6031623 19.3610582,39.9912217 18.0132761,42 Z"/>
        <polygon fill="#938FC2" fill-rule="nonzero" points="24.933 32.137 23.71 30.876 25.055 29.489 29.391 33.957 25.055 38.426 23.71 37.039 24.933 35.778 11.578 35.778 11.578 32.137"/>
      </g>
    </g>
    <g mask="url(#2019-02-01-interview-and-timeline-diagram-02-c)">
      <g transform="translate(149 47)">
        <g transform="translate(0 44)">
          <rect width="56" height="42" fill="#605AA4" fill-opacity=".2"/>
          <path fill="#807BB6" fill-opacity=".3" d="M26.8288409,42 L0,42 L0,13.5488086 C2.90791308,11.9253128 6.25957024,11 9.82758621,11 C20.9685027,11 30,20.0214624 30,31.15 C30,35.1447912 28.8362178,38.8680684 26.8288409,42 Z"/>
          <polygon fill="#938FC2" fill-rule="nonzero" points="35.244 26.147 33.39 24.172 35.429 22 42 29 35.429 36 33.39 33.828 35.244 31.853 15 31.853 15 26.147" transform="rotate(-180 28.5 29)"/>
        </g>
        <g transform="translate(58 44)">
          <mask id="2019-02-01-interview-and-timeline-diagram-02-e" fill="#fff">
            <use xlink:href="#2019-02-01-interview-and-timeline-diagram-02-d"/>
          </mask>
          <use fill="#605AA4" fill-opacity=".2" xlink:href="#2019-02-01-interview-and-timeline-diagram-02-d"/>
          <g fill="#807BB6" fill-opacity=".3" mask="url(#2019-02-01-interview-and-timeline-diagram-02-e)">
            <path d="M19.2994936,1.6482903 L19.2994962,20.0038978 L2.30789648,20.0038978 C1.03655817,17.9832967 0.299496187,15.5811824 0.299496187,13.0038978 C0.299496187,5.82419604 6.01944376,0.0038977763 13.0753565,0.0038977763 C15.3350996,0.0038977763 17.4578156,0.60087393 19.2994962,1.64829184 L19.2994936,1.6482903 Z" transform="translate(28.7 13.996)"/>
          </g>
          <polygon fill="#938FC2" fill-rule="nonzero" points="31.363 23.527 30.131 22.285 31.486 20.92 35.853 25.32 31.486 29.72 30.131 28.355 31.363 27.113 17.912 27.113 17.912 23.527" mask="url(#2019-02-01-interview-and-timeline-diagram-02-e)" transform="rotate(-180 26.882 25.32)"/>
        </g>
        <g transform="translate(66 4)">
          <polygon fill="#605AA4" fill-opacity=".2" points="0 0 50 0 50 38 0 38"/>
          <path fill="#807BB6" fill-opacity=".3" d="M50.0000013,38 L33.8115519,38 C32.6003065,36.0678003 31.8980836,33.7707785 31.8980836,31.30625 C31.8980836,24.4406603 37.3476636,18.875 44.0700611,18.875 C46.2229917,18.875 48.2453723,19.4458583 50.0000013,20.4474518 L50.0000013,38 Z"/>
          <path fill="#938FC2" fill-rule="nonzero" d="M37.7031058,28.0661151 L36.497273,26.7965025 L37.8236213,25.4 L42.097561,29.9 L37.8236213,34.4 L36.497273,33.0034975 L37.7031058,31.7338849 L24.5365854,31.7338849 L24.5365854,28.0661151 L37.7031058,28.0661151 Z M39.4566833,29.8858485 L39.4566833,29.9141515 L39.470146,29.9 L39.4566833,29.8858485 Z"/>
        </g>
        <g transform="translate(6)">
          <polygon fill="#605AA4" fill-opacity=".2" points="0 0 57 0 57 42 0 42"/>
          <path fill="#807BB6" fill-opacity=".3" d="M18.0132761,42 L0,42 L0,23.7517925 C1.95241535,22.7105043 4.20276698,22.1170213 6.59838506,22.1170213 C14.0785593,22.1170213 20.1424386,27.9032647 20.1424386,35.0409574 C20.1424386,37.6031623 19.3610582,39.9912217 18.0132761,42 Z"/>
          <polygon fill="#938FC2" fill-rule="nonzero" points="24.933 32.137 23.71 30.876 25.055 29.489 29.391 33.957 25.055 38.426 23.71 37.039 24.933 35.778 11.578 35.778 11.578 32.137"/>
        </g>
      </g>
    </g>
    <g mask="url(#2019-02-01-interview-and-timeline-diagram-02-c)">
      <g transform="translate(402 196)">
        <g transform="translate(14 44)">
          <rect width="36" height="27" fill="#605AA4" fill-opacity=".2"/>
          <path fill="#807BB6" fill-opacity=".3" d="M16.9736822,27 L0,27 L0,8.62144816 C1.8397363,7.57272222 3.96021417,6.975 6.21757479,6.975 C13.2660483,6.975 18.9799652,12.8025737 18.9799652,19.99125 C18.9799652,22.5717563 18.2436803,24.9768732 16.9736822,27 Z"/>
          <polygon fill="#938FC2" fill-rule="nonzero" points="22.825 17.066 21.619 15.797 22.946 14.4 27.22 18.9 22.946 23.4 21.619 22.003 22.825 20.734 9.659 20.734 9.659 17.066" transform="rotate(-180 18.439 18.9)"/>
        </g>
        <g transform="translate(52 44)">
          <mask id="2019-02-01-interview-and-timeline-diagram-02-g" fill="#fff">
            <use xlink:href="#2019-02-01-interview-and-timeline-diagram-02-f"/>
          </mask>
          <use fill="#605AA4" fill-opacity=".2" xlink:href="#2019-02-01-interview-and-timeline-diagram-02-f"/>
          <g fill="#807BB6" fill-opacity=".3" mask="url(#2019-02-01-interview-and-timeline-diagram-02-g)">
            <path d="M19.2994936,1.6482903 L19.2994962,20.0038978 L2.30789648,20.0038978 C1.03655817,17.9832967 0.299496187,15.5811824 0.299496187,13.0038978 C0.299496187,5.82419604 6.01944376,0.0038977763 13.0753565,0.0038977763 C15.3350996,0.0038977763 17.4578156,0.60087393 19.2994962,1.64829184 L19.2994936,1.6482903 Z" transform="translate(28.7 13.996)"/>
          </g>
          <polygon fill="#938FC2" fill-rule="nonzero" points="31.363 23.527 30.131 22.285 31.486 20.92 35.853 25.32 31.486 29.72 30.131 28.355 31.363 27.113 17.912 27.113 17.912 23.527" mask="url(#2019-02-01-interview-and-timeline-diagram-02-g)" transform="rotate(-180 26.882 25.32)"/>
        </g>
        <g transform="translate(60 4)">
          <polygon fill="#605AA4" fill-opacity=".2" points="0 0 50 0 50 38 0 38"/>
          <path fill="#807BB6" fill-opacity=".3" d="M50.0000013,38 L33.8115519,38 C32.6003065,36.0678003 31.8980836,33.7707785 31.8980836,31.30625 C31.8980836,24.4406603 37.3476636,18.875 44.0700611,18.875 C46.2229917,18.875 48.2453723,19.4458583 50.0000013,20.4474518 L50.0000013,38 Z"/>
          <path fill="#938FC2" fill-rule="nonzero" d="M37.7031058,28.0661151 L36.497273,26.7965025 L37.8236213,25.4 L42.097561,29.9 L37.8236213,34.4 L36.497273,33.0034975 L37.7031058,31.7338849 L24.5365854,31.7338849 L24.5365854,28.0661151 L37.7031058,28.0661151 Z M39.4566833,29.8858485 L39.4566833,29.9141515 L39.470146,29.9 L39.4566833,29.8858485 Z"/>
        </g>
        <polygon fill="#605AA4" fill-opacity=".2" points="0 0 57 0 57 42 0 42"/>
        <path fill="#807BB6" fill-opacity=".3" d="M18.0132761,42 L0,42 L0,23.7517925 C1.95241535,22.7105043 4.20276698,22.1170213 6.59838506,22.1170213 C14.0785593,22.1170213 20.1424386,27.9032647 20.1424386,35.0409574 C20.1424386,37.6031623 19.3610582,39.9912217 18.0132761,42 Z"/>
        <polygon fill="#938FC2" fill-rule="nonzero" points="24.933 32.137 23.71 30.876 25.055 29.489 29.391 33.957 25.055 38.426 23.71 37.039 24.933 35.778 11.578 35.778 11.578 32.137"/>
      </g>
    </g>
  </g>
</svg>
