<svg xmlns="http://www.w3.org/2000/svg" xmlns:xlink="http://www.w3.org/1999/xlink" width="572" height="372" viewBox="0 0 572 372">
  <defs>
    <rect id="timeline-diagram-a" width="572" height="372" rx="3"/>
    <rect id="timeline-diagram-b" width="572" height="372" rx="3"/>
  </defs>
  <g fill="none" fill-rule="evenodd">
    <rect width="567" height="367" x="2.5" y="2.5" stroke="#979797" stroke-width="5" rx="3"/>
    <mask id="timeline-diagram-c" fill="#fff">
      <use xlink:href="#timeline-diagram-b"/>
    </mask>
    <rect width="567" height="367" x="2.5" y="2.5" stroke="#979797" stroke-width="5" rx="3"/>
    <g mask="url(#timeline-diagram-c)">
      <g transform="translate(46 48)">
        <path stroke="#938FC2" stroke-width="9" d="M24,16 C87.7783603,86.550387 151.111694,139.88372 214,176 C276.888306,212.11628 354.888306,239.949613 448,259.5"/>
        <polygon fill="#938FC2" points="435.062 247.205 440.273 241.93 457.062 258.93 440.273 275.93 435.062 270.654 446.642 258.93" transform="rotate(10 446.062 258.93)"/>
        <path fill="#DDD" stroke="#FFF" stroke-width="5" d="M12.2796763,29.3005682 C11.5327492,29.4328276 10.7704692,29.5 10,29.5 C3.12430541,29.5 -2.5,24.1569099 -2.5,17.5 C-2.5,11.2852927 2.40560795,6.20628958 8.66551455,5.5676953 C11.666859,2.37193591 15.9291223,0.5 20.5,0.5 C21.9334403,0.5 23.3426994,0.683233458 24.6993929,1.03988189 C26.8344855,-1.18754915 29.8075995,-2.5 33,-2.5 C35.926098,-2.5 38.6790462,-1.39854841 40.7745751,0.525805643 C42.7193007,0.655706902 44.5703706,1.27265223 46.1797837,2.29990657 C47.369036,1.77715422 48.6652156,1.5 50,1.5 C55.2467051,1.5 59.5,5.75329488 59.5,11 C59.5,11.3033891 59.485697,11.6051919 59.4573184,11.9046297 C61.3844719,13.9219798 62.5,16.6208748 62.5,19.5 C62.5,25.5751322 57.5751322,30.5 51.5,30.5 C50.8151457,30.5 50.1375774,30.4371029 49.4739087,30.313351 C47.9490871,31.0875301 46.2529565,31.5 44.5,31.5 C42.2519631,31.5 40.1079764,30.8205636 38.3092148,29.5939429 C36.1175224,30.831083 33.6087601,31.5 31,31.5 C29.2296959,31.5 27.5008472,31.1924995 25.87954,30.6015788 C24.1686596,31.1931558 22.354867,31.5 20.5,31.5 C17.5629406,31.5 14.7386974,30.7296539 12.2796763,29.3005682 Z"/>
        <rect width="8" height="35" x="136" y="108" fill="#938FC2" transform="rotate(36 140 125.5)"/>
        <rect width="8" height="35" x="257.5" y="183.332" fill="#938FC2" transform="rotate(25 261.5 200.832)"/>
        <rect width="8" height="35" x="392.021" y="230.051" fill="#938FC2" transform="rotate(15 396.021 247.55)"/>
      </g>
    </g>
    <path fill="#605AA4" fill-rule="nonzero" d="M425.475 244L430.125 244C433.35 244 434.75 246.175 434.75 248.525 434.75 250.9 433.35 253.05 430.125 253.05L426.85 253.05 426.85 259 425.475 259 425.475 244zM430.125 251.825C432.6 251.825 433.375 250.1 433.375 248.525 433.375 246.975 432.6 245.225 430.125 245.225L426.85 245.225 426.85 251.825 430.125 251.825zM444.8 257.05C443.975 258.225 442.3 259.3 440.525 259.3 437.65 259.3 436.625 257.3 436.625 254.875L436.625 248.2 437.95 248.2 437.95 254.8C437.95 257.175 439.1 258.05 440.675 258.05 442.375 258.05 444.8 256.575 444.8 254.675L444.8 248.2 446.125 248.2 446.125 257.325C446.125 257.95 446.35 258.225 446.8 258.225 447.075 258.225 447.275 258.15 447.45 258.05L447.45 258.85C447.225 259.05 446.875 259.2 446.425 259.2 445.45 259.2 444.8 258.675 444.8 257.3L444.8 257.05zM449.675 259L449.675 248.3 450.775 248.075 450.925 250.275C451.7 249.05 453.425 247.9 455.075 247.9L455.075 249.45C453.1 249.15 451 250.65 451 252.55L451 259 449.675 259zM456.225 253.6C456.225 250.25 458.55 247.9 461.65 247.9 462.975 247.9 464.125 248.15 465.25 248.925L465.25 250.2C464.25 249.45 462.95 249.075 461.825 249.075 459.325 249.075 457.55 250.925 457.55 253.6 457.55 256.275 459.325 258.125 461.825 258.125 462.95 258.125 464.25 257.75 465.25 257L465.25 258.275C464.15 259.05 462.975 259.3 461.65 259.3 458.55 259.3 456.225 256.95 456.225 253.6zM467.8 243.875L469.125 243.625 469.125 250.15C469.95 248.975 471.625 247.9 473.4 247.9 476.275 247.9 477.3 249.9 477.3 252.325L477.3 259 475.975 259 475.975 252.4C475.975 250.025 474.825 249.15 473.25 249.15 471.55 249.15 469.125 250.625 469.125 252.525L469.125 259 467.8 259 467.8 243.875zM486.8 256.05L486.8 253.575C483.15 253.875 480.825 255.175 480.825 256.675 480.825 257.85 481.725 258.15 482.725 258.15 483.375 258.15 485.2 257.55 486.8 256.05zM488.125 257.325C488.125 257.95 488.35 258.225 488.8 258.225 489.075 258.225 489.275 258.15 489.45 258.05L489.45 258.85C489.225 259.05 488.875 259.2 488.425 259.2 487.45 259.2 486.8 258.675 486.8 257.3L486.8 257.125C485 258.85 483.35 259.275 482.15 259.275 480.725 259.275 479.575 258.3 479.575 256.725 479.575 254.175 482.975 252.825 486.8 252.45L486.8 251.6C486.8 249.825 486.05 249.1 484.225 249.1 483.175 249.1 481.475 249.675 480.325 250.35L480.325 249.075C481.25 248.575 483.2 247.875 484.425 247.875 486.575 247.875 488.125 248.725 488.125 251.6L488.125 257.325zM490.925 258.275L491.2 257.125C492 257.6 493.3 258.125 494.7 258.125 496.225 258.125 497.3 257.525 497.3 256.075 497.3 254.975 496.375 254.525 494.425 254.025 492.3 253.475 491.25 252.275 491.25 250.9 491.25 249.25 492.5 247.875 494.95 247.875 496.325 247.875 497.575 248.45 498.025 248.7L497.75 249.8C496.975 249.375 495.925 249.05 494.95 249.05 493.25 249.05 492.55 249.775 492.55 250.825 492.55 251.9 493.425 252.4 495 252.8 497.3 253.375 498.625 254.475 498.625 255.85 498.625 258.075 496.95 259.325 494.65 259.325 492.85 259.325 491.4 258.575 490.925 258.275zM500.5 253.5C500.5 250.025 503.025 247.875 505.525 247.875 508.05 247.875 509.95 249.575 509.95 252 509.95 252.3 509.9 252.75 509.85 253.1L501.825 253.1C501.625 255.525 502.85 258.1 506.375 258.1 507.55 258.1 508.775 257.55 509.6 256.975L510.05 257.8C509.125 258.65 507.55 259.275 505.725 259.275 502.725 259.275 500.5 256.825 500.5 253.5zM508.65 252.075C508.875 250.35 507.575 249 505.6 249 503.95 249 502.35 249.975 501.925 252.075L508.65 252.075zM240.1 156.225L234.75 156.225 234.75 155 246.825 155 246.825 156.225 241.475 156.225 241.475 170 240.1 170 240.1 156.225zM246.2 159.2L247.525 159.2 250.7 167.975 253.925 159.2 254.8 159.2 258.1 167.975 261.2 159.2 262.425 159.2 258.475 170 257.5 170 254.35 161.325 251.1 170 250.15 170 246.2 159.2zM263.425 164.6C263.425 161.45 265.875 158.85 269.175 158.85 272.475 158.85 274.925 161.45 274.925 164.6 274.925 167.75 272.475 170.35 269.175 170.35 265.875 170.35 263.425 167.75 263.425 164.6zM273.6 164.6C273.6 161.95 271.75 160.05 269.175 160.05 266.6 160.05 264.75 161.95 264.75 164.6 264.75 167.25 266.6 169.15 269.175 169.15 271.75 169.15 273.6 167.25 273.6 164.6zM282.175 155L283.725 155 289.6 168.175 295.475 155 296.975 155 296.975 170 295.6 170 295.6 159.8C295.6 158.625 295.625 157.375 295.625 157.35 295.6 157.4 295.1 158.725 294.65 159.75L290.1 170 289 170 284.45 159.75C283.975 158.675 283.525 157.45 283.475 157.35 283.475 157.375 283.5 158.6 283.5 159.8L283.5 170 282.175 170 282.175 155zM306.525 167.05L306.525 164.575C302.875 164.875 300.55 166.175 300.55 167.675 300.55 168.85 301.45 169.15 302.45 169.15 303.1 169.15 304.925 168.55 306.525 167.05zM307.85 168.325C307.85 168.95 308.075 169.225 308.525 169.225 308.8 169.225 309 169.15 309.175 169.05L309.175 169.85C308.95 170.05 308.6 170.2 308.15 170.2 307.175 170.2 306.525 169.675 306.525 168.3L306.525 168.125C304.725 169.85 303.075 170.275 301.875 170.275 300.45 170.275 299.3 169.3 299.3 167.725 299.3 165.175 302.7 163.825 306.525 163.45L306.525 162.6C306.525 160.825 305.775 160.1 303.95 160.1 302.9 160.1 301.2 160.675 300.05 161.35L300.05 160.075C300.975 159.575 302.925 158.875 304.15 158.875 306.3 158.875 307.85 159.725 307.85 162.6L307.85 168.325zM311.4 159.3L312.725 159.05 312.725 170 311.4 170 311.4 159.3zM311.15 155.875C311.15 155.375 311.55 154.975 312.05 154.975 312.55 154.975 312.975 155.375 312.975 155.875 312.975 156.375 312.55 156.775 312.05 156.775 311.55 156.775 311.15 156.375 311.15 155.875zM315.925 170L315.925 159.3 317.025 159.075 317.175 161.275C317.975 160.05 319.7 158.9 321.525 158.9 324.4 158.9 325.425 160.9 325.425 163.325L325.425 170 324.1 170 324.1 163.4C324.1 161.025 322.95 160.15 321.375 160.15 319.675 160.15 317.25 161.625 317.25 163.525L317.25 170 315.925 170zM266.8 180L275.3 180 275.3 181.225 268.175 181.225 268.175 186.5 274.05 186.5 274.05 187.725 268.175 187.725 268.175 193.775 275.3 193.775 275.3 195 266.8 195 266.8 180zM276.175 184.2L277.575 184.2 281.3 193.175 285 184.2 286.3 184.2 281.75 195 280.725 195 276.175 184.2zM287.3 189.5C287.3 186.025 289.825 183.875 292.325 183.875 294.85 183.875 296.75 185.575 296.75 188 296.75 188.3 296.7 188.75 296.65 189.1L288.625 189.1C288.425 191.525 289.65 194.1 293.175 194.1 294.35 194.1 295.575 193.55 296.4 192.975L296.85 193.8C295.925 194.65 294.35 195.275 292.525 195.275 289.525 195.275 287.3 192.825 287.3 189.5zM295.45 188.075C295.675 186.35 294.375 185 292.4 185 290.75 185 289.15 185.975 288.725 188.075L295.45 188.075zM299.4 195L299.4 184.3 300.5 184.075 300.65 186.275C301.45 185.05 303.175 183.9 305 183.9 307.875 183.9 308.9 185.9 308.9 188.325L308.9 195 307.575 195 307.575 188.4C307.575 186.025 306.425 185.15 304.85 185.15 303.15 185.15 300.725 186.625 300.725 188.525L300.725 195 299.4 195zM314.875 195.25C313.125 195.25 312.6 194.125 312.6 191.725L312.6 185.325 310.95 185.325 310.95 184.2 312.6 184.2 312.6 181.525 313.925 181.25 313.925 184.2 316.65 184.2 316.65 185.325 313.925 185.325 313.925 192.025C313.925 193.275 314.225 194.1 315.175 194.1 315.975 194.1 316.475 193.85 316.875 193.6L317.125 194.35C316.6 194.875 315.95 195.25 314.875 195.25zM318.425 194.275L318.7 193.125C319.5 193.6 320.8 194.125 322.2 194.125 323.725 194.125 324.8 193.525 324.8 192.075 324.8 190.975 323.875 190.525 321.925 190.025 319.8 189.475 318.75 188.275 318.75 186.9 318.75 185.25 320 183.875 322.45 183.875 323.825 183.875 325.075 184.45 325.525 184.7L325.25 185.8C324.475 185.375 323.425 185.05 322.45 185.05 320.75 185.05 320.05 185.775 320.05 186.825 320.05 187.9 320.925 188.4 322.5 188.8 324.8 189.375 326.125 190.475 326.125 191.85 326.125 194.075 324.45 195.325 322.15 195.325 320.35 195.325 318.9 194.575 318.425 194.275zM127.625 58L136.125 58 136.125 59.225 129 59.225 129 64.5 134.875 64.5 134.875 65.725 129 65.725 129 73 127.625 73 127.625 58zM137.95 62.3L139.275 62.05 139.275 73 137.95 73 137.95 62.3zM137.7 58.875C137.7 58.375 138.1 57.975 138.6 57.975 139.1 57.975 139.525 58.375 139.525 58.875 139.525 59.375 139.1 59.775 138.6 59.775 138.1 59.775 137.7 59.375 137.7 58.875zM142.475 73L142.475 62.3 143.575 62.075 143.725 64.275C144.5 63.05 146.225 61.9 147.875 61.9L147.875 63.45C145.9 63.15 143.8 64.65 143.8 66.55L143.8 73 142.475 73zM149.125 72.275L149.4 71.125C150.2 71.6 151.5 72.125 152.9 72.125 154.425 72.125 155.5 71.525 155.5 70.075 155.5 68.975 154.575 68.525 152.625 68.025 150.5 67.475 149.45 66.275 149.45 64.9 149.45 63.25 150.7 61.875 153.15 61.875 154.525 61.875 155.775 62.45 156.225 62.7L155.95 63.8C155.175 63.375 154.125 63.05 153.15 63.05 151.45 63.05 150.75 63.775 150.75 64.825 150.75 65.9 151.625 66.4 153.2 66.8 155.5 67.375 156.825 68.475 156.825 69.85 156.825 72.075 155.15 73.325 152.85 73.325 151.05 73.325 149.6 72.575 149.125 72.275zM162.1 73.25C160.35 73.25 159.825 72.125 159.825 69.725L159.825 63.325 158.175 63.325 158.175 62.2 159.825 62.2 159.825 59.525 161.15 59.25 161.15 62.2 163.875 62.2 163.875 63.325 161.15 63.325 161.15 70.025C161.15 71.275 161.45 72.1 162.4 72.1 163.2 72.1 163.7 71.85 164.1 71.6L164.35 72.35C163.825 72.875 163.175 73.25 162.1 73.25zM175.15 59.225L169.8 59.225 169.8 58 181.875 58 181.875 59.225 176.525 59.225 176.525 73 175.15 73 175.15 59.225zM183.7 57.875L185.025 57.625 185.025 64.15C185.85 62.975 187.525 61.9 189.3 61.9 192.175 61.9 193.2 63.9 193.2 66.325L193.2 73 191.875 73 191.875 66.4C191.875 64.025 190.725 63.15 189.15 63.15 187.45 63.15 185.025 64.625 185.025 66.525L185.025 73 183.7 73 183.7 57.875zM195.625 67.6C195.625 64.45 198.075 61.85 201.375 61.85 204.675 61.85 207.125 64.45 207.125 67.6 207.125 70.75 204.675 73.35 201.375 73.35 198.075 73.35 195.625 70.75 195.625 67.6zM205.8 67.6C205.8 64.95 203.95 63.05 201.375 63.05 198.8 63.05 196.95 64.95 196.95 67.6 196.95 70.25 198.8 72.15 201.375 72.15 203.95 72.15 205.8 70.25 205.8 67.6zM217.725 71.05C216.9 72.225 215.225 73.3 213.45 73.3 210.575 73.3 209.55 71.3 209.55 68.875L209.55 62.2 210.875 62.2 210.875 68.8C210.875 71.175 212.025 72.05 213.6 72.05 215.3 72.05 217.725 70.575 217.725 68.675L217.725 62.2 219.05 62.2 219.05 71.325C219.05 71.95 219.275 72.225 219.725 72.225 220 72.225 220.2 72.15 220.375 72.05L220.375 72.85C220.15 73.05 219.8 73.2 219.35 73.2 218.375 73.2 217.725 72.675 217.725 71.3L217.725 71.05zM221.475 75.55C221.475 74.65 222.175 73.85 222.85 73.7L223.575 74C223.2 74.175 222.7 74.625 222.7 75.175 222.7 76.325 224.225 76.95 226.35 76.95 228.9 76.95 230 75.925 230 74.8 230 73.575 229.025 72.925 226.025 72.925 223.975 72.925 222.25 72.525 222.25 70.85 222.25 70.25 222.675 69.325 224.175 69.025 222.875 68.45 222.05 67.175 222.05 65.7 222.05 63.525 223.8 61.9 226.275 61.9 227.475 61.9 227.975 62.2 229.025 62.2L231.5 62.2 231.5 63.325 229.45 63.325C230.15 64.075 230.475 64.675 230.475 65.7 230.475 67.775 228.9 69.325 226.7 69.475 224 69.65 223.45 70 223.45 70.675 223.45 71.15 223.9 71.675 226.5 71.7 230.175 71.725 231.3 73 231.3 74.7 231.3 76.675 229.325 78.1 226.35 78.1 223.275 78.1 221.475 76.875 221.475 75.55zM229.225 65.7C229.225 64.05 228.075 62.85 226.275 62.85 224.45 62.85 223.3 64.05 223.3 65.7 223.3 67.325 224.45 68.55 226.275 68.55 228.075 68.55 229.225 67.325 229.225 65.7zM233.85 57.875L235.175 57.625 235.175 64.15C236 62.975 237.675 61.9 239.45 61.9 242.325 61.9 243.35 63.9 243.35 66.325L243.35 73 242.025 73 242.025 66.4C242.025 64.025 240.875 63.15 239.3 63.15 237.6 63.15 235.175 64.625 235.175 66.525L235.175 73 233.85 73 233.85 57.875zM249.325 73.25C247.575 73.25 247.05 72.125 247.05 69.725L247.05 63.325 245.4 63.325 245.4 62.2 247.05 62.2 247.05 59.525 248.375 59.25 248.375 62.2 251.1 62.2 251.1 63.325 248.375 63.325 248.375 70.025C248.375 71.275 248.675 72.1 249.625 72.1 250.425 72.1 250.925 71.85 251.325 71.6L251.575 72.35C251.05 72.875 250.4 73.25 249.325 73.25z" mask="url(#timeline-diagram-c)"/>
    <g mask="url(#timeline-diagram-c)">
      <g transform="translate(265 52)">
        <circle cx="14" cy="14" r="15.5" fill="#938FC2" stroke="#FFF" stroke-width="3"/>
        <path fill="#FFF" fill-rule="nonzero" d="M11.291,11.756 L10.895,11.756 L10.895,10.406 L11.417,10.406 C13.163,10.406 13.595,9.56 13.901,7.976 L15.233,7.976 L15.233,18.524 C15.233,18.884 15.323,18.956 15.503,18.956 L17.303,18.956 L17.303,20 L11.309,20 L11.309,18.956 L13.271,18.956 C13.433,18.956 13.523,18.884 13.523,18.524 L13.523,10.712 C13.019,11.342 12.317,11.756 11.291,11.756 Z"/>
      </g>
    </g>
    <g mask="url(#timeline-diagram-c)">
      <g transform="translate(342 161)">
        <circle cx="14" cy="14" r="15.5" fill="#938FC2" stroke="#FFF" stroke-width="3"/>
        <path fill="#FFF" fill-rule="nonzero" d="M11.939,16.742 C11.939,17.354 11.453,17.858 10.733,17.858 C11.093,18.65 12.191,19.1 13.703,19.1 C15.647,19.1 16.637,18.272 16.637,16.688 L16.637,16.598 C16.637,15.14 15.773,14.42 13.793,14.42 C13.415,14.42 12.875,14.474 12.803,14.474 L12.803,13.196 C12.929,13.232 13.541,13.268 13.829,13.268 C15.431,13.268 16.475,12.458 16.475,11.234 L16.475,11.144 C16.475,9.704 15.539,8.948 13.847,8.948 C12.263,8.948 11.291,9.398 10.985,10.226 C11.687,10.262 12.137,10.73 12.137,11.324 C12.137,11.9 11.705,12.35 11.057,12.35 C10.265,12.35 9.725,11.792 9.725,10.82 C9.725,8.93 11.543,7.832 13.847,7.832 C16.817,7.832 18.257,8.93 18.257,11 C18.257,12.314 17.339,13.286 15.737,13.592 C17.519,14.006 18.473,15.05 18.473,16.652 C18.473,18.884 16.745,20.216 13.685,20.216 C11.093,20.216 9.491,19.226 9.491,17.318 C9.491,16.346 10.031,15.698 10.877,15.698 C11.471,15.698 11.939,16.148 11.939,16.742 Z"/>
      </g>
    </g>
    <g mask="url(#timeline-diagram-c)">
      <g transform="translate(524 239)">
        <circle cx="14" cy="14" r="15.5" fill="#938FC2" stroke="#FFF" stroke-width="3"/>
        <path fill="#FFF" fill-rule="nonzero" d="M13.775,8.948 C12.263,8.948 11.291,9.542 10.823,10.478 C11.669,10.514 12.119,10.982 12.119,11.648 C12.119,12.314 11.633,12.782 10.931,12.782 C10.175,12.782 9.617,12.17 9.617,11.18 C9.617,9.218 11.489,7.832 13.919,7.832 C16.709,7.832 18.419,9.272 18.419,11.522 C18.419,16.112 11.939,14.474 10.679,18.56 L16.475,18.56 C16.889,18.56 17.015,18.452 17.069,18.092 L17.231,16.49 L18.293,16.49 L18.293,20 L9.509,20 L9.581,19.1 C10.067,13.988 16.601,14.906 16.601,11.522 C16.601,9.92 15.521,8.948 13.775,8.948 Z"/>
      </g>
    </g>
  </g>
</svg>
