<svg xmlns="http://www.w3.org/2000/svg" xmlns:xlink="http://www.w3.org/1999/xlink" width="572" height="372" viewBox="0 0 572 372">
  <defs>
    <rect id="timeline-diagram-a" width="572" height="372" rx="3"/>
    <rect id="timeline-diagram-b" width="572" height="372" rx="3"/>
  </defs>
  <g fill="none" fill-rule="evenodd">
    <rect width="567" height="367" x="2.5" y="2.5" stroke="#979797" stroke-width="5" rx="3"/>
    <mask id="timeline-diagram-c" fill="#fff">
      <use xlink:href="#timeline-diagram-b"/>
    </mask>
    <rect width="567" height="367" x="2.5" y="2.5" stroke="#979797" stroke-width="5" rx="3"/>
    <g mask="url(#timeline-diagram-c)">
      <g transform="translate(46 48)">
        <path stroke="#938FC2" stroke-width="9" d="M24,16 C87.7783603,86.550387 151.111694,139.88372 214,176 C276.888306,212.11628 354.888306,239.949613 448,259.5"/>
        <polygon fill="#938FC2" points="435.062 247.205 440.273 241.93 457.062 258.93 440.273 275.93 435.062 270.654 446.642 258.93" transform="rotate(10 446.062 258.93)"/>
        <path fill="#DDD" stroke="#FFF" stroke-width="5" d="M12.2796763,29.3005682 C11.5327492,29.4328276 10.7704692,29.5 10,29.5 C3.12430541,29.5 -2.5,24.1569099 -2.5,17.5 C-2.5,11.2852927 2.40560795,6.20628958 8.66551455,5.5676953 C11.666859,2.37193591 15.9291223,0.5 20.5,0.5 C21.9334403,0.5 23.3426994,0.683233458 24.6993929,1.03988189 C26.8344855,-1.18754915 29.8075995,-2.5 33,-2.5 C35.926098,-2.5 38.6790462,-1.39854841 40.7745751,0.525805643 C42.7193007,0.655706902 44.5703706,1.27265223 46.1797837,2.29990657 C47.369036,1.77715422 48.6652156,1.5 50,1.5 C55.2467051,1.5 59.5,5.75329488 59.5,11 C59.5,11.3033891 59.485697,11.6051919 59.4573184,11.9046297 C61.3844719,13.9219798 62.5,16.6208748 62.5,19.5 C62.5,25.5751322 57.5751322,30.5 51.5,30.5 C50.8151457,30.5 50.1375774,30.4371029 49.4739087,30.313351 C47.9490871,31.0875301 46.2529565,31.5 44.5,31.5 C42.2519631,31.5 40.1079764,30.8205636 38.3092148,29.5939429 C36.1175224,30.831083 33.6087601,31.5 31,31.5 C29.2296959,31.5 27.5008472,31.1924995 25.87954,30.6015788 C24.1686596,31.1931558 22.354867,31.5 20.5,31.5 C17.5629406,31.5 14.7386974,30.7296539 12.2796763,29.3005682 Z"/>
        <rect width="8" height="35" x="136" y="108" fill="#938FC2" transform="rotate(36 140 125.5)"/>
        <rect width="8" height="35" x="257.5" y="183.332" fill="#938FC2" transform="rotate(25 261.5 200.832)"/>
        <rect width="8" height="35" x="392.021" y="230.051" fill="#938FC2" transform="rotate(15 396.021 247.55)"/>
      </g>
    </g>
    <path fill="#605AA4" fill-rule="nonzero" d="M425.475 244L430.125 244C433.35 244 434.75 246.175 434.75 248.525 434.75 250.9 433.35 253.05 430.125 253.05L426.85 253.05 426.85 259 425.475 259 425.475 244zM430.125 251.825C432.6 251.825 433.375 250.1 433.375 248.525 433.375 246.975 432.6 245.225 430.125 245.225L426.85 245.225 426.85 251.825 430.125 251.825zM444.8 257.05C443.975 258.225 442.3 259.3 440.525 259.3 437.65 259.3 436.625 257.3 436.625 254.875L436.625 248.2 437.95 248.2 437.95 254.8C437.95 257.175 439.1 258.05 440.675 258.05 442.375 258.05 444.8 256.575 444.8 254.675L444.8 248.2 446.125 248.2 446.125 257.325C446.125 257.95 446.35 258.225 446.8 258.225 447.075 258.225 447.275 258.15 447.45 258.05L447.45 258.85C447.225 259.05 446.875 259.2 446.425 259.2 445.45 259.2 444.8 258.675 444.8 257.3L444.8 257.05zM449.675 259L449.675 248.3 450.775 248.075 450.925 250.275C451.7 249.05 453.425 247.9 455.075 247.9L455.075 249.45C453.1 249.15 451 250.65 451 252.55L451 259 449.675 259zM456.225 253.6C456.225 250.25 458.55 247.9 461.65 247.9 462.975 247.9 464.125 248.15 465.25 248.925L465.25 250.2C464.25 249.45 462.95 249.075 461.825 249.075 459.325 249.075 457.55 250.925 457.55 253.6 457.55 256.275 459.325 258.125 461.825 258.125 462.95 258.125 464.25 257.75 465.25 257L465.25 258.275C464.15 259.05 462.975 259.3 461.65 259.3 458.55 259.3 456.225 256.95 456.225 253.6zM467.8 243.875L469.125 243.625 469.125 250.15C469.95 248.975 471.625 247.9 473.4 247.9 476.275 247.9 477.3 249.9 477.3 252.325L477.3 259 475.975 259 475.975 252.4C475.975 250.025 474.825 249.15 473.25 249.15 471.55 249.15 469.125 250.625 469.125 252.525L469.125 259 467.8 259 467.8 243.875zM486.8 256.05L486.8 253.575C483.15 253.875 480.825 255.175 480.825 256.675 480.825 257.85 481.725 258.15 482.725 258.15 483.375 258.15 485.2 257.55 486.8 256.05zM488.125 257.325C488.125 257.95 488.35 258.225 488.8 258.225 489.075 258.225 489.275 258.15 489.45 258.05L489.45 258.85C489.225 259.05 488.875 259.2 488.425 259.2 487.45 259.2 486.8 258.675 486.8 257.3L486.8 257.125C485 258.85 483.35 259.275 482.15 259.275 480.725 259.275 479.575 258.3 479.575 256.725 479.575 254.175 482.975 252.825 486.8 252.45L486.8 251.6C486.8 249.825 486.05 249.1 484.225 249.1 483.175 249.1 481.475 249.675 480.325 250.35L480.325 249.075C481.25 248.575 483.2 247.875 484.425 247.875 486.575 247.875 488.125 248.725 488.125 251.6L488.125 257.325zM490.925 258.275L491.2 257.125C492 257.6 493.3 258.125 494.7 258.125 496.225 258.125 497.3 257.525 497.3 256.075 497.3 254.975 496.375 254.525 494.425 254.025 492.3 253.475 491.25 252.275 491.25 250.9 491.25 249.25 492.5 247.875 494.95 247.875 496.325 247.875 497.575 248.45 498.025 248.7L497.75 249.8C496.975 249.375 495.925 249.05 494.95 249.05 493.25 249.05 492.55 249.775 492.55 250.825 492.55 251.9 493.425 252.4 495 252.8 497.3 253.375 498.625 254.475 498.625 255.85 498.625 258.075 496.95 259.325 494.65 259.325 492.85 259.325 491.4 258.575 490.925 258.275zM500.5 253.5C500.5 250.025 503.025 247.875 505.525 247.875 508.05 247.875 509.95 249.575 509.95 252 509.95 252.3 509.9 252.75 509.85 253.1L501.825 253.1C501.625 255.525 502.85 258.1 506.375 258.1 507.55 258.1 508.775 257.55 509.6 256.975L510.05 257.8C509.125 258.65 507.55 259.275 505.725 259.275 502.725 259.275 500.5 256.825 500.5 253.5zM508.65 252.075C508.875 250.35 507.575 249 505.6 249 503.95 249 502.35 249.975 501.925 252.075L508.65 252.075zM202.275 138L210.775 138 210.775 139.225 203.65 139.225 203.65 144.5 209.525 144.5 209.525 145.725 203.65 145.725 203.65 151.775 210.775 151.775 210.775 153 202.275 153 202.275 138zM211.65 142.2L213.05 142.2 216.775 151.175 220.475 142.2 221.775 142.2 217.225 153 216.2 153 211.65 142.2zM222.775 147.5C222.775 144.025 225.3 141.875 227.8 141.875 230.325 141.875 232.225 143.575 232.225 146 232.225 146.3 232.175 146.75 232.125 147.1L224.1 147.1C223.9 149.525 225.125 152.1 228.65 152.1 229.825 152.1 231.05 151.55 231.875 150.975L232.325 151.8C231.4 152.65 229.825 153.275 228 153.275 225 153.275 222.775 150.825 222.775 147.5zM230.925 146.075C231.15 144.35 229.85 143 227.875 143 226.225 143 224.625 143.975 224.2 146.075L230.925 146.075zM234.875 153L234.875 142.3 235.975 142.075 236.125 144.275C236.925 143.05 238.65 141.9 240.475 141.9 243.35 141.9 244.375 143.9 244.375 146.325L244.375 153 243.05 153 243.05 146.4C243.05 144.025 241.9 143.15 240.325 143.15 238.625 143.15 236.2 144.625 236.2 146.525L236.2 153 234.875 153zM250.35 153.25C248.6 153.25 248.075 152.125 248.075 149.725L248.075 143.325 246.425 143.325 246.425 142.2 248.075 142.2 248.075 139.525 249.4 139.25 249.4 142.2 252.125 142.2 252.125 143.325 249.4 143.325 249.4 150.025C249.4 151.275 249.7 152.1 250.65 152.1 251.45 152.1 251.95 151.85 252.35 151.6L252.6 152.35C252.075 152.875 251.425 153.25 250.35 153.25zM267.45 141.375L267.25 142.375 265.55 142.375 264.925 146.25 266.675 146.25 266.475 147.25 264.75 147.25 264.2 150.65 263.25 150.65 263.8 147.25 260.95 147.25 260.4 150.65 259.45 150.65 260 147.25 258.275 147.25 258.45 146.25 260.175 146.25 260.8 142.375 259.05 142.375 259.225 141.375 260.95 141.375 261.5 138 262.45 138 261.9 141.375 264.75 141.375 265.3 138 266.25 138 265.7 141.375 267.45 141.375zM264.6 142.375L261.75 142.375 261.125 146.25 263.975 146.25 264.6 142.375zM270.4 139.5L268.825 139.5 268.825 138.5 271.775 137.775 271.775 153 270.4 153 270.4 139.5zM318.625 209L327.125 209 327.125 210.225 320 210.225 320 215.5 325.875 215.5 325.875 216.725 320 216.725 320 222.775 327.125 222.775 327.125 224 318.625 224 318.625 209zM328 213.2L329.4 213.2 333.125 222.175 336.825 213.2 338.125 213.2 333.575 224 332.55 224 328 213.2zM339.125 218.5C339.125 215.025 341.65 212.875 344.15 212.875 346.675 212.875 348.575 214.575 348.575 217 348.575 217.3 348.525 217.75 348.475 218.1L340.45 218.1C340.25 220.525 341.475 223.1 345 223.1 346.175 223.1 347.4 222.55 348.225 221.975L348.675 222.8C347.75 223.65 346.175 224.275 344.35 224.275 341.35 224.275 339.125 221.825 339.125 218.5zM347.275 217.075C347.5 215.35 346.2 214 344.225 214 342.575 214 340.975 214.975 340.55 217.075L347.275 217.075zM351.225 224L351.225 213.3 352.325 213.075 352.475 215.275C353.275 214.05 355 212.9 356.825 212.9 359.7 212.9 360.725 214.9 360.725 217.325L360.725 224 359.4 224 359.4 217.4C359.4 215.025 358.25 214.15 356.675 214.15 354.975 214.15 352.55 215.625 352.55 217.525L352.55 224 351.225 224zM366.7 224.25C364.95 224.25 364.425 223.125 364.425 220.725L364.425 214.325 362.775 214.325 362.775 213.2 364.425 213.2 364.425 210.525 365.75 210.25 365.75 213.2 368.475 213.2 368.475 214.325 365.75 214.325 365.75 221.025C365.75 222.275 366.05 223.1 367 223.1 367.8 223.1 368.3 222.85 368.7 222.6L368.95 223.35C368.425 223.875 367.775 224.25 366.7 224.25zM383.8 212.375L383.6 213.375 381.9 213.375 381.275 217.25 383.025 217.25 382.825 218.25 381.1 218.25 380.55 221.65 379.6 221.65 380.15 218.25 377.3 218.25 376.75 221.65 375.8 221.65 376.35 218.25 374.625 218.25 374.8 217.25 376.525 217.25 377.15 213.375 375.4 213.375 375.575 212.375 377.3 212.375 377.85 209 378.8 209 378.25 212.375 381.1 212.375 381.65 209 382.6 209 382.05 212.375 383.8 212.375zM380.95 213.375L378.1 213.375 377.475 217.25 380.325 217.25 380.95 213.375zM384.975 222.9L389.2 218.4C390.625 216.9 392.2 215.2 392.2 213.025 392.2 210.55 390.625 209.85 389.025 209.85 387.85 209.85 386.55 210.375 385.35 211.3L385.35 210C386.075 209.375 387.7 208.625 389.075 208.625 391.65 208.625 393.6 210.15 393.6 212.875 393.6 215.475 391.75 217.425 390.675 218.55L386.6 222.775 393.925 222.775 393.925 224 384.975 224 384.975 222.9zM127.625 58L136.125 58 136.125 59.225 129 59.225 129 64.5 134.875 64.5 134.875 65.725 129 65.725 129 73 127.625 73 127.625 58zM137.95 62.3L139.275 62.05 139.275 73 137.95 73 137.95 62.3zM137.7 58.875C137.7 58.375 138.1 57.975 138.6 57.975 139.1 57.975 139.525 58.375 139.525 58.875 139.525 59.375 139.1 59.775 138.6 59.775 138.1 59.775 137.7 59.375 137.7 58.875zM142.475 73L142.475 62.3 143.575 62.075 143.725 64.275C144.5 63.05 146.225 61.9 147.875 61.9L147.875 63.45C145.9 63.15 143.8 64.65 143.8 66.55L143.8 73 142.475 73zM149.125 72.275L149.4 71.125C150.2 71.6 151.5 72.125 152.9 72.125 154.425 72.125 155.5 71.525 155.5 70.075 155.5 68.975 154.575 68.525 152.625 68.025 150.5 67.475 149.45 66.275 149.45 64.9 149.45 63.25 150.7 61.875 153.15 61.875 154.525 61.875 155.775 62.45 156.225 62.7L155.95 63.8C155.175 63.375 154.125 63.05 153.15 63.05 151.45 63.05 150.75 63.775 150.75 64.825 150.75 65.9 151.625 66.4 153.2 66.8 155.5 67.375 156.825 68.475 156.825 69.85 156.825 72.075 155.15 73.325 152.85 73.325 151.05 73.325 149.6 72.575 149.125 72.275zM162.1 73.25C160.35 73.25 159.825 72.125 159.825 69.725L159.825 63.325 158.175 63.325 158.175 62.2 159.825 62.2 159.825 59.525 161.15 59.25 161.15 62.2 163.875 62.2 163.875 63.325 161.15 63.325 161.15 70.025C161.15 71.275 161.45 72.1 162.4 72.1 163.2 72.1 163.7 71.85 164.1 71.6L164.35 72.35C163.825 72.875 163.175 73.25 162.1 73.25zM175.15 59.225L169.8 59.225 169.8 58 181.875 58 181.875 59.225 176.525 59.225 176.525 73 175.15 73 175.15 59.225zM183.7 57.875L185.025 57.625 185.025 64.15C185.85 62.975 187.525 61.9 189.3 61.9 192.175 61.9 193.2 63.9 193.2 66.325L193.2 73 191.875 73 191.875 66.4C191.875 64.025 190.725 63.15 189.15 63.15 187.45 63.15 185.025 64.625 185.025 66.525L185.025 73 183.7 73 183.7 57.875zM195.625 67.6C195.625 64.45 198.075 61.85 201.375 61.85 204.675 61.85 207.125 64.45 207.125 67.6 207.125 70.75 204.675 73.35 201.375 73.35 198.075 73.35 195.625 70.75 195.625 67.6zM205.8 67.6C205.8 64.95 203.95 63.05 201.375 63.05 198.8 63.05 196.95 64.95 196.95 67.6 196.95 70.25 198.8 72.15 201.375 72.15 203.95 72.15 205.8 70.25 205.8 67.6zM217.725 71.05C216.9 72.225 215.225 73.3 213.45 73.3 210.575 73.3 209.55 71.3 209.55 68.875L209.55 62.2 210.875 62.2 210.875 68.8C210.875 71.175 212.025 72.05 213.6 72.05 215.3 72.05 217.725 70.575 217.725 68.675L217.725 62.2 219.05 62.2 219.05 71.325C219.05 71.95 219.275 72.225 219.725 72.225 220 72.225 220.2 72.15 220.375 72.05L220.375 72.85C220.15 73.05 219.8 73.2 219.35 73.2 218.375 73.2 217.725 72.675 217.725 71.3L217.725 71.05zM221.475 75.55C221.475 74.65 222.175 73.85 222.85 73.7L223.575 74C223.2 74.175 222.7 74.625 222.7 75.175 222.7 76.325 224.225 76.95 226.35 76.95 228.9 76.95 230 75.925 230 74.8 230 73.575 229.025 72.925 226.025 72.925 223.975 72.925 222.25 72.525 222.25 70.85 222.25 70.25 222.675 69.325 224.175 69.025 222.875 68.45 222.05 67.175 222.05 65.7 222.05 63.525 223.8 61.9 226.275 61.9 227.475 61.9 227.975 62.2 229.025 62.2L231.5 62.2 231.5 63.325 229.45 63.325C230.15 64.075 230.475 64.675 230.475 65.7 230.475 67.775 228.9 69.325 226.7 69.475 224 69.65 223.45 70 223.45 70.675 223.45 71.15 223.9 71.675 226.5 71.7 230.175 71.725 231.3 73 231.3 74.7 231.3 76.675 229.325 78.1 226.35 78.1 223.275 78.1 221.475 76.875 221.475 75.55zM229.225 65.7C229.225 64.05 228.075 62.85 226.275 62.85 224.45 62.85 223.3 64.05 223.3 65.7 223.3 67.325 224.45 68.55 226.275 68.55 228.075 68.55 229.225 67.325 229.225 65.7zM233.85 57.875L235.175 57.625 235.175 64.15C236 62.975 237.675 61.9 239.45 61.9 242.325 61.9 243.35 63.9 243.35 66.325L243.35 73 242.025 73 242.025 66.4C242.025 64.025 240.875 63.15 239.3 63.15 237.6 63.15 235.175 64.625 235.175 66.525L235.175 73 233.85 73 233.85 57.875zM249.325 73.25C247.575 73.25 247.05 72.125 247.05 69.725L247.05 63.325 245.4 63.325 245.4 62.2 247.05 62.2 247.05 59.525 248.375 59.25 248.375 62.2 251.1 62.2 251.1 63.325 248.375 63.325 248.375 70.025C248.375 71.275 248.675 72.1 249.625 72.1 250.425 72.1 250.925 71.85 251.325 71.6L251.575 72.35C251.05 72.875 250.4 73.25 249.325 73.25zM67.025 141.7C66.675 144.05 65.125 146 62.05 146L58.85 146 57.775 152 56.4 152 59.05 137 63.275 137C66.325 137 67.4 139.325 67.025 141.7zM65.7 141.525C65.925 139.95 65.35 138.2 63.05 138.2L60.2 138.2 59.05 144.8 62.1 144.8C64.425 144.8 65.45 143.1 65.7 141.525zM78.025 141.075L76.45 150.075C76.3 150.95 76.475 151.3 77.1 151.3 77.325 151.3 77.575 151.225 77.75 151.15L77.75 151.775C77.375 152.025 76.9 152.175 76.375 152.175 75.425 152.175 74.925 151.45 75.15 150.2 74.325 151.425 72.85 152.3 71.3 152.3 68.175 152.3 66.8 149.6 67.375 146.45 67.95 143.325 70.525 140.9 73.625 140.9 74.675 140.9 75.775 141.25 76.7 141.95L77.2 141.075 78.025 141.075zM76.4 143.025C75.7 142.475 74.9 142.025 73.525 142.025 71.05 142.025 69.175 144.025 68.7 146.525 68.225 149.125 69.2 151.175 71.7 151.175 73.3 151.175 75.25 149.65 75.6 147.6L76.4 143.025zM87.15 141.725L86.8 142.825C86.375 142.55 85.45 142.075 84.15 142.075 82.75 142.075 81.9 142.65 81.725 143.525 81.6 144.375 81.775 145.25 83.65 145.775 86.05 146.5 86.775 147.95 86.525 149.4 86.2 151.4 84.475 152.325 82.575 152.325 80.8 152.325 79.625 151.6 79.1 151.25L79.425 150.1C79.975 150.5 81.025 151.15 82.6 151.15 83.925 151.15 85 150.65 85.2 149.525 85.375 148.65 85.275 147.525 83.05 146.9 80.925 146.275 80.15 144.975 80.425 143.5 80.7 142.025 82.125 140.9 84.15 140.9 85.625 140.9 86.825 141.5 87.15 141.725zM95.725 141.725L95.375 142.825C94.95 142.55 94.025 142.075 92.725 142.075 91.325 142.075 90.475 142.65 90.3 143.525 90.175 144.375 90.35 145.25 92.225 145.775 94.625 146.5 95.35 147.95 95.1 149.4 94.775 151.4 93.05 152.325 91.15 152.325 89.375 152.325 88.2 151.6 87.675 151.25L88 150.1C88.55 150.5 89.6 151.15 91.175 151.15 92.5 151.15 93.575 150.65 93.775 149.525 93.95 148.65 93.85 147.525 91.625 146.9 89.5 146.275 88.725 144.975 89 143.5 89.275 142.025 90.7 140.9 92.725 140.9 94.2 140.9 95.4 141.5 95.725 141.725zM98.8 141C99.6 141 100.1 141.55 100.1 142.45 100.1 144.2 98.6 148.725 98.6 150.575 98.6 151.125 98.85 151.3 99.3 151.3 99.5 151.3 99.75 151.225 99.95 151.15L99.95 151.775C99.55 152 99.1 152.175 98.575 152.175 97.775 152.175 97.275 151.625 97.275 150.725 97.275 148.975 98.775 144.45 98.775 142.6 98.775 142.05 98.525 141.875 98.075 141.875 97.875 141.875 97.6 141.95 97.425 142.025L97.425 141.4C97.825 141.175 98.25 141 98.8 141zM100.075 138.65C99.6 138.65 99.275 138.275 99.325 137.8 99.375 137.325 99.8 136.925 100.275 136.925 100.75 136.925 101.075 137.325 101.025 137.8 100.975 138.275 100.55 138.65 100.075 138.65zM111.875 144.35C111.875 147.95 109.525 152.2 105.575 152.2 103.7 152.2 102.5 150.975 102.5 148.975 102.5 146.6 103.8 144.7 103.8 142.85 103.8 142.25 103.525 141.975 103.05 141.975 102.75 141.975 102.575 142.025 102.325 142.125L102.325 141.5C102.775 141.2 103.2 141.1 103.75 141.1 104.575 141.1 105.125 141.625 105.125 142.7 105.125 144.575 103.825 146.5 103.825 148.85 103.825 150.325 104.525 151.05 105.925 151.05 108.5 151.05 110.55 147.55 110.55 144.3 110.55 143.025 110.275 142 109.725 141.2L110.9 141.2C111.55 141.9 111.875 143.125 111.875 144.35zM122.35 143.225C122.15 144.8 120.075 147.1 114.775 147.775 114.875 149.975 116.2 151.15 118.125 151.15 119.325 151.15 120.475 150.75 121.425 149.9L121.775 150.775C120.825 151.725 119.375 152.3 117.75 152.3 114.65 152.3 113.075 149.35 113.55 146.5 114.1 143.175 116.8 140.9 119.625 140.9 121.35 140.9 122.525 141.9 122.35 143.225zM121.025 143.325C121.1 142.6 120.55 142.05 119.425 142.05 117.5 142.05 115.4 143.575 114.875 146.475L114.825 146.725C118.7 146.25 120.9 144.625 121.025 143.325zM56.25 175.8L56.025 177 47.975 177 50.625 162 52 162 49.575 175.8 56.25 175.8zM64.15 165.875C67.475 165.875 69.45 168.575 68.975 171.8 68.475 175.075 65.925 177.325 62.9 177.325 59.6 177.325 57.6 174.625 58.1 171.4 58.575 168.125 61.15 165.875 64.15 165.875zM64.125 167.025C61.875 167.025 59.85 168.7 59.425 171.4 58.975 174.4 60.6 176.175 62.925 176.175 65.175 176.175 67.225 174.475 67.65 171.8 68.1 168.825 66.475 167.025 64.125 167.025zM76.8 165.875C80.125 165.875 82.1 168.575 81.625 171.8 81.125 175.075 78.575 177.325 75.55 177.325 72.25 177.325 70.25 174.625 70.75 171.4 71.225 168.125 73.8 165.875 76.8 165.875zM76.775 167.025C74.525 167.025 72.5 168.7 72.075 171.4 71.625 174.4 73.25 176.175 75.575 176.175 77.825 176.175 79.875 174.475 80.3 171.8 80.75 168.825 79.125 167.025 76.775 167.025zM93.6 166.2L88.075 170.525 87.225 171.15C88.35 171.475 88.825 172.625 89.25 173.8 89.675 175 90.15 176.15 91.35 176.15 92.025 176.15 92.425 175.95 92.8 175.725L92.9 176.45C92.325 176.95 91.7 177.2 90.925 177.2 89.175 177.2 88.525 175.55 87.825 173.625 87.35 172.3 86.875 171.825 86.275 171.825 85.6 171.825 85.275 172.275 85.175 172.95L84.475 177 83.15 177 85.8 161.9 87.15 161.675 85.45 171.4C85.8 171.05 86.3 170.6 86.8 170.2L91.9 166.2 93.6 166.2zM95.725 166C96.525 166 97.025 166.55 97.025 167.45 97.025 169.2 95.525 173.725 95.525 175.575 95.525 176.125 95.775 176.3 96.225 176.3 96.425 176.3 96.675 176.225 96.875 176.15L96.875 176.775C96.475 177 96.025 177.175 95.5 177.175 94.7 177.175 94.2 176.625 94.2 175.725 94.2 173.975 95.7 169.45 95.7 167.6 95.7 167.05 95.45 166.875 95 166.875 94.8 166.875 94.525 166.95 94.35 167.025L94.35 166.4C94.75 166.175 95.175 166 95.725 166zM97 163.65C96.525 163.65 96.2 163.275 96.25 162.8 96.3 162.325 96.725 161.925 97.2 161.925 97.675 161.925 98 162.325 97.95 162.8 97.9 163.275 97.475 163.65 97 163.65zM106.35 166C108.325 166 109.35 167.25 109.35 169 109.35 171.05 108.3 174.05 108.3 175.575 108.3 176.125 108.55 176.3 109 176.3 109.2 176.3 109.45 176.225 109.65 176.15L109.65 176.775C109.25 177 108.825 177.175 108.275 177.175 107.475 177.175 106.975 176.625 106.975 175.725 106.975 174.15 108.025 171.175 108.025 169.35 108.025 167.875 107.25 167.225 105.925 167.225 104.2 167.225 101.825 168.95 101.275 172.175L100.425 177 99.1 177 100.65 168.1C100.8 167.225 100.625 166.875 100 166.875 99.775 166.875 99.525 166.95 99.35 167.025L99.35 166.4C99.725 166.15 100.175 166 100.725 166 101.675 166 102.35 166.725 101.825 168.825 102.85 167.05 104.675 166 106.35 166zM120.775 168.025C120.075 167.475 119.275 167.025 117.9 167.025 115.425 167.025 113.55 169.025 113.075 171.525 112.6 174.125 113.575 176.175 116.075 176.175 117.675 176.175 119.625 174.65 119.975 172.6L120.775 168.025zM120.65 176.2C119.85 180.725 117.9 182.075 114.9 182.075 113.6 182.075 112.475 181.6 111.55 181.1L111.55 179.925C112.575 180.525 113.65 180.95 115.075 180.95 117.075 180.95 118.7 180 119.35 176.1L119.475 175.275C118.675 176.425 117.225 177.3 115.675 177.3 112.55 177.3 111.175 174.6 111.75 171.45 112.325 168.325 114.9 165.9 118 165.9 119.05 165.9 120.15 166.25 121.075 166.95L121.575 166.075 122.4 166.075 120.65 176.2zM201.175 247L199.825 247 198.9 242.675 192.35 242.675 189.9 247 188.45 247 197 232 197.925 232 201.175 247zM198.625 241.475L197.1 234.25 193.025 241.475 198.625 241.475zM212.1 236.95L211.9 238.15C211.2 237.575 210.25 237.075 209.075 237.075 206.675 237.075 204.775 238.825 204.375 241.425 203.95 244.2 205.375 246.125 207.975 246.125 209.1 246.125 210.075 245.575 210.775 245.075L211.125 245.975C210.35 246.7 209.125 247.3 207.55 247.3 204.425 247.3 202.575 244.65 203.05 241.4 203.525 238.075 206.075 235.9 209.025 235.9 210.3 235.9 211.45 236.35 212.1 236.95zM219.425 236.2L219.25 237.2 216.55 237.2 215.375 243.925C215.1 245.45 215.625 246.2 216.775 246.2 217.275 246.2 217.7 246.05 218.075 245.825L218.25 246.575C217.85 246.95 217.175 247.225 216.35 247.225 214.8 247.225 213.675 246.125 214.05 243.95L215.225 237.2 213.6 237.2 213.775 236.2 215.425 236.2 215.95 233.075 217.325 232.85 216.75 236.2 219.425 236.2zM221.8 236C222.6 236 223.1 236.55 223.1 237.45 223.1 239.2 221.6 243.725 221.6 245.575 221.6 246.125 221.85 246.3 222.3 246.3 222.5 246.3 222.75 246.225 222.95 246.15L222.95 246.775C222.55 247 222.1 247.175 221.575 247.175 220.775 247.175 220.275 246.625 220.275 245.725 220.275 243.975 221.775 239.45 221.775 237.6 221.775 237.05 221.525 236.875 221.075 236.875 220.875 236.875 220.6 236.95 220.425 237.025L220.425 236.4C220.825 236.175 221.25 236 221.8 236zM223.075 233.65C222.6 233.65 222.275 233.275 222.325 232.8 222.375 232.325 222.8 231.925 223.275 231.925 223.75 231.925 224.075 232.325 224.025 232.8 223.975 233.275 223.55 233.65 223.075 233.65zM234.875 239.35C234.875 242.95 232.525 247.2 228.575 247.2 226.7 247.2 225.5 245.975 225.5 243.975 225.5 241.6 226.8 239.7 226.8 237.85 226.8 237.25 226.525 236.975 226.05 236.975 225.75 236.975 225.575 237.025 225.325 237.125L225.325 236.5C225.775 236.2 226.2 236.1 226.75 236.1 227.575 236.1 228.125 236.625 228.125 237.7 228.125 239.575 226.825 241.5 226.825 243.85 226.825 245.325 227.525 246.05 228.925 246.05 231.5 246.05 233.55 242.55 233.55 239.3 233.55 238.025 233.275 237 232.725 236.2L233.9 236.2C234.55 236.9 234.875 238.125 234.875 239.35zM245.35 238.225C245.15 239.8 243.075 242.1 237.775 242.775 237.875 244.975 239.2 246.15 241.125 246.15 242.325 246.15 243.475 245.75 244.425 244.9L244.775 245.775C243.825 246.725 242.375 247.3 240.75 247.3 237.65 247.3 236.075 244.35 236.55 241.5 237.1 238.175 239.8 235.9 242.625 235.9 244.35 235.9 245.525 236.9 245.35 238.225zM244.025 238.325C244.1 237.6 243.55 237.05 242.425 237.05 240.5 237.05 238.4 238.575 237.875 241.475L237.825 241.725C241.7 241.25 243.9 239.625 244.025 238.325zM179.25 270.8L179.025 272 170.975 272 173.625 257 175 257 172.575 270.8 179.25 270.8zM187.15 260.875C190.475 260.875 192.45 263.575 191.975 266.8 191.475 270.075 188.925 272.325 185.9 272.325 182.6 272.325 180.6 269.625 181.1 266.4 181.575 263.125 184.15 260.875 187.15 260.875zM187.125 262.025C184.875 262.025 182.85 263.7 182.425 266.4 181.975 269.4 183.6 271.175 185.925 271.175 188.175 271.175 190.225 269.475 190.65 266.8 191.1 263.825 189.475 262.025 187.125 262.025zM199.8 260.875C203.125 260.875 205.1 263.575 204.625 266.8 204.125 270.075 201.575 272.325 198.55 272.325 195.25 272.325 193.25 269.625 193.75 266.4 194.225 263.125 196.8 260.875 199.8 260.875zM199.775 262.025C197.525 262.025 195.5 263.7 195.075 266.4 194.625 269.4 196.25 271.175 198.575 271.175 200.825 271.175 202.875 269.475 203.3 266.8 203.75 263.825 202.125 262.025 199.775 262.025zM216.6 261.2L211.075 265.525 210.225 266.15C211.35 266.475 211.825 267.625 212.25 268.8 212.675 270 213.15 271.15 214.35 271.15 215.025 271.15 215.425 270.95 215.8 270.725L215.9 271.45C215.325 271.95 214.7 272.2 213.925 272.2 212.175 272.2 211.525 270.55 210.825 268.625 210.35 267.3 209.875 266.825 209.275 266.825 208.6 266.825 208.275 267.275 208.175 267.95L207.475 272 206.15 272 208.8 256.9 210.15 256.675 208.45 266.4C208.8 266.05 209.3 265.6 209.8 265.2L214.9 261.2 216.6 261.2zM218.725 261C219.525 261 220.025 261.55 220.025 262.45 220.025 264.2 218.525 268.725 218.525 270.575 218.525 271.125 218.775 271.3 219.225 271.3 219.425 271.3 219.675 271.225 219.875 271.15L219.875 271.775C219.475 272 219.025 272.175 218.5 272.175 217.7 272.175 217.2 271.625 217.2 270.725 217.2 268.975 218.7 264.45 218.7 262.6 218.7 262.05 218.45 261.875 218 261.875 217.8 261.875 217.525 261.95 217.35 262.025L217.35 261.4C217.75 261.175 218.175 261 218.725 261zM220 258.65C219.525 258.65 219.2 258.275 219.25 257.8 219.3 257.325 219.725 256.925 220.2 256.925 220.675 256.925 221 257.325 220.95 257.8 220.9 258.275 220.475 258.65 220 258.65zM229.35 261C231.325 261 232.35 262.25 232.35 264 232.35 266.05 231.3 269.05 231.3 270.575 231.3 271.125 231.55 271.3 232 271.3 232.2 271.3 232.45 271.225 232.65 271.15L232.65 271.775C232.25 272 231.825 272.175 231.275 272.175 230.475 272.175 229.975 271.625 229.975 270.725 229.975 269.15 231.025 266.175 231.025 264.35 231.025 262.875 230.25 262.225 228.925 262.225 227.2 262.225 224.825 263.95 224.275 267.175L223.425 272 222.1 272 223.65 263.1C223.8 262.225 223.625 261.875 223 261.875 222.775 261.875 222.525 261.95 222.35 262.025L222.35 261.4C222.725 261.15 223.175 261 223.725 261 224.675 261 225.35 261.725 224.825 263.825 225.85 262.05 227.675 261 229.35 261zM243.775 263.025C243.075 262.475 242.275 262.025 240.9 262.025 238.425 262.025 236.55 264.025 236.075 266.525 235.6 269.125 236.575 271.175 239.075 271.175 240.675 271.175 242.625 269.65 242.975 267.6L243.775 263.025zM243.65 271.2C242.85 275.725 240.9 277.075 237.9 277.075 236.6 277.075 235.475 276.6 234.55 276.1L234.55 274.925C235.575 275.525 236.65 275.95 238.075 275.95 240.075 275.95 241.7 275 242.35 271.1L242.475 270.275C241.675 271.425 240.225 272.3 238.675 272.3 235.55 272.3 234.175 269.6 234.75 266.45 235.325 263.325 237.9 260.9 241 260.9 242.05 260.9 243.15 261.25 244.075 261.95L244.575 261.075 245.4 261.075 243.65 271.2zM334.35 304.675C333.675 308.8 331 312 325.525 312L321.275 312 323.925 297 327.825 297C333.35 297 335.025 300.55 334.35 304.675zM327.7 298.225L325.075 298.225 322.85 310.775 325.625 310.775C330.425 310.775 332.4 307.775 332.925 304.5 333.45 301.25 332.5 298.225 327.7 298.225zM344.575 303.225C344.375 304.8 342.3 307.1 337 307.775 337.1 309.975 338.425 311.15 340.35 311.15 341.55 311.15 342.7 310.75 343.65 309.9L344 310.775C343.05 311.725 341.6 312.3 339.975 312.3 336.875 312.3 335.3 309.35 335.775 306.5 336.325 303.175 339.025 300.9 341.85 300.9 343.575 300.9 344.75 301.9 344.575 303.225zM343.25 303.325C343.325 302.6 342.775 302.05 341.65 302.05 339.725 302.05 337.625 303.575 337.1 306.475L337.05 306.725C340.925 306.25 343.125 304.625 343.25 303.325zM355.15 301.95L354.95 303.15C354.25 302.575 353.3 302.075 352.125 302.075 349.725 302.075 347.825 303.825 347.425 306.425 347 309.2 348.425 311.125 351.025 311.125 352.15 311.125 353.125 310.575 353.825 310.075L354.175 310.975C353.4 311.7 352.175 312.3 350.6 312.3 347.475 312.3 345.625 309.65 346.1 306.4 346.575 303.075 349.125 300.9 352.075 300.9 353.35 300.9 354.5 301.35 355.15 301.95zM358.2 301C359 301 359.5 301.55 359.5 302.45 359.5 304.2 358 308.725 358 310.575 358 311.125 358.25 311.3 358.7 311.3 358.9 311.3 359.15 311.225 359.35 311.15L359.35 311.775C358.95 312 358.5 312.175 357.975 312.175 357.175 312.175 356.675 311.625 356.675 310.725 356.675 308.975 358.175 304.45 358.175 302.6 358.175 302.05 357.925 301.875 357.475 301.875 357.275 301.875 357 301.95 356.825 302.025L356.825 301.4C357.225 301.175 357.65 301 358.2 301zM359.475 298.65C359 298.65 358.675 298.275 358.725 297.8 358.775 297.325 359.2 296.925 359.675 296.925 360.15 296.925 360.475 297.325 360.425 297.8 360.375 298.275 359.95 298.65 359.475 298.65zM372.875 296.675L370.525 310.075C370.375 310.95 370.55 311.3 371.175 311.3 371.4 311.3 371.65 311.225 371.825 311.15L371.825 311.775C371.45 312.025 370.975 312.175 370.45 312.175 369.5 312.175 369 311.45 369.225 310.2 368.4 311.425 366.925 312.3 365.375 312.3 362.25 312.3 360.875 309.6 361.45 306.45 362.025 303.325 364.6 300.9 367.7 300.9 368.75 300.9 369.725 301.2 370.65 301.875L371.5 296.9 372.875 296.675zM370.475 303.025C369.775 302.475 368.975 302.025 367.6 302.025 365.125 302.025 363.25 304.025 362.775 306.525 362.3 309.125 363.275 311.175 365.775 311.175 367.375 311.175 369.325 309.65 369.675 307.6L370.475 303.025zM375.725 301C376.525 301 377.025 301.55 377.025 302.45 377.025 304.2 375.525 308.725 375.525 310.575 375.525 311.125 375.775 311.3 376.225 311.3 376.425 311.3 376.675 311.225 376.875 311.15L376.875 311.775C376.475 312 376.025 312.175 375.5 312.175 374.7 312.175 374.2 311.625 374.2 310.725 374.2 308.975 375.7 304.45 375.7 302.6 375.7 302.05 375.45 301.875 375 301.875 374.8 301.875 374.525 301.95 374.35 302.025L374.35 301.4C374.75 301.175 375.175 301 375.725 301zM377 298.65C376.525 298.65 376.2 298.275 376.25 297.8 376.3 297.325 376.725 296.925 377.2 296.925 377.675 296.925 378 297.325 377.95 297.8 377.9 298.275 377.475 298.65 377 298.65zM386.35 301C388.325 301 389.35 302.25 389.35 304 389.35 306.05 388.3 309.05 388.3 310.575 388.3 311.125 388.55 311.3 389 311.3 389.2 311.3 389.45 311.225 389.65 311.15L389.65 311.775C389.25 312 388.825 312.175 388.275 312.175 387.475 312.175 386.975 311.625 386.975 310.725 386.975 309.15 388.025 306.175 388.025 304.35 388.025 302.875 387.25 302.225 385.925 302.225 384.2 302.225 381.825 303.95 381.275 307.175L380.425 312 379.1 312 380.65 303.1C380.8 302.225 380.625 301.875 380 301.875 379.775 301.875 379.525 301.95 379.35 302.025L379.35 301.4C379.725 301.15 380.175 301 380.725 301 381.675 301 382.35 301.725 381.825 303.825 382.85 302.05 384.675 301 386.35 301zM400.775 303.025C400.075 302.475 399.275 302.025 397.9 302.025 395.425 302.025 393.55 304.025 393.075 306.525 392.6 309.125 393.575 311.175 396.075 311.175 397.675 311.175 399.625 309.65 399.975 307.6L400.775 303.025zM400.65 311.2C399.85 315.725 397.9 317.075 394.9 317.075 393.6 317.075 392.475 316.6 391.55 316.1L391.55 314.925C392.575 315.525 393.65 315.95 395.075 315.95 397.075 315.95 398.7 315 399.35 311.1L399.475 310.275C398.675 311.425 397.225 312.3 395.675 312.3 392.55 312.3 391.175 309.6 391.75 306.45 392.325 303.325 394.9 300.9 398 300.9 399.05 300.9 400.15 301.25 401.075 301.95L401.575 301.075 402.4 301.075 400.65 311.2z" mask="url(#timeline-diagram-c)"/>
    <path stroke="#FFF" stroke-linecap="square" stroke-width="6" d="M145.5,198.008938 C148.263995,202.057287 152.279994,206.339799 157.547997,210.856473 C162.815999,215.373148 168.133333,218.090637 173.5,219.008938" mask="url(#timeline-diagram-c)"/>
    <path stroke="#FFF" stroke-linecap="square" stroke-width="6" d="M276.5,277.008938 C278.597329,281.723954 282.279994,286.339799 287.547997,290.856473 C292.815999,295.373148 298.466667,297.757303 304.5,298.008938" mask="url(#timeline-diagram-c)" transform="rotate(-11 290.5 287.509)"/>
  </g>
</svg>
