<svg width="613" height="415" version="1.1" xmlns="http://www.w3.org/2000/svg" xmlns:xlink="http://www.w3.org/1999/xlink">
  <defs>
    <rect id="a" x="0" y="0" width="572" height="372" rx="3"/>
  </defs>
  <g stroke="none" stroke-width="1" fill="none" fill-rule="evenodd">
    <path fill="#E8E8E8" d="M0 0h613v415H0z"/>
    <use fill="#DDDDDD" xlink:href="#a" transform="translate(20 21)"/>
    <g fill-rule="nonzero">
      <path d="M559.5 218.107l-3.536-3.536 7.072-7.07-7.072-7.072 3.536-3.536 10.607 10.607-10.607 10.607z" fill="#938FC2"/>
      <path stroke="#938FC2" stroke-width="5" d="M54.5 207.5h510"/>
    </g>
    <path stroke="#938FC2" stroke-width="5" stroke-linecap="square" d="M54.5 360.5v-287"/>
    <path d="M65.107 78.5l-3.536 3.536-7.07-7.072-7.072 7.072-3.536-3.536L54.5 67.893 65.107 78.5z" fill="#938FC2" fill-rule="nonzero"/>
    <path d="M52.592 60.364c1.742 0 3.796-.702 5.2-2.574l.364 2.21h2.002l2.34-8.814h-7.8l-.702 2.756h3.146l-.104.364c-.52 1.768-1.742 2.678-3.172 2.678-1.586 0-2.548-.832-2.548-2.834 0-.832.26-2.21.65-3.406.962-2.99 2.158-4.888 4.42-4.888 1.924 0 2.6 1.43 2.366 3.198h4.316l1.716-6.318h-3.068l-1.3 2.002c-.754-1.404-2.314-2.392-4.732-2.392-5.902 0-9.776 4.576-9.776 11.076 0 4.264 2.47 6.942 6.682 6.942zm21.771 0c.936 0 1.742-.156 2.626-.364l.676-2.626c-.26.078-.468.13-.702.13-.338 0-.624-.156-.624-.65 0-.312.182-.806.364-1.404l2.236-8.528c-.65.182-1.69.312-2.938.312h-2.054l-.598 2.08c-.39-1.508-1.612-2.444-3.276-2.444-4.446 0-7.254 4.654-7.254 8.918 0 2.626 1.612 4.576 4.238 4.576 1.69 0 3.094-.91 4.056-2.184.182 1.43 1.3 2.184 3.25 2.184zm-5.122-3.094c-.858 0-1.482-.52-1.482-1.534 0-2.704 1.508-5.798 3.224-5.798.858 0 1.456.572 1.456 1.508 0 2.548-1.482 5.824-3.198 5.824zm15.61-10.79c1.534 0 2.756-1.144 2.756-2.496 0-1.3-1.04-2.236-2.6-2.236-1.534 0-2.73 1.17-2.73 2.522 0 1.3 1.014 2.21 2.574 2.21zm-2.73 13.884A8.56 8.56 0 0084.695 60l.676-2.6c-.26.078-.442.104-.676.104-.364 0-.572-.156-.572-.598 0-.676.546-2.366.936-3.77l1.69-6.214c-.728.182-1.924.312-3.302.312h-3.302l-.702 2.678h1.04c.39 0 .468.208.26.962L79.65 54.67c-.286 1.092-.754 2.444-.754 3.198 0 1.69 1.17 2.496 3.224 2.496zm15.973 0c.91 0 1.872-.104 2.756-.364l.676-2.626c-.234.078-.442.13-.676.13-.364 0-.572-.156-.572-.598 0-1.092 2.002-5.148 2.002-7.202 0-1.82-1.482-2.834-3.458-2.834-2.158 0-3.796.988-5.07 2.86l.78-2.808c-.702.182-1.898.312-3.302.312h-3.198l-.702 2.678h1.014c.39 0 .468.234.286.962L86.134 60h4.992c1.664-6.266 2.99-9.854 4.758-9.854.546 0 .91.286.91.832 0 1.118-1.872 5.07-1.872 6.786 0 1.924 1.144 2.6 3.172 2.6zm9.552 0c3.874 0 6.24-1.95 6.24-4.888 0-1.898-1.612-2.964-3.302-3.64-1.482-.598-2.21-.728-2.21-1.482 0-.624.702-1.092 1.69-1.092.598 0 1.144.104 1.534.286l-.416 1.508h3.016l.754-2.938c-1.352-.832-3.51-1.248-5.356-1.248-3.718 0-6.11 2.054-6.11 4.888 0 2.106 1.664 3.042 3.25 3.666 1.508.572 2.236.78 2.236 1.56 0 .624-.624 1.04-1.82 1.04-.884 0-1.56-.182-2.028-.416l.416-1.56h-2.99l-.806 3.016c1.69.806 3.51 1.3 5.902 1.3zm9.603-.364l11.232-17.264h-4.238L113.01 60h4.238zm21.485 0l1.69-6.396h-2.86l-1.404 2.444c-.621 1.07-1.005 1.163-2.38 1.17h-1.806l2.964-10.764c.208-.754.39-.962.858-.962h1.144l.702-2.756h-8.788l-.702 2.756h.91c.468 0 .572.208.364.962l-2.704 9.828c-.208.754-.39.936-.858.936h-.91L124.226 60h14.508zm9.162.364c4.342 0 7.54-3.302 7.54-7.618 0-3.848-2.782-5.876-6.682-5.876-4.368 0-7.436 3.198-7.436 7.488 0 3.874 2.704 6.006 6.578 6.006zm-.182-2.912c-1.144 0-1.664-.676-1.664-1.664 0-1.534 1.014-5.98 3.016-5.98 1.092 0 1.638.676 1.638 1.638 0 1.508-.988 6.006-2.99 6.006zm12.957 2.912c3.874 0 6.24-1.95 6.24-4.888 0-1.898-1.612-2.964-3.302-3.64-1.482-.598-2.21-.728-2.21-1.482 0-.624.702-1.092 1.69-1.092.598 0 1.144.104 1.534.286l-.416 1.508h3.016l.754-2.938c-1.352-.832-3.51-1.248-5.356-1.248-3.718 0-6.11 2.054-6.11 4.888 0 2.106 1.664 3.042 3.25 3.666 1.508.572 2.236.78 2.236 1.56 0 .624-.624 1.04-1.82 1.04-.884 0-1.56-.182-2.028-.416l.416-1.56h-2.99l-.806 3.016c1.69.806 3.51 1.3 5.902 1.3zm11.814 0c3.873 0 6.24-1.95 6.24-4.888 0-1.898-1.612-2.964-3.302-3.64-1.483-.598-2.21-.728-2.21-1.482 0-.624.702-1.092 1.69-1.092.597 0 1.144.104 1.534.286l-.417 1.508h3.016l.755-2.938c-1.352-.832-3.51-1.248-5.356-1.248-3.719 0-6.11 2.054-6.11 4.888 0 2.106 1.663 3.042 3.25 3.666 1.508.572 2.236.78 2.236 1.56 0 .624-.625 1.04-1.82 1.04-.885 0-1.56-.182-2.029-.416l.417-1.56h-2.99l-.806 3.016c1.69.806 3.51 1.3 5.901 1.3zm13.71.026c2.289 0 4.213-.598 5.695-2.184l-1.768-2.158c-.832.702-1.69 1.274-3.198 1.274-1.352 0-2.522-.572-2.522-2.158 0-.156-.026-.338 0-.572h8.034c.39-.884.572-1.924.572-2.86 0-2.652-1.586-4.862-5.616-4.862-4.81 0-7.774 3.51-7.774 8.06 0 3.458 2.626 5.46 6.578 5.46zm2.445-8.06h-3.614c.728-2.132 1.482-2.704 2.548-2.704.962 0 1.274.572 1.274 1.378 0 .442-.078.91-.208 1.326zm9.577 8.034c3.874 0 6.24-1.95 6.24-4.888 0-1.898-1.612-2.964-3.302-3.64-1.482-.598-2.21-.728-2.21-1.482 0-.624.702-1.092 1.69-1.092.598 0 1.144.104 1.534.286l-.416 1.508h3.016l.754-2.938c-1.352-.832-3.51-1.248-5.356-1.248-3.718 0-6.11 2.054-6.11 4.888 0 2.106 1.664 3.042 3.25 3.666 1.508.572 2.236.78 2.236 1.56 0 .624-.624 1.04-1.82 1.04-.884 0-1.56-.182-2.028-.416l.416-1.56h-2.99l-.806 3.016c1.69.806 3.51 1.3 5.902 1.3zM466.608 242l8.658-13.546c.494-.78.702-.962 1.274-.962h.832l.728-2.756h-7.072l-.702 2.756h.832c.572 0 .754.182.286.962l-4.472 7.332-.598-7.332c-.078-.78.208-.962.806-.962h.702l.728-2.756h-8.736l-.728 2.756h.91c.572 0 .702.208.78.962L462.162 242h4.446zm15.74.364c4.341 0 7.54-3.302 7.54-7.618 0-3.848-2.782-5.876-6.683-5.876-4.368 0-7.435 3.198-7.435 7.488 0 3.874 2.704 6.006 6.578 6.006zm-.183-2.912c-1.144 0-1.663-.676-1.663-1.664 0-1.534 1.013-5.98 3.015-5.98 1.093 0 1.639.676 1.639 1.638 0 1.508-.988 6.006-2.99 6.006zm11.554 2.912c.91 0 1.69-.104 2.574-.364l.676-2.626c-.26.078-.468.104-.676.104-.364 0-.598-.156-.598-.598 0-.676.572-2.366.962-3.77l2.912-10.712c-.702.182-1.924.338-3.328.338h-3.198l-.676 2.678h.832c.39 0 .468.208.26.962l-2.236 8.294c-.312 1.092-.754 2.444-.754 3.198 0 1.69 1.17 2.496 3.25 2.496zm15.895 0c.936 0 1.742-.156 2.626-.364l.676-2.626c-.26.078-.468.13-.702.13-.338 0-.624-.156-.624-.65 0-.312.182-.806.364-1.404l2.236-8.528c-.65.182-1.69.312-2.938.312h-2.054l-.598 2.08c-.39-1.508-1.612-2.444-3.276-2.444-4.446 0-7.254 4.654-7.254 8.918 0 2.626 1.612 4.576 4.238 4.576 1.69 0 3.094-.91 4.056-2.184.182 1.43 1.3 2.184 3.25 2.184zm-5.122-3.094c-.858 0-1.482-.52-1.482-1.534 0-2.704 1.508-5.798 3.224-5.798.858 0 1.456.572 1.456 1.508 0 2.548-1.482 5.824-3.198 5.824zm13.764 3.094c.884 0 1.742-.104 2.522-.364l.676-2.626c-.338.104-.65.156-1.092.156-.676 0-1.222-.26-1.222-1.04 0-.546.364-1.742.572-2.548l1.144-4.03h1.924l.702-2.678h-1.794l.962-3.666h-4.992l-.962 3.666h-1.56l-.676 2.678h1.456l-1.17 4.212c-.312 1.17-.52 2.132-.52 3.094 0 2.106 1.326 3.146 4.03 3.146zm10.695-13.884c1.534 0 2.756-1.144 2.756-2.496 0-1.3-1.04-2.236-2.6-2.236-1.534 0-2.73 1.17-2.73 2.522 0 1.3 1.014 2.21 2.574 2.21zm-2.73 13.884a8.56 8.56 0 002.574-.364l.676-2.6c-.26.078-.442.104-.676.104-.364 0-.572-.156-.572-.598 0-.676.546-2.366.936-3.77l1.69-6.214c-.728.182-1.924.312-3.302.312h-3.302l-.702 2.678h1.04c.39 0 .468.208.26.962l-1.092 3.796a34.86 34.86 0 01-.219.787l-.155.54c-.203.717-.38 1.407-.38 1.871 0 1.69 1.17 2.496 3.224 2.496zm7.861 0c.91 0 1.69-.104 2.574-.364l.676-2.626c-.26.078-.468.104-.676.104-.364 0-.598-.156-.598-.598 0-.676.572-2.366.962-3.77l2.912-10.712c-.702.182-1.924.338-3.328.338h-3.198l-.676 2.678h.832c.39 0 .468.208.26.962l-2.236 8.294c-.312 1.092-.754 2.444-.754 3.198 0 1.69 1.17 2.496 3.25 2.496zm10.67-13.884c1.534 0 2.756-1.144 2.756-2.496 0-1.3-1.04-2.236-2.6-2.236-1.534 0-2.73 1.17-2.73 2.522 0 1.3 1.014 2.21 2.574 2.21zm-2.73 13.884a8.56 8.56 0 002.574-.364l.676-2.6c-.26.078-.442.104-.676.104-.364 0-.572-.156-.572-.598 0-.676.546-2.366.936-3.77l1.69-6.214c-.728.182-1.924.312-3.302.312h-3.302l-.702 2.678h1.04c.39 0 .468.208.26.962l-1.092 3.796c-.066.252-.142.518-.22.787l-.154.54c-.203.717-.38 1.407-.38 1.871 0 1.69 1.17 2.496 3.224 2.496zm9.083 0c.884 0 1.742-.104 2.522-.364l.676-2.626c-.338.104-.65.156-1.092.156-.676 0-1.222-.26-1.222-1.04 0-.546.364-1.742.572-2.548l1.144-4.03h1.924l.702-2.678h-1.794l.962-3.666h-4.992l-.962 3.666h-1.56l-.676 2.678h1.456l-1.17 4.212c-.312 1.17-.52 2.132-.52 3.094 0 2.106 1.326 3.146 4.03 3.146zm6.588 4.264c3.614 0 6.344-2.184 8.398-5.486 2.21-3.432 4.004-7.046 4.004-9.074 0-1.768-.936-3.198-2.86-3.198-1.534 0-2.808 1.144-2.808 2.834 0 1.3.78 2.21 2.028 2.522a51.457 51.457 0 01-2.002 4.888l-2.366-9.88h-5.07l-.702 2.678h.754c.39 0 .546.182.78.962l2.678 9.984c-.806.416-1.716.572-2.678.572-1.144 0-2.002-.286-2.704-.52l-.78 2.938c.78.416 1.924.78 3.328.78zM373.67 349l.702-2.782h-1.118c-.468 0-.572-.182-.39-.936l.858-3.12h1.56c.806 0 .78.65.65 1.222l-.182.65h2.444l1.664-6.37h-2.418l-.182.624c-.182.624-.52 1.17-1.352 1.17h-1.43l1.378-4.966h1.82c1.326 0 1.768.208 2.028 1.196l.26 1.118h2.548l1.326-5.07H369.51l-.728 2.756h.91c.468 0 .598.208.39.962l-2.704 9.828c-.234.754-.416.936-.884.936h-.91l-.702 2.782h8.788zm12.62 0l1.118-4.16c1.17-4.16 2.002-5.824 3.562-5.824.312 0 .676.052.832.286-.858.312-1.534 1.17-1.508 2.106 0 1.17.962 1.794 2.184 1.794 2.08 0 3.302-2.288 3.276-4.342-.026-1.742-1.222-3.016-2.99-3.016-1.508 0-2.704.936-3.562 2.236l.598-2.158c-.728.182-1.924.312-3.302.312h-3.302l-.702 2.678h1.014c.39 0 .468.234.286.962L381.298 349h4.992zm20.627.364c.936 0 1.742-.156 2.626-.364l.676-2.626c-.26.078-.468.13-.702.13-.338 0-.624-.156-.624-.65 0-.312.182-.806.364-1.404l2.236-8.528c-.65.182-1.69.312-2.938.312h-2.054l-.598 2.08c-.39-1.508-1.612-2.444-3.276-2.444-4.446 0-7.254 4.654-7.254 8.918 0 2.626 1.612 4.576 4.238 4.576 1.69 0 3.094-.91 4.056-2.184.182 1.43 1.3 2.184 3.25 2.184zm-5.122-3.094c-.858 0-1.482-.52-1.482-1.534 0-2.704 1.508-5.798 3.224-5.798.858 0 1.456.572 1.456 1.508 0 2.548-1.482 5.824-3.198 5.824zm13.997 7.202c5.356 0 7.306-1.508 8.476-6.11l3.12-11.44c-.65.182-1.69.312-2.938.312h-2.08l-.546 1.82c-.442-1.274-1.716-2.184-3.38-2.184-4.446 0-7.28 4.212-7.28 8.476 0 2.626 1.664 4.394 4.29 4.394 1.638 0 2.99-.78 3.952-1.898l-.364 1.118c-.598 1.794-1.716 2.34-3.666 2.34a9.373 9.373 0 01-4.108-.988l-.754 3.042c1.092.572 3.016 1.118 5.278 1.118zm1.95-7.592c-.988 0-1.612-.676-1.612-1.768-.026-1.716 1.248-5.148 3.068-5.148.988 0 1.56.702 1.56 1.742.026 1.69-1.196 5.174-3.016 5.174zm15.116-10.4c1.534 0 2.756-1.144 2.756-2.496 0-1.3-1.04-2.236-2.6-2.236-1.534 0-2.73 1.17-2.73 2.522 0 1.3 1.014 2.21 2.574 2.21zm-2.73 13.884a8.56 8.56 0 002.574-.364l.676-2.6c-.26.078-.442.104-.676.104-.364 0-.572-.156-.572-.598 0-.676.546-2.366.936-3.77l1.69-6.214c-.728.182-1.924.312-3.302.312h-3.302l-.702 2.678h1.04c.39 0 .468.208.26.962l-1.092 3.796c-.066.252-.142.518-.22.787l-.154.54c-.203.717-.38 1.407-.38 1.871 0 1.69 1.17 2.496 3.224 2.496zm7.861 0c.91 0 1.69-.104 2.574-.364l.676-2.626c-.26.078-.468.104-.676.104-.364 0-.598-.156-.598-.598 0-.676.572-2.366.962-3.77l2.912-10.712c-.702.182-1.924.338-3.328.338h-3.198l-.676 2.678h.832c.39 0 .468.208.26.962l-2.236 8.294c-.312 1.092-.754 2.444-.754 3.198 0 1.69 1.17 2.496 3.25 2.496zm11.138.026c2.288 0 4.212-.598 5.694-2.184l-1.768-2.158c-.832.702-1.69 1.274-3.198 1.274-1.352 0-2.522-.572-2.522-2.158 0-.156-.026-.338 0-.572h8.034c.39-.884.572-1.924.572-2.86 0-2.652-1.586-4.862-5.616-4.862-4.81 0-7.774 3.51-7.774 8.06 0 3.458 2.626 5.46 6.578 5.46zm2.444-8.06h-3.614c.728-2.132 1.482-2.704 2.548-2.704.962 0 1.274.572 1.274 1.378 0 .442-.078.91-.208 1.326z" fill="#393561" fill-rule="nonzero"/>
    <path d="M54.5 136.5h84.417c61.527 1.851 121.928 25.351 181.206 70.5 59.277 45.149 127.07 96.315 203.377 153.5" stroke="#979797" stroke-width="3" stroke-linecap="square"/>
  </g>
</svg>
