<svg xmlns="http://www.w3.org/2000/svg" width="215" height="232" viewBox="0 0 215 232">
  <g fill="#D0D0D0" fill-rule="evenodd" transform="translate(.333)">
    <path d="M172.794267,180.230133 C172.8796,180.2388 172.9656,180.248133 173.050933,180.258133 C172.9656,180.248133 172.8796,180.239467 172.794267,180.230133 M159.1316,178.758133 C159.2316,178.768133 159.330933,178.7788 159.430267,178.789467 C159.330933,178.7788 159.2316,178.768133 159.1316,178.758133 M10.4322667,5.64613333 C10.3802667,5.7228 10.3289333,5.80013333 10.2776,5.87746667 C10.3282667,5.79946667 10.3796,5.72213333 10.4322667,5.64613333 M10.6969333,5.2528 C10.6162667,5.35146667 10.5369333,5.4508 10.4569333,5.54946667 C10.5349333,5.4488 10.6149333,5.35013333 10.6969333,5.2528 M11.1416,4.75813333 C11.0782667,4.8268 11.0142667,4.89546667 10.9496,4.96346667 C11.0129333,4.89413333 11.0769333,4.82546667 11.1416,4.75813333 M16.4676,0.8568 C15.4909333,1.17213333 14.5062667,1.45813333 13.5796,1.90613333 C12.5769333,2.3908 11.7356,3.04413333 10.8842667,3.75813333 C8.91026667,5.4168 7.3396,7.58613333 6.0896,9.82013333 C4.8816,11.9768 4.08693333,14.3621333 3.39426667,16.7241333 C2.60026667,19.4454667 2.04826667,22.2314667 1.5976,25.0288 C-0.139066667,35.7841333 -0.0844,46.7161333 1.29026667,57.5054667 C2.6416,68.1041333 5.68093333,78.5181333 9.49626667,88.4768 C13.2536,98.2888 17.9622667,107.6768 23.5609333,116.5628 C34.4416,133.8228 48.7642667,148.784133 65.4776,160.466133 C82.5536,172.403467 101.7276,181.255467 121.5976,187.414133 C126.220267,188.843467 130.884267,190.1328 135.594933,191.229467 C139.082267,192.0388 142.602933,192.8388 146.1416,193.3908 C150.060933,194.0028 153.982933,194.6148 157.902267,195.2268 C160.818933,195.682133 163.7696,195.997467 166.698933,196.359467 C168.626267,196.5988 170.558267,196.8228 172.4856,197.083467 C173.8296,197.265467 175.170267,197.4528 176.524933,197.541467 C176.970267,197.570133 177.410267,197.6248 177.852933,197.646133 C178.626267,197.687467 179.780267,197.0468 180.274933,196.784133 C181.764267,195.997467 184.022267,194.148133 185.2176,193.109467 C187.154933,191.4248 189.040267,189.534133 190.704267,187.578133 C192.058267,185.9868 193.3476,184.406133 194.368267,182.578133 C194.990933,181.463467 195.168267,181.000133 195.136933,179.906133 C195.350267,178.992133 195.0016,178.643467 194.0896,178.859467 C193.5456,179.0988 193.0016,179.3388 192.456933,179.5808 C191.6856,180.049467 190.936933,180.550133 190.212267,181.0828 C189.5456,181.0888 188.880267,181.083467 188.2096,181.057467 C187.310933,181.023467 186.412933,180.989467 185.514267,180.948133 C183.9856,180.880133 182.4516,180.833467 180.922933,180.7448 C179.4156,180.6588 177.910267,180.544133 176.404933,180.445467 C175.032933,180.355467 173.650933,180.3088 172.280933,180.1748 C168.168267,179.7328 164.056933,179.282133 159.944267,178.844133 C154.5916,178.0348 149.260267,177.1188 143.972933,175.948133 C138.7516,174.794133 133.5796,173.3748 128.456933,171.833467 C118.266933,168.765467 108.266933,164.888133 98.6316,160.372133 C89.2536,155.9768 80.2042667,150.731467 71.7042667,144.817467 C63.3996,139.0388 55.7176,132.3828 48.6836,125.117467 C37.6836,113.755467 28.4542667,100.6748 21.3322667,86.5574667 C14.0856,72.1908 8.72893333,56.7394667 6.95226667,40.6981333 C6.3696,34.9788 6.24093333,29.2801333 6.5456,23.5361333 C6.69426667,20.7268 6.9416,17.9348 7.39693333,15.1588 C7.82293333,12.5581333 8.4116,9.9628 9.43226667,7.52613333 C9.7616,6.8288 10.1256,6.1568 10.5342667,5.49813333 C10.5949333,5.4108 10.6569333,5.3248 10.7202667,5.23946667 C11.0116,5.07346667 11.3062667,4.9248 11.6122667,4.78213333 C12.2756,4.52946667 12.9509333,4.3188 13.6262667,4.10146667 C14.4962667,3.8228 15.2802667,2.94013333 15.8582667,2.27613333 C16.1109333,1.99746667 16.3349333,1.69546667 16.5302667,1.3748 C16.5602667,1.31613333 16.8162667,0.837466667 16.5709333,0.837466667 C16.5429333,0.837466667 16.5089333,0.8428 16.4676,0.8568"/>
    <path d="M198.672867,184.988267 C198.701533,185.0876 198.713533,185.194933 198.7082,185.3096 C198.696867,185.202933 198.684867,185.0956 198.672867,184.988267 M149.4922,131.624933 C148.653533,132.364267 147.861533,133.1536 147.124867,133.994933 C146.5102,134.700267 145.392867,135.838267 145.2262,136.838267 C145.0282,138.0336 144.796867,139.0576 145.1222,140.2476 C145.439533,141.4036 146.0022,142.494933 146.564867,143.5496 C147.697533,145.666933 149.093533,147.638267 150.5622,149.530933 C153.496867,153.314933 156.8982,156.734267 160.538867,159.8336 C166.434867,164.848933 172.918867,169.054933 179.5702,172.9816 C182.944867,174.974267 186.317533,176.9636 189.694867,178.950267 C190.899533,179.658267 192.087533,180.3936 193.277533,181.126933 C186.4242,186.5956 180.081533,192.666933 174.0882,199.0596 C174.9682,198.122267 175.8462,197.184933 176.7262,196.2476 C172.1562,201.1096 167.548867,205.940267 163.1402,210.952933 C161.3802,212.9556 159.6482,214.978933 157.921533,217.0156 C157.1822,217.8856 156.4582,218.7656 155.728867,219.642933 C154.575533,221.0336 153.426867,222.4296 152.306867,223.846267 C151.817533,224.4636 151.369533,225.1016 150.918867,225.744933 C150.163533,226.5936 149.572867,227.530933 149.145533,228.5596 C148.608867,229.762933 148.030867,230.346267 148.559533,231.570267 C148.900867,231.606933 149.2422,231.6456 149.582867,231.682267 C150.3462,231.388267 151.127533,231.112267 151.809533,230.6616 C153.601533,229.572933 155.275533,228.3256 156.8302,226.918933 C159.684867,224.440267 162.436867,221.638267 164.668867,218.578267 C165.6042,217.436933 166.3402,216.1836 166.869533,214.820933 C166.8842,214.802267 166.898867,214.7836 166.913533,214.7656 C169.5142,211.6596 172.1502,208.590267 174.806867,205.528933 C177.256867,202.7056 179.8762,200.0176 182.432867,197.288933 C181.692867,198.0796 180.951533,198.8696 180.210867,199.658933 C181.7622,198.084933 183.317533,196.516267 184.9042,194.9776 C185.909533,194.072267 186.930867,193.186933 187.967533,192.316933 C188.9102,191.580267 189.867533,190.8636 190.8442,190.172933 C192.324867,189.2536 193.844867,188.422933 195.417533,187.6756 C196.083533,187.412933 196.756867,187.1836 197.444867,186.9636 C198.765533,186.538933 200.012867,185.932267 201.179533,185.190267 C204.7082,182.942933 207.822867,180.0856 210.564867,176.9296 C211.8042,175.5596 212.900867,174.0856 213.858867,172.510267 C214.496867,171.762933 214.6922,170.950267 214.447533,170.064933 C213.489533,169.130267 212.0622,168.8856 210.8302,168.434933 C210.051533,168.150933 209.2702,167.8776 208.499533,167.580933 C206.866867,166.9476 205.223533,166.3336 203.603533,165.668933 C199.8642,164.138267 196.168867,162.5576 192.478867,160.9116 C185.434867,157.762933 178.650867,154.138267 172.249533,149.814933 C168.265533,147.122267 164.5182,144.0596 161.082867,140.6956 C159.3982,139.044267 157.843533,137.254933 156.288867,135.484267 C154.780867,133.770933 153.598867,131.892933 152.765533,129.7736 C152.747533,129.694267 152.6882,129.6596 152.5982,129.6596 C151.9262,129.6596 149.521533,131.5996 149.4922,131.624933"/>
  </g>
</svg>
