<svg xmlns="http://www.w3.org/2000/svg" width="227" height="79" viewBox="0 0 227 79">
  <g fill="#C4614E" fill-rule="evenodd" transform="translate(-1)">
    <path d="M10.527,71.435 L10.527,69.405 C12.122,69.231 13.746,68.593 13.746,67.114 C13.746,66.012 12.644,65.606 11.223,65.287 L6.061,64.156 C3.509,63.605 1.595,62.387 1.595,60.096 C1.595,57.08 4.611,55.746 7.627,55.572 L7.627,57.544 C6.148,57.631 4.611,58.182 4.611,59.545 C4.611,60.531 5.597,61.082 6.728,61.314 L12.702,62.561 C15.138,63.083 16.762,64.504 16.762,66.534 C16.762,69.666 13.833,71.261 10.527,71.435 Z M9.077,69.463 L9.077,71.435 C7.047,71.348 5.51,70.826 3.828,69.753 L3.393,71.029 L1.682,71.029 L1.682,65.345 L3.422,65.345 C3.741,67.752 5.771,69.318 9.077,69.463 Z M15.631,60.937 L13.891,60.937 C13.311,58.704 11.687,57.718 9.077,57.544 L9.077,55.572 C10.672,55.659 12.093,56.065 13.369,56.935 L14.036,55.543 L15.631,55.543 L15.631,60.937 Z M27.666,71 L18.386,71 L18.386,69.231 L20.3,69.231 C20.648,69.231 21.373,69.057 21.373,68.129 L21.373,51.802 C21.373,51.193 20.88,51.048 20.503,51.048 L18.154,51.048 L18.154,49.395 L24.505,48.902 L24.505,68.129 C24.505,68.941 24.94,69.231 25.607,69.231 L27.666,69.231 L27.666,71 Z M39.121,71 L30.276,71 L30.276,69.231 L32.016,69.231 C32.567,69.231 33.031,68.883 33.031,68.187 L33.031,60.154 C33.031,58.588 31.32,57.834 29.58,57.834 C28.275,57.834 26.941,58.24 25.955,58.936 L25.955,56.877 C27.173,55.978 28.652,55.514 30.479,55.514 C33.234,55.514 36.105,56.906 36.105,59.458 L36.105,68.1 C36.105,68.767 36.598,69.231 37.062,69.231 L39.121,69.231 L39.121,71 Z M56.927,68.187 L56.927,65.432 L58.667,65.432 L58.667,68.999 C58.667,70.826 57.101,71.493 55.738,71.493 C52.664,71.493 51.997,70.565 51.997,67.984 L51.997,60.27 C51.997,58.327 50.982,57.544 48.691,57.428 L48.691,55.456 C51.533,55.543 54.955,56.442 54.955,59.371 L54.955,68.68 C54.955,69.173 55.071,69.521 55.941,69.521 C56.927,69.521 56.927,68.97 56.927,68.187 Z M50.547,61.546 L50.547,63.315 C48.169,63.663 43.935,64.736 43.935,66.94 C43.935,68.158 44.95,69.144 46.487,69.144 C48.053,69.144 49.532,68.68 50.547,67.897 C50.634,68.651 50.605,69.376 50.837,70.13 C49.387,71 47.473,71.493 45.907,71.493 C42.978,71.493 40.745,70.159 40.745,67.491 C40.745,65.055 42.572,63.547 45.124,62.677 C46.806,62.097 48.778,61.749 50.547,61.546 Z M47.241,55.485 L47.241,57.399 C46.313,57.428 45.501,57.573 44.776,57.95 C45.472,58.269 45.791,58.733 45.791,59.371 C45.791,60.473 44.95,61.14 43.819,61.14 C42.253,61.14 41.644,60.27 41.644,59.023 C41.644,56.529 44.747,55.659 47.241,55.485 Z M70.325,71 L60.001,71 L60.001,69.231 L61.886,69.231 C62.263,69.231 62.988,69.057 62.988,68.129 L62.988,58.501 C62.988,57.892 62.524,57.747 62.263,57.747 L59.74,57.747 L59.74,56.094 L66.12,55.572 L66.12,68.129 C66.12,68.941 66.497,69.231 67.222,69.231 L70.325,69.231 L70.325,71 Z M67.57,59.4 L67.57,57.109 C68.527,56.21 69.89,55.572 71.862,55.572 C74.008,55.572 75.342,56.558 75.342,58.356 C75.342,59.922 74.24,60.618 73.167,60.618 C72.21,60.618 71.282,60.038 71.282,58.936 C71.282,58.327 71.746,57.747 72.21,57.341 C72.007,57.312 71.775,57.283 71.572,57.283 C70.151,57.283 68.643,58.182 67.57,59.4 Z M85.521,78.395 L76.212,78.395 L76.212,76.626 L78.097,76.626 C78.445,76.626 79.17,76.452 79.17,75.524 L79.17,58.501 C79.17,57.921 78.706,57.747 78.3,57.747 L75.98,57.747 L75.98,56.094 L82.186,55.601 L82.186,75.524 C82.186,76.336 82.621,76.626 83.346,76.626 L85.521,76.626 L85.521,78.395 Z M83.636,70.304 L83.636,68.071 C84.535,69.028 85.782,69.492 87.116,69.492 C89.494,69.492 92.278,67.491 92.278,63.489 C92.278,59.255 89.929,57.515 87.435,57.515 C86.043,57.515 84.651,58.066 83.636,59.168 L83.636,56.993 C84.825,56.152 86.42,55.543 87.957,55.543 C93.322,55.543 95.758,59.516 95.758,63.489 C95.758,68.477 91.727,71.464 87.841,71.464 C86.362,71.464 84.854,71.029 83.636,70.304 Z M106.43,69.289 L106.43,71.435 C100.862,71.203 98.194,67.926 98.194,63.547 C98.194,59.168 101.152,55.746 106.43,55.543 L106.43,57.515 C103.559,57.689 101.5,59.516 101.5,63.605 C101.5,67.346 103.936,69.028 106.43,69.289 Z M115.217,63.866 L103.066,63.866 L103.066,61.923 L111.563,61.923 C111.563,59.893 110.49,57.95 107.88,57.573 L107.88,55.601 C113.071,55.978 115.217,59.4 115.217,63.866 Z M107.88,71.435 L107.88,69.347 C112.172,69.173 112.868,66.65 112.926,66.012 L115.014,66.012 C114.898,68.245 112.752,71.174 107.88,71.435 Z M138.272,71 L129.398,71 L129.398,69.231 L131.138,69.231 C132.008,69.231 132.182,68.883 132.182,68.158 L132.182,60.734 C132.182,58.588 130.471,57.834 128.731,57.834 C127.426,57.834 126.092,58.327 125.106,59.081 L125.106,56.877 C126.324,55.978 127.832,55.514 129.63,55.514 C132.385,55.514 135.256,56.906 135.256,60.038 L135.256,68.158 C135.256,68.941 135.72,69.231 136.242,69.231 L138.272,69.231 L138.272,71 Z M126.759,71 L117.537,71 L117.537,69.231 L119.451,69.231 C120.292,69.231 120.495,68.941 120.495,68.158 L120.495,58.501 C120.495,57.892 119.973,57.747 119.654,57.747 L117.276,57.747 L117.276,56.094 L123.656,55.601 L123.656,68.129 C123.656,68.941 124.091,69.231 124.758,69.231 L126.759,69.231 L126.759,71 Z M142.564,71.348 C141.462,71.348 140.505,70.42 140.505,69.318 C140.505,68.187 141.462,67.259 142.564,67.259 C143.666,67.259 144.594,68.187 144.594,69.318 C144.594,70.42 143.666,71.348 142.564,71.348 Z M155.962,78.395 L146.653,78.395 L146.653,76.626 L148.538,76.626 C148.886,76.626 149.611,76.452 149.611,75.524 L149.611,58.501 C149.611,57.921 149.147,57.747 148.741,57.747 L146.421,57.747 L146.421,56.094 L152.627,55.601 L152.627,75.524 C152.627,76.336 153.062,76.626 153.787,76.626 L155.962,76.626 L155.962,78.395 Z M154.077,70.304 L154.077,68.071 C154.976,69.028 156.223,69.492 157.557,69.492 C159.935,69.492 162.719,67.491 162.719,63.489 C162.719,59.255 160.37,57.515 157.876,57.515 C156.484,57.515 155.092,58.066 154.077,59.168 L154.077,56.993 C155.266,56.152 156.861,55.543 158.398,55.543 C163.763,55.543 166.199,59.516 166.199,63.489 C166.199,68.477 162.168,71.464 158.282,71.464 C156.803,71.464 155.295,71.029 154.077,70.304 Z M184.788,68.187 L184.788,65.432 L186.528,65.432 L186.528,68.999 C186.528,70.826 184.962,71.493 183.599,71.493 C180.525,71.493 179.858,70.565 179.858,67.984 L179.858,60.27 C179.858,58.327 178.843,57.544 176.552,57.428 L176.552,55.456 C179.394,55.543 182.816,56.442 182.816,59.371 L182.816,68.68 C182.816,69.173 182.932,69.521 183.802,69.521 C184.788,69.521 184.788,68.97 184.788,68.187 Z M178.408,61.546 L178.408,63.315 C176.03,63.663 171.796,64.736 171.796,66.94 C171.796,68.158 172.811,69.144 174.348,69.144 C175.914,69.144 177.393,68.68 178.408,67.897 C178.495,68.651 178.466,69.376 178.698,70.13 C177.248,71 175.334,71.493 173.768,71.493 C170.839,71.493 168.606,70.159 168.606,67.491 C168.606,65.055 170.433,63.547 172.985,62.677 C174.667,62.097 176.639,61.749 178.408,61.546 Z M175.102,55.485 L175.102,57.399 C174.174,57.428 173.362,57.573 172.637,57.95 C173.333,58.269 173.652,58.733 173.652,59.371 C173.652,60.473 172.811,61.14 171.68,61.14 C170.114,61.14 169.505,60.27 169.505,59.023 C169.505,56.529 172.608,55.659 175.102,55.485 Z M196.156,64.591 L196.156,66.447 C192.27,66.273 189.167,64.562 189.167,61.111 C189.167,57.66 192.444,55.949 196.156,55.746 L196.156,57.573 C193.894,57.805 192.734,59.284 192.734,61.053 C192.734,62.996 193.807,64.359 196.156,64.591 Z M207.118,57.428 C206.712,57.138 206.277,56.993 205.842,56.993 C205.233,56.993 204.624,57.225 204.044,57.689 C203.87,57.341 203.58,56.935 203.145,56.616 C204.044,56.065 205.03,55.717 205.958,55.717 C208.452,55.717 209.931,56.877 209.931,58.733 C209.931,60.009 208.916,60.879 207.582,60.879 C206.248,60.879 205.233,60.125 205.233,59.081 C205.233,58.24 205.929,57.66 207.118,57.428 Z M197.606,66.418 L197.606,64.591 C199.839,64.359 200.941,63.054 200.941,61.111 C200.941,59.168 199.955,57.834 197.606,57.602 L197.606,55.746 C200.883,55.92 204.45,57.834 204.45,61.314 C204.45,64.765 201.115,66.244 197.606,66.418 Z M188.674,72.595 C189.515,73.088 190.385,73.204 191.255,73.204 C191.081,73.552 190.994,73.784 190.994,74.248 C190.994,76.539 194.445,76.829 196.591,76.829 C198.418,76.829 203.551,76.452 203.551,73.813 C203.551,72.102 200.535,71.377 197.49,71.377 C196.214,71.377 193.981,71.696 192.212,71.696 C190.356,71.696 187.688,70.971 187.688,68.738 C187.688,67.462 188.442,66.563 189.428,65.896 C190.066,66.273 190.559,66.563 191.255,66.737 C191.023,67.056 190.878,67.404 190.878,67.694 C190.878,68.564 191.429,69.115 192.56,69.115 C193.691,69.115 195.663,68.796 198.273,68.796 C201.057,68.796 206.596,69.086 206.596,72.943 C206.596,77.438 200.158,78.772 196.214,78.772 C193.372,78.772 187.659,78.105 187.659,74.683 C187.659,73.842 188.065,73.117 188.674,72.595 Z M218.341,69.289 L218.341,71.435 C212.773,71.203 210.105,67.926 210.105,63.547 C210.105,59.168 213.063,55.746 218.341,55.543 L218.341,57.515 C215.47,57.689 213.411,59.516 213.411,63.605 C213.411,67.346 215.847,69.028 218.341,69.289 Z M227.128,63.866 L214.977,63.866 L214.977,61.923 L223.474,61.923 C223.474,59.893 222.401,57.95 219.791,57.573 L219.791,55.601 C224.982,55.978 227.128,59.4 227.128,63.866 Z M219.791,71.435 L219.791,69.347 C224.083,69.173 224.779,66.65 224.837,66.012 L226.925,66.012 C226.809,68.245 224.663,71.174 219.791,71.435 Z"/>
    <polygon points="142.5 0 159.5 64 125.5 64" transform="rotate(-180 142.5 32)"/>
  </g>
</svg>
