<svg xmlns="http://www.w3.org/2000/svg" width="353" height="256" viewBox="0 0 353 256">
  <g fill="none" fill-rule="evenodd">
    <path fill="#000" fill-opacity=".065" d="M40,256 L40,178 L40.2369146,178 L40.2369146,137 L40,137 L40,61 L40.2369146,61 L40.2369146,10 L101.655647,10 L101.655647,61 L289.027548,61 L289.027548,119 L353,119 L353,204 L246.225895,204 L246.225895,256 L40,256 Z"/>
    <path fill="#D2DC00" fill-opacity=".6" d="M0,246 L0,168 L0.236914601,168 L0.236914601,127 L2.77555756e-17,127 L0,51 L0.236914601,51 L0.236914601,0 L61.6556474,0 L61.6556474,51 L234.027548,51 L234.027548,109 L313,109 L313,194 L206.225895,194 L206.225895,246 L0,246 Z"/>
    <text fill="#FFF" font-family="MrEavesXLSanOT-Book, Mr Eaves XL San OT" font-size="68" font-weight="300" letter-spacing="-1.133">
      <tspan x="16" y="59">A </tspan> <tspan x="16" y="116">PRODUCT</tspan> <tspan x="16" y="173">SHARPENING</tspan> <tspan x="16" y="230">SERVICE</tspan>
    </text>
  </g>
</svg>
